<svg xmlns="http://www.w3.org/2000/svg" xmlns:xlink="http://www.w3.org/1999/xlink" width="268" zoomAndPan="magnify" viewBox="0 0 200.87999 89.999999" height="120" preserveAspectRatio="xMidYMid meet" version="1.0"><defs><g/><clipPath id="6f5b95ad90"><path d="M 12 0.0273438 L 15 0.0273438 L 15 7 L 12 7 Z M 12 0.0273438 " clip-rule="nonzero"/></clipPath><clipPath id="5916fbc7e8"><path d="M 15 0.0273438 L 21 0.0273438 L 21 7 L 15 7 Z M 15 0.0273438 " clip-rule="nonzero"/></clipPath><clipPath id="f06eb43959"><path d="M 21 0.0273438 L 27 0.0273438 L 27 7 L 21 7 Z M 21 0.0273438 " clip-rule="nonzero"/></clipPath><clipPath id="7ae69ccd75"><path d="M 29 0.0273438 L 35 0.0273438 L 35 7 L 29 7 Z M 29 0.0273438 " clip-rule="nonzero"/></clipPath><clipPath id="8113db8ca8"><path d="M 34 0.0273438 L 41 0.0273438 L 41 7 L 34 7 Z M 34 0.0273438 " clip-rule="nonzero"/></clipPath><clipPath id="5f8fbde8fd"><path d="M 41 0.0273438 L 48 0.0273438 L 48 7 L 41 7 Z M 41 0.0273438 " clip-rule="nonzero"/></clipPath><clipPath id="6fae13c0ad"><path d="M 48 0.0273438 L 54 0.0273438 L 54 7 L 48 7 Z M 48 0.0273438 " clip-rule="nonzero"/></clipPath><clipPath id="152c839c52"><path d="M 54 0.0273438 L 61 0.0273438 L 61 7 L 54 7 Z M 54 0.0273438 " clip-rule="nonzero"/></clipPath><clipPath id="f2ae636883"><path d="M 60 0.0273438 L 68 0.0273438 L 68 7 L 60 7 Z M 60 0.0273438 " clip-rule="nonzero"/></clipPath><clipPath id="8a907fac27"><path d="M 67 0.0273438 L 73 0.0273438 L 73 7 L 67 7 Z M 67 0.0273438 " clip-rule="nonzero"/></clipPath><clipPath id="c1d2640f50"><path d="M 72 0.0273438 L 75 0.0273438 L 75 7 L 72 7 Z M 72 0.0273438 " clip-rule="nonzero"/></clipPath><clipPath id="fafcec51b1"><path d="M 75 0.0273438 L 82 0.0273438 L 82 7 L 75 7 Z M 75 0.0273438 " clip-rule="nonzero"/></clipPath><clipPath id="5a8a09b386"><path d="M 82 0.0273438 L 88 0.0273438 L 88 7 L 82 7 Z M 82 0.0273438 " clip-rule="nonzero"/></clipPath></defs><g fill="#e3b655" fill-opacity="1"><g transform="translate(117.538026, 88.014775)"><g><path d="M 11.65625 -23.359375 C 14.9375 -23.359375 17.457031 -22.34375 19.21875 -20.3125 C 20.988281 -18.289062 21.875 -15.390625 21.875 -11.609375 C 21.875 -7.816406 20.988281 -4.90625 19.21875 -2.875 C 17.457031 -0.84375 14.9375 0.171875 11.65625 0.171875 C 8.34375 0.171875 5.796875 -0.84375 4.015625 -2.875 C 2.242188 -4.90625 1.359375 -7.816406 1.359375 -11.609375 C 1.359375 -15.390625 2.242188 -18.289062 4.015625 -20.3125 C 5.796875 -22.34375 8.34375 -23.359375 11.65625 -23.359375 Z M 11.65625 -19.0625 C 10.15625 -19.0625 9.070312 -18.484375 8.40625 -17.328125 C 7.738281 -16.171875 7.40625 -14.265625 7.40625 -11.609375 C 7.40625 -8.960938 7.738281 -7.054688 8.40625 -5.890625 C 9.070312 -4.722656 10.15625 -4.140625 11.65625 -4.140625 C 13.101562 -4.140625 14.164062 -4.726562 14.84375 -5.90625 C 15.519531 -7.082031 15.859375 -8.984375 15.859375 -11.609375 C 15.859375 -14.234375 15.519531 -16.128906 14.84375 -17.296875 C 14.164062 -18.472656 13.101562 -19.0625 11.65625 -19.0625 Z M 11.65625 -19.0625 "/></g></g></g><g fill="#ffffff" fill-opacity="1"><g transform="translate(11.391716, 20.373627)"><g><path d="M 2.953125 -12.609375 L 4.03125 -12.609375 L 4.03125 0 L 2.953125 0 Z M 1.34375 -12.609375 L 2.421875 -12.609375 L 2.421875 0 L 1.34375 0 Z M 1.34375 -12.609375 "/></g></g></g><g fill="#ffffff" fill-opacity="1"><g transform="translate(16.849131, 20.373627)"><g><path d="M 4.15625 -12.609375 L 5.40625 -12.609375 L 10.46875 -3.25 L 10.46875 -12.609375 L 11.546875 -12.609375 L 11.546875 0 L 11.109375 0 Z M 4.03125 -9.703125 L 4.03125 0 L 2.953125 0 L 2.953125 -12.609375 L 3.484375 -12.609375 L 10.46875 0 L 9.28125 0 Z M 12.078125 -12.609375 L 13.15625 -12.609375 L 13.15625 0 L 12.078125 0 Z M 1.34375 -12.609375 L 2.421875 -12.609375 L 2.421875 0 L 1.34375 0 Z M 1.34375 -12.609375 "/></g></g></g><g fill="#ffffff" fill-opacity="1"><g transform="translate(31.592975, 20.373627)"><g><path d="M 2.953125 -9.921875 L 2.421875 -9.921875 L 2.421875 0 L 1.34375 0 L 1.34375 -11 L 6.390625 -11 C 7.066406 -11 7.707031 -10.875 8.3125 -10.625 C 8.925781 -10.382812 9.457031 -10.050781 9.90625 -9.625 C 10.351562 -9.207031 10.707031 -8.710938 10.96875 -8.140625 C 11.226562 -7.566406 11.359375 -6.953125 11.359375 -6.296875 C 11.359375 -5.640625 11.226562 -5.023438 10.96875 -4.453125 C 10.707031 -3.878906 10.351562 -3.382812 9.90625 -2.96875 C 9.457031 -2.550781 8.925781 -2.21875 8.3125 -1.96875 C 7.707031 -1.726562 7.066406 -1.609375 6.390625 -1.609375 L 4.03125 -1.609375 L 4.03125 -1.078125 L 6.390625 -1.078125 C 7.148438 -1.078125 7.863281 -1.207031 8.53125 -1.46875 C 9.195312 -1.738281 9.78125 -2.109375 10.28125 -2.578125 C 10.78125 -3.054688 11.171875 -3.609375 11.453125 -4.234375 C 11.742188 -4.867188 11.890625 -5.554688 11.890625 -6.296875 C 11.890625 -7.023438 11.742188 -7.707031 11.453125 -8.34375 C 11.171875 -8.976562 10.78125 -9.535156 10.28125 -10.015625 C 9.78125 -10.492188 9.195312 -10.867188 8.53125 -11.140625 C 7.863281 -11.410156 7.148438 -11.546875 6.390625 -11.546875 L 1.34375 -11.546875 L 1.34375 -12.609375 L 6.390625 -12.609375 C 7.296875 -12.609375 8.144531 -12.441406 8.9375 -12.109375 C 9.738281 -11.785156 10.4375 -11.335938 11.03125 -10.765625 C 11.632812 -10.203125 12.109375 -9.535156 12.453125 -8.765625 C 12.796875 -8.003906 12.96875 -7.179688 12.96875 -6.296875 C 12.96875 -5.410156 12.796875 -4.585938 12.453125 -3.828125 C 12.109375 -3.066406 11.632812 -2.398438 11.03125 -1.828125 C 10.4375 -1.265625 9.738281 -0.816406 8.9375 -0.484375 C 8.144531 -0.160156 7.296875 0 6.390625 0 L 2.953125 0 Z M 4.03125 -9.921875 L 4.03125 -2.6875 L 6.375 -2.6875 C 6.90625 -2.6875 7.40625 -2.773438 7.875 -2.953125 C 8.351562 -3.140625 8.769531 -3.394531 9.125 -3.71875 C 9.476562 -4.039062 9.753906 -4.421875 9.953125 -4.859375 C 10.160156 -5.304688 10.265625 -5.785156 10.265625 -6.296875 C 10.265625 -6.804688 10.160156 -7.28125 9.953125 -7.71875 C 9.753906 -8.164062 9.476562 -8.550781 9.125 -8.875 C 8.769531 -9.207031 8.351562 -9.460938 7.875 -9.640625 C 7.40625 -9.828125 6.90625 -9.921875 6.375 -9.921875 Z M 4.03125 -9.921875 "/></g></g></g><g fill="#ffffff" fill-opacity="1"><g transform="translate(45.334818, 20.373627)"><g><path d="M 2.953125 -12.609375 L 4.03125 -12.609375 L 4.03125 0 L 2.953125 0 Z M 1.34375 -12.609375 L 2.421875 -12.609375 L 2.421875 0 L 1.34375 0 Z M 1.34375 -12.609375 "/></g></g></g><g fill="#ffffff" fill-opacity="1"><g transform="translate(50.792233, 20.373627)"><g><path d="M 6.203125 -12.609375 L 7.625 -12.609375 L 12.046875 0 L 10.890625 0 L 6.90625 -11.375 L 6.625 -10.53125 L 10.3125 0 L 9.15625 0 L 8.234375 -2.6875 L 3.859375 -2.6875 L 2.9375 0 L 1.8125 0 Z M 4.484375 -12.609375 L 5.640625 -12.609375 L 1.21875 0 L 0.09375 0 Z M 4.8125 -5.375 L 7.296875 -5.375 L 6.0625 -8.96875 Z M 4.234375 -3.75 L 7.859375 -3.75 L 7.671875 -4.296875 L 4.4375 -4.296875 Z M 4.234375 -3.75 "/></g></g></g><g fill="#ffffff" fill-opacity="1"><g transform="translate(63.031066, 20.373627)"><g><path d="M 0.53125 -5.90625 L 4.828125 -5.90625 L 4.828125 -4.828125 L 0.53125 -4.828125 Z M 0.53125 -4.296875 L 4.828125 -4.296875 L 4.828125 -3.21875 L 0.53125 -3.21875 Z M 0.53125 -4.296875 "/></g></g></g><g fill="#ffffff" fill-opacity="1"><g transform="translate(68.488483, 20.373627)"><g><path d="M 4.15625 -12.609375 L 5.40625 -12.609375 L 10.46875 -3.25 L 10.46875 -12.609375 L 11.546875 -12.609375 L 11.546875 0 L 11.109375 0 Z M 4.03125 -9.703125 L 4.03125 0 L 2.953125 0 L 2.953125 -12.609375 L 3.484375 -12.609375 L 10.46875 0 L 9.28125 0 Z M 12.078125 -12.609375 L 13.15625 -12.609375 L 13.15625 0 L 12.078125 0 Z M 1.34375 -12.609375 L 2.421875 -12.609375 L 2.421875 0 L 1.34375 0 Z M 1.34375 -12.609375 "/></g></g></g><g fill="#ffffff" fill-opacity="1"><g transform="translate(83.232327, 20.373627)"><g><path d="M 1.34375 -11 L 9.921875 -11 L 9.921875 -9.921875 L 4.03125 -9.921875 L 4.03125 -7.78125 L 9.65625 -7.78125 L 9.65625 -6.703125 L 4.03125 -6.703125 L 4.03125 -6.171875 L 9.65625 -6.171875 L 9.65625 -5.09375 L 4.03125 -5.09375 L 4.03125 -2.6875 L 10.203125 -2.6875 L 10.203125 -1.609375 L 4.03125 -1.609375 L 4.03125 -1.078125 L 10.203125 -1.078125 L 10.203125 0 L 2.953125 0 L 2.953125 -9.921875 L 2.421875 -9.921875 L 2.421875 0 L 1.34375 0 Z M 1.34375 -12.609375 L 9.921875 -12.609375 L 9.921875 -11.546875 L 1.34375 -11.546875 Z M 1.34375 -12.609375 "/></g></g></g><g fill="#ffffff" fill-opacity="1"><g transform="translate(94.665983, 20.373627)"><g><path d="M 6.859375 -11 C 7.171875 -11 7.460938 -10.9375 7.734375 -10.8125 C 8.015625 -10.695312 8.257812 -10.535156 8.46875 -10.328125 C 8.675781 -10.117188 8.835938 -9.878906 8.953125 -9.609375 C 9.078125 -9.335938 9.140625 -9.039062 9.140625 -8.71875 C 9.140625 -8.394531 9.078125 -8.09375 8.953125 -7.8125 C 8.835938 -7.539062 8.675781 -7.300781 8.46875 -7.09375 C 8.257812 -6.894531 8.015625 -6.734375 7.734375 -6.609375 C 7.460938 -6.492188 7.171875 -6.4375 6.859375 -6.4375 L 4.03125 -6.4375 L 4.03125 -5.90625 L 6.859375 -5.90625 C 7.242188 -5.90625 7.609375 -5.976562 7.953125 -6.125 C 8.296875 -6.269531 8.59375 -6.46875 8.84375 -6.71875 C 9.101562 -6.976562 9.304688 -7.273438 9.453125 -7.609375 C 9.597656 -7.953125 9.671875 -8.320312 9.671875 -8.71875 C 9.671875 -9.101562 9.597656 -9.46875 9.453125 -9.8125 C 9.304688 -10.15625 9.101562 -10.453125 8.84375 -10.703125 C 8.59375 -10.960938 8.296875 -11.164062 7.953125 -11.3125 C 7.609375 -11.46875 7.242188 -11.546875 6.859375 -11.546875 L 1.34375 -11.546875 L 1.34375 -12.609375 L 6.859375 -12.609375 C 7.390625 -12.609375 7.890625 -12.503906 8.359375 -12.296875 C 8.835938 -12.097656 9.253906 -11.820312 9.609375 -11.46875 C 9.960938 -11.113281 10.238281 -10.695312 10.4375 -10.21875 C 10.644531 -9.75 10.75 -9.25 10.75 -8.71875 C 10.75 -8.175781 10.644531 -7.671875 10.4375 -7.203125 C 10.238281 -6.734375 9.960938 -6.320312 9.609375 -5.96875 C 9.253906 -5.613281 8.835938 -5.332031 8.359375 -5.125 C 7.890625 -4.925781 7.390625 -4.828125 6.859375 -4.828125 L 4.03125 -4.828125 L 4.03125 0 L 2.953125 0 L 2.953125 -9.921875 L 2.421875 -9.921875 L 2.421875 0 L 1.34375 0 L 1.34375 -11 Z M 4.03125 -9.921875 L 4.03125 -7.515625 L 6.859375 -7.515625 C 7.203125 -7.515625 7.488281 -7.625 7.71875 -7.84375 C 7.945312 -8.070312 8.0625 -8.363281 8.0625 -8.71875 C 8.0625 -9.0625 7.945312 -9.347656 7.71875 -9.578125 C 7.488281 -9.804688 7.203125 -9.921875 6.859375 -9.921875 Z M 4.03125 -9.921875 "/></g></g></g><g fill="#ffffff" fill-opacity="1"><g transform="translate(106.099638, 20.373627)"><g><path d="M 6.203125 -12.609375 L 7.625 -12.609375 L 12.046875 0 L 10.890625 0 L 6.90625 -11.375 L 6.625 -10.53125 L 10.3125 0 L 9.15625 0 L 8.234375 -2.6875 L 3.859375 -2.6875 L 2.9375 0 L 1.8125 0 Z M 4.484375 -12.609375 L 5.640625 -12.609375 L 1.21875 0 L 0.09375 0 Z M 4.8125 -5.375 L 7.296875 -5.375 L 6.0625 -8.96875 Z M 4.234375 -3.75 L 7.859375 -3.75 L 7.671875 -4.296875 L 4.4375 -4.296875 Z M 4.234375 -3.75 "/></g></g></g><g fill="#ffffff" fill-opacity="1"><g transform="translate(118.338474, 20.373627)"><g><path d="M 2.953125 -12.609375 L 4.03125 -12.609375 L 4.03125 -2.6875 L 9.390625 -2.6875 L 9.390625 -1.609375 L 4.03125 -1.609375 L 4.03125 -1.078125 L 9.390625 -1.078125 L 9.390625 0 L 2.953125 0 Z M 1.34375 -12.609375 L 2.421875 -12.609375 L 2.421875 0 L 1.34375 0 Z M 1.34375 -12.609375 "/></g></g></g><g fill="#ffffff" fill-opacity="1"><g transform="translate(11.391716, 37.82612)"><g><path d="M 7.6875 -10.71875 C 7.414062 -11.007812 7.050781 -11.257812 6.59375 -11.46875 C 6.144531 -11.6875 5.644531 -11.796875 5.09375 -11.796875 C 4.675781 -11.796875 4.28125 -11.722656 3.90625 -11.578125 C 3.539062 -11.441406 3.210938 -11.25 2.921875 -11 C 2.640625 -10.757812 2.414062 -10.46875 2.25 -10.125 C 2.082031 -9.78125 2 -9.398438 2 -8.984375 C 2 -8.691406 2.039062 -8.398438 2.125 -8.109375 C 2.207031 -7.828125 2.328125 -7.566406 2.484375 -7.328125 C 2.640625 -7.097656 2.832031 -6.890625 3.0625 -6.703125 C 3.289062 -6.523438 3.546875 -6.398438 3.828125 -6.328125 L 6.0625 -5.75 C 6.289062 -5.6875 6.492188 -5.578125 6.671875 -5.421875 C 6.859375 -5.273438 7.015625 -5.101562 7.140625 -4.90625 C 7.265625 -4.707031 7.359375 -4.492188 7.421875 -4.265625 C 7.492188 -4.046875 7.53125 -3.820312 7.53125 -3.59375 C 7.53125 -3.25 7.453125 -2.9375 7.296875 -2.65625 C 7.140625 -2.382812 6.925781 -2.15625 6.65625 -1.96875 C 6.394531 -1.78125 6.085938 -1.628906 5.734375 -1.515625 C 5.390625 -1.410156 5.023438 -1.359375 4.640625 -1.359375 C 4.097656 -1.359375 3.582031 -1.457031 3.09375 -1.65625 C 2.613281 -1.851562 2.234375 -2.109375 1.953125 -2.421875 L 2.828125 -3.0625 C 2.992188 -2.90625 3.238281 -2.757812 3.5625 -2.625 C 3.894531 -2.5 4.253906 -2.4375 4.640625 -2.4375 C 5.171875 -2.4375 5.601562 -2.546875 5.9375 -2.765625 C 6.28125 -2.984375 6.453125 -3.285156 6.453125 -3.671875 C 6.453125 -3.910156 6.382812 -4.128906 6.25 -4.328125 C 6.113281 -4.535156 5.925781 -4.664062 5.6875 -4.71875 L 3.453125 -5.375 C 3.046875 -5.46875 2.6875 -5.628906 2.375 -5.859375 C 2.070312 -6.097656 1.8125 -6.378906 1.59375 -6.703125 C 1.375 -7.023438 1.207031 -7.378906 1.09375 -7.765625 C 0.988281 -8.148438 0.9375 -8.535156 0.9375 -8.921875 C 0.9375 -9.523438 1.050781 -10.066406 1.28125 -10.546875 C 1.507812 -11.023438 1.8125 -11.4375 2.1875 -11.78125 C 2.570312 -12.132812 3.019531 -12.398438 3.53125 -12.578125 C 4.039062 -12.765625 4.566406 -12.859375 5.109375 -12.859375 C 5.828125 -12.859375 6.484375 -12.722656 7.078125 -12.453125 C 7.679688 -12.179688 8.171875 -11.835938 8.546875 -11.421875 Z M 6.46875 -9.671875 C 6.351562 -9.804688 6.171875 -9.925781 5.921875 -10.03125 C 5.671875 -10.132812 5.394531 -10.1875 5.09375 -10.1875 C 4.65625 -10.1875 4.296875 -10.066406 4.015625 -9.828125 C 3.742188 -9.597656 3.609375 -9.289062 3.609375 -8.90625 C 3.609375 -8.664062 3.675781 -8.441406 3.8125 -8.234375 C 3.957031 -8.035156 4.148438 -7.914062 4.390625 -7.875 L 6.640625 -7.234375 C 7.046875 -7.128906 7.398438 -6.957031 7.703125 -6.71875 C 8.015625 -6.488281 8.273438 -6.210938 8.484375 -5.890625 C 8.703125 -5.566406 8.867188 -5.207031 8.984375 -4.8125 C 9.097656 -4.425781 9.15625 -4.039062 9.15625 -3.65625 C 9.15625 -3.0625 9.03125 -2.523438 8.78125 -2.046875 C 8.539062 -1.566406 8.21875 -1.15625 7.8125 -0.8125 C 7.40625 -0.46875 6.929688 -0.203125 6.390625 -0.015625 C 5.847656 0.160156 5.285156 0.25 4.703125 0.25 C 3.859375 0.25 3.082031 0.0976562 2.375 -0.203125 C 1.675781 -0.503906 1.117188 -0.898438 0.703125 -1.390625 L 1.578125 -2.046875 C 1.890625 -1.722656 2.316406 -1.4375 2.859375 -1.1875 C 3.410156 -0.945312 4.007812 -0.828125 4.65625 -0.828125 C 5.101562 -0.828125 5.53125 -0.890625 5.9375 -1.015625 C 6.351562 -1.148438 6.71875 -1.335938 7.03125 -1.578125 C 7.351562 -1.816406 7.601562 -2.101562 7.78125 -2.4375 C 7.96875 -2.78125 8.0625 -3.160156 8.0625 -3.578125 C 8.0625 -4.171875 7.910156 -4.722656 7.609375 -5.234375 C 7.304688 -5.753906 6.859375 -6.097656 6.265625 -6.265625 L 4.03125 -6.859375 C 3.5625 -6.984375 3.195312 -7.253906 2.9375 -7.671875 C 2.6875 -8.085938 2.5625 -8.523438 2.5625 -8.984375 C 2.5625 -9.328125 2.628906 -9.640625 2.765625 -9.921875 C 2.910156 -10.203125 3.101562 -10.441406 3.34375 -10.640625 C 3.582031 -10.835938 3.859375 -10.988281 4.171875 -11.09375 C 4.484375 -11.195312 4.8125 -11.25 5.15625 -11.25 C 5.601562 -11.25 6.007812 -11.160156 6.375 -10.984375 C 6.75 -10.816406 7.054688 -10.613281 7.296875 -10.375 Z M 6.46875 -9.671875 "/></g></g></g><g fill="#ffffff" fill-opacity="1"><g transform="translate(21.823361, 37.82612)"><g><path d="M 10.953125 -10.484375 C 10.460938 -10.898438 9.910156 -11.222656 9.296875 -11.453125 C 8.691406 -11.691406 8.050781 -11.8125 7.375 -11.8125 C 6.601562 -11.8125 5.882812 -11.664062 5.21875 -11.375 C 4.550781 -11.09375 3.96875 -10.703125 3.46875 -10.203125 C 2.976562 -9.703125 2.585938 -9.113281 2.296875 -8.4375 C 2.015625 -7.769531 1.875 -7.054688 1.875 -6.296875 C 1.875 -5.535156 2.015625 -4.820312 2.296875 -4.15625 C 2.585938 -3.488281 2.976562 -2.90625 3.46875 -2.40625 C 3.96875 -1.90625 4.550781 -1.515625 5.21875 -1.234375 C 5.882812 -0.953125 6.601562 -0.8125 7.375 -0.8125 C 8.144531 -0.8125 8.863281 -0.957031 9.53125 -1.25 C 10.195312 -1.539062 10.78125 -1.9375 11.28125 -2.4375 L 12.171875 -1.8125 C 11.554688 -1.164062 10.835938 -0.65625 10.015625 -0.28125 C 9.203125 0.0820312 8.320312 0.265625 7.375 0.265625 C 6.46875 0.265625 5.613281 0.09375 4.8125 -0.25 C 4.007812 -0.59375 3.3125 -1.0625 2.71875 -1.65625 C 2.132812 -2.25 1.671875 -2.941406 1.328125 -3.734375 C 0.984375 -4.535156 0.8125 -5.390625 0.8125 -6.296875 C 0.8125 -7.203125 0.984375 -8.050781 1.328125 -8.84375 C 1.671875 -9.644531 2.132812 -10.34375 2.71875 -10.9375 C 3.3125 -11.539062 4.007812 -12.015625 4.8125 -12.359375 C 5.613281 -12.703125 6.46875 -12.875 7.375 -12.875 C 8.226562 -12.875 9.023438 -12.722656 9.765625 -12.421875 C 10.503906 -12.128906 11.171875 -11.71875 11.765625 -11.1875 Z M 9.640625 -9.46875 C 9.316406 -9.707031 8.960938 -9.890625 8.578125 -10.015625 C 8.191406 -10.140625 7.785156 -10.203125 7.359375 -10.203125 C 6.816406 -10.203125 6.3125 -10.097656 5.84375 -9.890625 C 5.375 -9.691406 4.960938 -9.410156 4.609375 -9.046875 C 4.253906 -8.691406 3.972656 -8.28125 3.765625 -7.8125 C 3.566406 -7.34375 3.46875 -6.835938 3.46875 -6.296875 C 3.46875 -5.765625 3.566406 -5.257812 3.765625 -4.78125 C 3.972656 -4.3125 4.253906 -3.898438 4.609375 -3.546875 C 4.960938 -3.203125 5.375 -2.925781 5.84375 -2.71875 C 6.3125 -2.519531 6.816406 -2.421875 7.359375 -2.421875 C 7.859375 -2.421875 8.320312 -2.503906 8.75 -2.671875 C 9.1875 -2.835938 9.578125 -3.070312 9.921875 -3.375 L 10.84375 -2.734375 C 10.382812 -2.304688 9.859375 -1.96875 9.265625 -1.71875 C 8.679688 -1.46875 8.050781 -1.34375 7.375 -1.34375 C 6.6875 -1.34375 6.039062 -1.472656 5.4375 -1.734375 C 4.84375 -1.992188 4.320312 -2.347656 3.875 -2.796875 C 3.425781 -3.242188 3.070312 -3.769531 2.8125 -4.375 C 2.550781 -4.976562 2.421875 -5.617188 2.421875 -6.296875 C 2.421875 -6.972656 2.550781 -7.613281 2.8125 -8.21875 C 3.070312 -8.832031 3.425781 -9.363281 3.875 -9.8125 C 4.320312 -10.257812 4.84375 -10.613281 5.4375 -10.875 C 6.039062 -11.132812 6.6875 -11.265625 7.375 -11.265625 C 7.96875 -11.265625 8.53125 -11.160156 9.0625 -10.953125 C 9.59375 -10.753906 10.070312 -10.484375 10.5 -10.140625 Z M 9.640625 -9.46875 "/></g></g></g><g fill="#ffffff" fill-opacity="1"><g transform="translate(34.241122, 37.82612)"><g><path d="M 9.65625 -5.375 L 4.03125 -5.375 L 4.03125 0 L 2.953125 0 L 2.953125 -12.609375 L 4.03125 -12.609375 L 4.03125 -8.046875 L 9.65625 -8.046875 L 9.65625 -12.609375 L 10.734375 -12.609375 L 10.734375 0 L 9.65625 0 Z M 1.34375 -12.609375 L 2.421875 -12.609375 L 2.421875 0 L 1.34375 0 Z M 11.265625 -12.609375 L 12.34375 -12.609375 L 12.34375 0 L 11.265625 0 Z M 4.03125 -6.4375 L 9.65625 -6.4375 L 9.65625 -6.984375 L 4.03125 -6.984375 Z M 4.03125 -6.4375 "/></g></g></g><g fill="#ffffff" fill-opacity="1"><g transform="translate(47.982965, 37.82612)"><g><path d="M 0.8125 -6.296875 C 0.8125 -7.203125 0.984375 -8.050781 1.328125 -8.84375 C 1.671875 -9.644531 2.132812 -10.34375 2.71875 -10.9375 C 3.3125 -11.539062 4.007812 -12.015625 4.8125 -12.359375 C 5.613281 -12.703125 6.46875 -12.875 7.375 -12.875 C 8.28125 -12.875 9.128906 -12.703125 9.921875 -12.359375 C 10.722656 -12.015625 11.421875 -11.539062 12.015625 -10.9375 C 12.617188 -10.34375 13.09375 -9.644531 13.4375 -8.84375 C 13.78125 -8.050781 13.953125 -7.203125 13.953125 -6.296875 C 13.953125 -5.390625 13.78125 -4.535156 13.4375 -3.734375 C 13.09375 -2.941406 12.617188 -2.25 12.015625 -1.65625 C 11.421875 -1.0625 10.722656 -0.59375 9.921875 -0.25 C 9.128906 0.09375 8.28125 0.265625 7.375 0.265625 C 6.46875 0.265625 5.613281 0.09375 4.8125 -0.25 C 4.007812 -0.59375 3.3125 -1.0625 2.71875 -1.65625 C 2.132812 -2.25 1.671875 -2.941406 1.328125 -3.734375 C 0.984375 -4.535156 0.8125 -5.390625 0.8125 -6.296875 Z M 1.875 -6.296875 C 1.875 -5.535156 2.015625 -4.820312 2.296875 -4.15625 C 2.585938 -3.488281 2.976562 -2.90625 3.46875 -2.40625 C 3.96875 -1.90625 4.550781 -1.515625 5.21875 -1.234375 C 5.882812 -0.953125 6.601562 -0.8125 7.375 -0.8125 C 8.132812 -0.8125 8.847656 -0.953125 9.515625 -1.234375 C 10.179688 -1.515625 10.765625 -1.90625 11.265625 -2.40625 C 11.765625 -2.90625 12.15625 -3.488281 12.4375 -4.15625 C 12.726562 -4.820312 12.875 -5.535156 12.875 -6.296875 C 12.875 -7.054688 12.726562 -7.769531 12.4375 -8.4375 C 12.15625 -9.113281 11.765625 -9.703125 11.265625 -10.203125 C 10.765625 -10.703125 10.179688 -11.09375 9.515625 -11.375 C 8.847656 -11.664062 8.132812 -11.8125 7.375 -11.8125 C 6.601562 -11.8125 5.882812 -11.664062 5.21875 -11.375 C 4.550781 -11.09375 3.96875 -10.703125 3.46875 -10.203125 C 2.976562 -9.703125 2.585938 -9.113281 2.296875 -8.4375 C 2.015625 -7.769531 1.875 -7.054688 1.875 -6.296875 Z M 2.421875 -6.296875 C 2.421875 -6.972656 2.550781 -7.613281 2.8125 -8.21875 C 3.070312 -8.832031 3.425781 -9.363281 3.875 -9.8125 C 4.320312 -10.257812 4.84375 -10.613281 5.4375 -10.875 C 6.039062 -11.132812 6.6875 -11.265625 7.375 -11.265625 C 8.050781 -11.265625 8.691406 -11.132812 9.296875 -10.875 C 9.910156 -10.613281 10.441406 -10.257812 10.890625 -9.8125 C 11.335938 -9.363281 11.691406 -8.832031 11.953125 -8.21875 C 12.210938 -7.613281 12.34375 -6.972656 12.34375 -6.296875 C 12.34375 -5.617188 12.210938 -4.976562 11.953125 -4.375 C 11.691406 -3.769531 11.335938 -3.242188 10.890625 -2.796875 C 10.441406 -2.347656 9.910156 -1.992188 9.296875 -1.734375 C 8.691406 -1.472656 8.050781 -1.34375 7.375 -1.34375 C 6.6875 -1.34375 6.039062 -1.472656 5.4375 -1.734375 C 4.84375 -1.992188 4.320312 -2.347656 3.875 -2.796875 C 3.425781 -3.242188 3.070312 -3.769531 2.8125 -4.375 C 2.550781 -4.976562 2.421875 -5.617188 2.421875 -6.296875 Z M 3.46875 -6.296875 C 3.46875 -5.765625 3.566406 -5.257812 3.765625 -4.78125 C 3.972656 -4.3125 4.253906 -3.898438 4.609375 -3.546875 C 4.960938 -3.203125 5.375 -2.925781 5.84375 -2.71875 C 6.3125 -2.519531 6.816406 -2.421875 7.359375 -2.421875 C 7.890625 -2.421875 8.390625 -2.519531 8.859375 -2.71875 C 9.335938 -2.925781 9.753906 -3.203125 10.109375 -3.546875 C 10.460938 -3.898438 10.738281 -4.3125 10.9375 -4.78125 C 11.144531 -5.257812 11.25 -5.765625 11.25 -6.296875 C 11.25 -6.835938 11.144531 -7.34375 10.9375 -7.8125 C 10.738281 -8.28125 10.460938 -8.691406 10.109375 -9.046875 C 9.753906 -9.410156 9.335938 -9.691406 8.859375 -9.890625 C 8.390625 -10.097656 7.890625 -10.203125 7.359375 -10.203125 C 6.816406 -10.203125 6.3125 -10.097656 5.84375 -9.890625 C 5.375 -9.691406 4.960938 -9.410156 4.609375 -9.046875 C 4.253906 -8.691406 3.972656 -8.28125 3.765625 -7.8125 C 3.566406 -7.34375 3.46875 -6.835938 3.46875 -6.296875 Z M 3.46875 -6.296875 "/></g></g></g><g fill="#ffffff" fill-opacity="1"><g transform="translate(62.83417, 37.82612)"><g><path d="M 0.8125 -6.296875 C 0.8125 -7.203125 0.984375 -8.050781 1.328125 -8.84375 C 1.671875 -9.644531 2.132812 -10.34375 2.71875 -10.9375 C 3.3125 -11.539062 4.007812 -12.015625 4.8125 -12.359375 C 5.613281 -12.703125 6.46875 -12.875 7.375 -12.875 C 8.28125 -12.875 9.128906 -12.703125 9.921875 -12.359375 C 10.722656 -12.015625 11.421875 -11.539062 12.015625 -10.9375 C 12.617188 -10.34375 13.09375 -9.644531 13.4375 -8.84375 C 13.78125 -8.050781 13.953125 -7.203125 13.953125 -6.296875 C 13.953125 -5.390625 13.78125 -4.535156 13.4375 -3.734375 C 13.09375 -2.941406 12.617188 -2.25 12.015625 -1.65625 C 11.421875 -1.0625 10.722656 -0.59375 9.921875 -0.25 C 9.128906 0.09375 8.28125 0.265625 7.375 0.265625 C 6.46875 0.265625 5.613281 0.09375 4.8125 -0.25 C 4.007812 -0.59375 3.3125 -1.0625 2.71875 -1.65625 C 2.132812 -2.25 1.671875 -2.941406 1.328125 -3.734375 C 0.984375 -4.535156 0.8125 -5.390625 0.8125 -6.296875 Z M 1.875 -6.296875 C 1.875 -5.535156 2.015625 -4.820312 2.296875 -4.15625 C 2.585938 -3.488281 2.976562 -2.90625 3.46875 -2.40625 C 3.96875 -1.90625 4.550781 -1.515625 5.21875 -1.234375 C 5.882812 -0.953125 6.601562 -0.8125 7.375 -0.8125 C 8.132812 -0.8125 8.847656 -0.953125 9.515625 -1.234375 C 10.179688 -1.515625 10.765625 -1.90625 11.265625 -2.40625 C 11.765625 -2.90625 12.15625 -3.488281 12.4375 -4.15625 C 12.726562 -4.820312 12.875 -5.535156 12.875 -6.296875 C 12.875 -7.054688 12.726562 -7.769531 12.4375 -8.4375 C 12.15625 -9.113281 11.765625 -9.703125 11.265625 -10.203125 C 10.765625 -10.703125 10.179688 -11.09375 9.515625 -11.375 C 8.847656 -11.664062 8.132812 -11.8125 7.375 -11.8125 C 6.601562 -11.8125 5.882812 -11.664062 5.21875 -11.375 C 4.550781 -11.09375 3.96875 -10.703125 3.46875 -10.203125 C 2.976562 -9.703125 2.585938 -9.113281 2.296875 -8.4375 C 2.015625 -7.769531 1.875 -7.054688 1.875 -6.296875 Z M 2.421875 -6.296875 C 2.421875 -6.972656 2.550781 -7.613281 2.8125 -8.21875 C 3.070312 -8.832031 3.425781 -9.363281 3.875 -9.8125 C 4.320312 -10.257812 4.84375 -10.613281 5.4375 -10.875 C 6.039062 -11.132812 6.6875 -11.265625 7.375 -11.265625 C 8.050781 -11.265625 8.691406 -11.132812 9.296875 -10.875 C 9.910156 -10.613281 10.441406 -10.257812 10.890625 -9.8125 C 11.335938 -9.363281 11.691406 -8.832031 11.953125 -8.21875 C 12.210938 -7.613281 12.34375 -6.972656 12.34375 -6.296875 C 12.34375 -5.617188 12.210938 -4.976562 11.953125 -4.375 C 11.691406 -3.769531 11.335938 -3.242188 10.890625 -2.796875 C 10.441406 -2.347656 9.910156 -1.992188 9.296875 -1.734375 C 8.691406 -1.472656 8.050781 -1.34375 7.375 -1.34375 C 6.6875 -1.34375 6.039062 -1.472656 5.4375 -1.734375 C 4.84375 -1.992188 4.320312 -2.347656 3.875 -2.796875 C 3.425781 -3.242188 3.070312 -3.769531 2.8125 -4.375 C 2.550781 -4.976562 2.421875 -5.617188 2.421875 -6.296875 Z M 3.46875 -6.296875 C 3.46875 -5.765625 3.566406 -5.257812 3.765625 -4.78125 C 3.972656 -4.3125 4.253906 -3.898438 4.609375 -3.546875 C 4.960938 -3.203125 5.375 -2.925781 5.84375 -2.71875 C 6.3125 -2.519531 6.816406 -2.421875 7.359375 -2.421875 C 7.890625 -2.421875 8.390625 -2.519531 8.859375 -2.71875 C 9.335938 -2.925781 9.753906 -3.203125 10.109375 -3.546875 C 10.460938 -3.898438 10.738281 -4.3125 10.9375 -4.78125 C 11.144531 -5.257812 11.25 -5.765625 11.25 -6.296875 C 11.25 -6.835938 11.144531 -7.34375 10.9375 -7.8125 C 10.738281 -8.28125 10.460938 -8.691406 10.109375 -9.046875 C 9.753906 -9.410156 9.335938 -9.691406 8.859375 -9.890625 C 8.390625 -10.097656 7.890625 -10.203125 7.359375 -10.203125 C 6.816406 -10.203125 6.3125 -10.097656 5.84375 -9.890625 C 5.375 -9.691406 4.960938 -9.410156 4.609375 -9.046875 C 4.253906 -8.691406 3.972656 -8.28125 3.765625 -7.8125 C 3.566406 -7.34375 3.46875 -6.835938 3.46875 -6.296875 Z M 3.46875 -6.296875 "/></g></g></g><g fill="#ffffff" fill-opacity="1"><g transform="translate(77.685376, 37.82612)"><g><path d="M 2.953125 -12.609375 L 4.03125 -12.609375 L 4.03125 -2.6875 L 9.390625 -2.6875 L 9.390625 -1.609375 L 4.03125 -1.609375 L 4.03125 -1.078125 L 9.390625 -1.078125 L 9.390625 0 L 2.953125 0 Z M 1.34375 -12.609375 L 2.421875 -12.609375 L 2.421875 0 L 1.34375 0 Z M 1.34375 -12.609375 "/></g></g></g><g fill="#ffffff" fill-opacity="1"><g transform="translate(87.454981, 37.82612)"><g/></g></g><g fill="#ffffff" fill-opacity="1"><g transform="translate(92.912398, 37.82612)"><g><path d="M 2.953125 -12.609375 L 4.03125 -12.609375 L 4.03125 -2.6875 L 9.390625 -2.6875 L 9.390625 -1.609375 L 4.03125 -1.609375 L 4.03125 -1.078125 L 9.390625 -1.078125 L 9.390625 0 L 2.953125 0 Z M 1.34375 -12.609375 L 2.421875 -12.609375 L 2.421875 0 L 1.34375 0 Z M 1.34375 -12.609375 "/></g></g></g><g fill="#ffffff" fill-opacity="1"><g transform="translate(102.681998, 37.82612)"><g><path d="M 1.34375 -11 L 9.921875 -11 L 9.921875 -9.921875 L 4.03125 -9.921875 L 4.03125 -7.78125 L 9.65625 -7.78125 L 9.65625 -6.703125 L 4.03125 -6.703125 L 4.03125 -6.171875 L 9.65625 -6.171875 L 9.65625 -5.09375 L 4.03125 -5.09375 L 4.03125 -2.6875 L 10.203125 -2.6875 L 10.203125 -1.609375 L 4.03125 -1.609375 L 4.03125 -1.078125 L 10.203125 -1.078125 L 10.203125 0 L 2.953125 0 L 2.953125 -9.921875 L 2.421875 -9.921875 L 2.421875 0 L 1.34375 0 Z M 1.34375 -12.609375 L 9.921875 -12.609375 L 9.921875 -11.546875 L 1.34375 -11.546875 Z M 1.34375 -12.609375 "/></g></g></g><g fill="#ffffff" fill-opacity="1"><g transform="translate(114.115653, 37.82612)"><g><path d="M 6.203125 -12.609375 L 7.625 -12.609375 L 12.046875 0 L 10.890625 0 L 6.90625 -11.375 L 6.625 -10.53125 L 10.3125 0 L 9.15625 0 L 8.234375 -2.6875 L 3.859375 -2.6875 L 2.9375 0 L 1.8125 0 Z M 4.484375 -12.609375 L 5.640625 -12.609375 L 1.21875 0 L 0.09375 0 Z M 4.8125 -5.375 L 7.296875 -5.375 L 6.0625 -8.96875 Z M 4.234375 -3.75 L 7.859375 -3.75 L 7.671875 -4.296875 L 4.4375 -4.296875 Z M 4.234375 -3.75 "/></g></g></g><g fill="#ffffff" fill-opacity="1"><g transform="translate(126.354489, 37.82612)"><g><path d="M 2.953125 -9.921875 L 2.421875 -9.921875 L 2.421875 0 L 1.34375 0 L 1.34375 -11 L 6.390625 -11 C 7.066406 -11 7.707031 -10.875 8.3125 -10.625 C 8.925781 -10.382812 9.457031 -10.050781 9.90625 -9.625 C 10.351562 -9.207031 10.707031 -8.710938 10.96875 -8.140625 C 11.226562 -7.566406 11.359375 -6.953125 11.359375 -6.296875 C 11.359375 -5.640625 11.226562 -5.023438 10.96875 -4.453125 C 10.707031 -3.878906 10.351562 -3.382812 9.90625 -2.96875 C 9.457031 -2.550781 8.925781 -2.21875 8.3125 -1.96875 C 7.707031 -1.726562 7.066406 -1.609375 6.390625 -1.609375 L 4.03125 -1.609375 L 4.03125 -1.078125 L 6.390625 -1.078125 C 7.148438 -1.078125 7.863281 -1.207031 8.53125 -1.46875 C 9.195312 -1.738281 9.78125 -2.109375 10.28125 -2.578125 C 10.78125 -3.054688 11.171875 -3.609375 11.453125 -4.234375 C 11.742188 -4.867188 11.890625 -5.554688 11.890625 -6.296875 C 11.890625 -7.023438 11.742188 -7.707031 11.453125 -8.34375 C 11.171875 -8.976562 10.78125 -9.535156 10.28125 -10.015625 C 9.78125 -10.492188 9.195312 -10.867188 8.53125 -11.140625 C 7.863281 -11.410156 7.148438 -11.546875 6.390625 -11.546875 L 1.34375 -11.546875 L 1.34375 -12.609375 L 6.390625 -12.609375 C 7.296875 -12.609375 8.144531 -12.441406 8.9375 -12.109375 C 9.738281 -11.785156 10.4375 -11.335938 11.03125 -10.765625 C 11.632812 -10.203125 12.109375 -9.535156 12.453125 -8.765625 C 12.796875 -8.003906 12.96875 -7.179688 12.96875 -6.296875 C 12.96875 -5.410156 12.796875 -4.585938 12.453125 -3.828125 C 12.109375 -3.066406 11.632812 -2.398438 11.03125 -1.828125 C 10.4375 -1.265625 9.738281 -0.816406 8.9375 -0.484375 C 8.144531 -0.160156 7.296875 0 6.390625 0 L 2.953125 0 Z M 4.03125 -9.921875 L 4.03125 -2.6875 L 6.375 -2.6875 C 6.90625 -2.6875 7.40625 -2.773438 7.875 -2.953125 C 8.351562 -3.140625 8.769531 -3.394531 9.125 -3.71875 C 9.476562 -4.039062 9.753906 -4.421875 9.953125 -4.859375 C 10.160156 -5.304688 10.265625 -5.785156 10.265625 -6.296875 C 10.265625 -6.804688 10.160156 -7.28125 9.953125 -7.71875 C 9.753906 -8.164062 9.476562 -8.550781 9.125 -8.875 C 8.769531 -9.207031 8.351562 -9.460938 7.875 -9.640625 C 7.40625 -9.828125 6.90625 -9.921875 6.375 -9.921875 Z M 4.03125 -9.921875 "/></g></g></g><g fill="#ffffff" fill-opacity="1"><g transform="translate(140.096334, 37.82612)"><g><path d="M 1.34375 -11 L 9.921875 -11 L 9.921875 -9.921875 L 4.03125 -9.921875 L 4.03125 -7.78125 L 9.65625 -7.78125 L 9.65625 -6.703125 L 4.03125 -6.703125 L 4.03125 -6.171875 L 9.65625 -6.171875 L 9.65625 -5.09375 L 4.03125 -5.09375 L 4.03125 -2.6875 L 10.203125 -2.6875 L 10.203125 -1.609375 L 4.03125 -1.609375 L 4.03125 -1.078125 L 10.203125 -1.078125 L 10.203125 0 L 2.953125 0 L 2.953125 -9.921875 L 2.421875 -9.921875 L 2.421875 0 L 1.34375 0 Z M 1.34375 -12.609375 L 9.921875 -12.609375 L 9.921875 -11.546875 L 1.34375 -11.546875 Z M 1.34375 -12.609375 "/></g></g></g><g fill="#ffffff" fill-opacity="1"><g transform="translate(151.52999, 37.82612)"><g><path d="M 9.71875 0 L 7.078125 -4.828125 C 7.046875 -4.816406 7.007812 -4.8125 6.96875 -4.8125 C 6.925781 -4.820312 6.890625 -4.828125 6.859375 -4.828125 L 6.4375 -4.828125 L 9.078125 0 L 7.859375 0 L 5.21875 -4.828125 L 4.03125 -4.828125 L 4.03125 0 L 2.953125 0 L 2.953125 -9.921875 L 2.421875 -9.921875 L 2.421875 0 L 1.34375 0 L 1.34375 -11 L 6.859375 -11 C 7.171875 -11 7.460938 -10.9375 7.734375 -10.8125 C 8.015625 -10.695312 8.257812 -10.535156 8.46875 -10.328125 C 8.675781 -10.117188 8.835938 -9.878906 8.953125 -9.609375 C 9.078125 -9.335938 9.140625 -9.039062 9.140625 -8.71875 C 9.140625 -8.394531 9.078125 -8.09375 8.953125 -7.8125 C 8.835938 -7.539062 8.675781 -7.300781 8.46875 -7.09375 C 8.257812 -6.894531 8.015625 -6.734375 7.734375 -6.609375 C 7.460938 -6.492188 7.171875 -6.4375 6.859375 -6.4375 L 4.03125 -6.4375 L 4.03125 -5.90625 L 6.859375 -5.90625 C 7.242188 -5.90625 7.609375 -5.976562 7.953125 -6.125 C 8.296875 -6.269531 8.59375 -6.46875 8.84375 -6.71875 C 9.101562 -6.976562 9.304688 -7.273438 9.453125 -7.609375 C 9.597656 -7.953125 9.671875 -8.320312 9.671875 -8.71875 C 9.671875 -9.101562 9.597656 -9.46875 9.453125 -9.8125 C 9.304688 -10.15625 9.101562 -10.453125 8.84375 -10.703125 C 8.59375 -10.960938 8.296875 -11.164062 7.953125 -11.3125 C 7.609375 -11.46875 7.242188 -11.546875 6.859375 -11.546875 L 1.34375 -11.546875 L 1.34375 -12.609375 L 6.859375 -12.609375 C 7.390625 -12.609375 7.890625 -12.503906 8.359375 -12.296875 C 8.835938 -12.097656 9.253906 -11.820312 9.609375 -11.46875 C 9.960938 -11.113281 10.238281 -10.695312 10.4375 -10.21875 C 10.644531 -9.75 10.75 -9.25 10.75 -8.71875 C 10.75 -8.300781 10.6875 -7.898438 10.5625 -7.515625 C 10.4375 -7.128906 10.253906 -6.773438 10.015625 -6.453125 C 9.785156 -6.128906 9.515625 -5.847656 9.203125 -5.609375 C 8.890625 -5.378906 8.546875 -5.195312 8.171875 -5.0625 L 10.9375 0 Z M 4.03125 -9.921875 L 4.03125 -7.515625 L 6.859375 -7.515625 C 7.203125 -7.515625 7.488281 -7.625 7.71875 -7.84375 C 7.945312 -8.070312 8.0625 -8.363281 8.0625 -8.71875 C 8.0625 -9.0625 7.945312 -9.347656 7.71875 -9.578125 C 7.488281 -9.804688 7.203125 -9.921875 6.859375 -9.921875 Z M 4.03125 -9.921875 "/></g></g></g><g fill="#ffffff" fill-opacity="1"><g transform="translate(163.28572, 37.82612)"><g><path d="M 7.6875 -10.71875 C 7.414062 -11.007812 7.050781 -11.257812 6.59375 -11.46875 C 6.144531 -11.6875 5.644531 -11.796875 5.09375 -11.796875 C 4.675781 -11.796875 4.28125 -11.722656 3.90625 -11.578125 C 3.539062 -11.441406 3.210938 -11.25 2.921875 -11 C 2.640625 -10.757812 2.414062 -10.46875 2.25 -10.125 C 2.082031 -9.78125 2 -9.398438 2 -8.984375 C 2 -8.691406 2.039062 -8.398438 2.125 -8.109375 C 2.207031 -7.828125 2.328125 -7.566406 2.484375 -7.328125 C 2.640625 -7.097656 2.832031 -6.890625 3.0625 -6.703125 C 3.289062 -6.523438 3.546875 -6.398438 3.828125 -6.328125 L 6.0625 -5.75 C 6.289062 -5.6875 6.492188 -5.578125 6.671875 -5.421875 C 6.859375 -5.273438 7.015625 -5.101562 7.140625 -4.90625 C 7.265625 -4.707031 7.359375 -4.492188 7.421875 -4.265625 C 7.492188 -4.046875 7.53125 -3.820312 7.53125 -3.59375 C 7.53125 -3.25 7.453125 -2.9375 7.296875 -2.65625 C 7.140625 -2.382812 6.925781 -2.15625 6.65625 -1.96875 C 6.394531 -1.78125 6.085938 -1.628906 5.734375 -1.515625 C 5.390625 -1.410156 5.023438 -1.359375 4.640625 -1.359375 C 4.097656 -1.359375 3.582031 -1.457031 3.09375 -1.65625 C 2.613281 -1.851562 2.234375 -2.109375 1.953125 -2.421875 L 2.828125 -3.0625 C 2.992188 -2.90625 3.238281 -2.757812 3.5625 -2.625 C 3.894531 -2.5 4.253906 -2.4375 4.640625 -2.4375 C 5.171875 -2.4375 5.601562 -2.546875 5.9375 -2.765625 C 6.28125 -2.984375 6.453125 -3.285156 6.453125 -3.671875 C 6.453125 -3.910156 6.382812 -4.128906 6.25 -4.328125 C 6.113281 -4.535156 5.925781 -4.664062 5.6875 -4.71875 L 3.453125 -5.375 C 3.046875 -5.46875 2.6875 -5.628906 2.375 -5.859375 C 2.070312 -6.097656 1.8125 -6.378906 1.59375 -6.703125 C 1.375 -7.023438 1.207031 -7.378906 1.09375 -7.765625 C 0.988281 -8.148438 0.9375 -8.535156 0.9375 -8.921875 C 0.9375 -9.523438 1.050781 -10.066406 1.28125 -10.546875 C 1.507812 -11.023438 1.8125 -11.4375 2.1875 -11.78125 C 2.570312 -12.132812 3.019531 -12.398438 3.53125 -12.578125 C 4.039062 -12.765625 4.566406 -12.859375 5.109375 -12.859375 C 5.828125 -12.859375 6.484375 -12.722656 7.078125 -12.453125 C 7.679688 -12.179688 8.171875 -11.835938 8.546875 -11.421875 Z M 6.46875 -9.671875 C 6.351562 -9.804688 6.171875 -9.925781 5.921875 -10.03125 C 5.671875 -10.132812 5.394531 -10.1875 5.09375 -10.1875 C 4.65625 -10.1875 4.296875 -10.066406 4.015625 -9.828125 C 3.742188 -9.597656 3.609375 -9.289062 3.609375 -8.90625 C 3.609375 -8.664062 3.675781 -8.441406 3.8125 -8.234375 C 3.957031 -8.035156 4.148438 -7.914062 4.390625 -7.875 L 6.640625 -7.234375 C 7.046875 -7.128906 7.398438 -6.957031 7.703125 -6.71875 C 8.015625 -6.488281 8.273438 -6.210938 8.484375 -5.890625 C 8.703125 -5.566406 8.867188 -5.207031 8.984375 -4.8125 C 9.097656 -4.425781 9.15625 -4.039062 9.15625 -3.65625 C 9.15625 -3.0625 9.03125 -2.523438 8.78125 -2.046875 C 8.539062 -1.566406 8.21875 -1.15625 7.8125 -0.8125 C 7.40625 -0.46875 6.929688 -0.203125 6.390625 -0.015625 C 5.847656 0.160156 5.285156 0.25 4.703125 0.25 C 3.859375 0.25 3.082031 0.0976562 2.375 -0.203125 C 1.675781 -0.503906 1.117188 -0.898438 0.703125 -1.390625 L 1.578125 -2.046875 C 1.890625 -1.722656 2.316406 -1.4375 2.859375 -1.1875 C 3.410156 -0.945312 4.007812 -0.828125 4.65625 -0.828125 C 5.101562 -0.828125 5.53125 -0.890625 5.9375 -1.015625 C 6.351562 -1.148438 6.71875 -1.335938 7.03125 -1.578125 C 7.351562 -1.816406 7.601562 -2.101562 7.78125 -2.4375 C 7.96875 -2.78125 8.0625 -3.160156 8.0625 -3.578125 C 8.0625 -4.171875 7.910156 -4.722656 7.609375 -5.234375 C 7.304688 -5.753906 6.859375 -6.097656 6.265625 -6.265625 L 4.03125 -6.859375 C 3.5625 -6.984375 3.195312 -7.253906 2.9375 -7.671875 C 2.6875 -8.085938 2.5625 -8.523438 2.5625 -8.984375 C 2.5625 -9.328125 2.628906 -9.640625 2.765625 -9.921875 C 2.910156 -10.203125 3.101562 -10.441406 3.34375 -10.640625 C 3.582031 -10.835938 3.859375 -10.988281 4.171875 -11.09375 C 4.484375 -11.195312 4.8125 -11.25 5.15625 -11.25 C 5.601562 -11.25 6.007812 -11.160156 6.375 -10.984375 C 6.75 -10.816406 7.054688 -10.613281 7.296875 -10.375 Z M 6.46875 -9.671875 "/></g></g></g><g fill="#ffffff" fill-opacity="1"><g transform="translate(173.717367, 37.82612)"><g><path d="M 0.734375 -7.515625 L 2.0625 -12.609375 L 3.171875 -12.609375 L 1.84375 -7.515625 Z M 2.390625 -7.515625 L 3.71875 -12.609375 L 4.828125 -12.609375 L 3.5 -7.515625 Z M 2.390625 -7.515625 "/></g></g></g><g fill="#f8f8f8" fill-opacity="1"><g transform="translate(11.391716, 73.470286)"><g><path d="M 11.453125 -27.390625 C 12.898438 -27.390625 14.070312 -27.253906 14.96875 -26.984375 C 15.863281 -26.722656 16.742188 -26.351562 17.609375 -25.875 C 17.878906 -25.71875 18.125 -25.585938 18.34375 -25.484375 C 18.5625 -25.390625 18.742188 -25.34375 18.890625 -25.34375 C 19.117188 -25.34375 19.296875 -25.472656 19.421875 -25.734375 C 19.546875 -26.003906 19.648438 -26.429688 19.734375 -27.015625 L 20.59375 -27.015625 C 20.46875 -25.191406 20.40625 -22.101562 20.40625 -17.75 L 19.53125 -17.75 C 19.4375 -19.195312 19.109375 -20.578125 18.546875 -21.890625 C 17.992188 -23.203125 17.234375 -24.273438 16.265625 -25.109375 C 15.304688 -25.941406 14.195312 -26.359375 12.9375 -26.359375 C 11.769531 -26.359375 10.832031 -26.046875 10.125 -25.421875 C 9.414062 -24.804688 9.0625 -23.945312 9.0625 -22.84375 C 9.0625 -21.976562 9.25 -21.226562 9.625 -20.59375 C 10.007812 -19.96875 10.566406 -19.359375 11.296875 -18.765625 C 12.035156 -18.171875 13.238281 -17.289062 14.90625 -16.125 C 15.0625 -16.050781 15.207031 -15.960938 15.34375 -15.859375 C 15.476562 -15.753906 15.613281 -15.648438 15.75 -15.546875 C 17.132812 -14.585938 18.242188 -13.734375 19.078125 -12.984375 C 19.910156 -12.242188 20.585938 -11.378906 21.109375 -10.390625 C 21.628906 -9.410156 21.890625 -8.273438 21.890625 -6.984375 C 21.890625 -5.335938 21.425781 -3.953125 20.5 -2.828125 C 19.582031 -1.703125 18.335938 -0.859375 16.765625 -0.296875 C 15.203125 0.253906 13.472656 0.53125 11.578125 0.53125 C 10.023438 0.53125 8.738281 0.398438 7.71875 0.140625 C 6.695312 -0.109375 5.742188 -0.445312 4.859375 -0.875 C 4.296875 -1.226562 3.863281 -1.40625 3.5625 -1.40625 C 3.332031 -1.40625 3.15625 -1.269531 3.03125 -1 C 2.90625 -0.738281 2.804688 -0.316406 2.734375 0.265625 L 1.859375 0.265625 C 1.960938 -1.453125 2.015625 -5.117188 2.015625 -10.734375 L 2.890625 -10.734375 C 3.066406 -7.722656 3.695312 -5.28125 4.78125 -3.40625 C 5.863281 -1.539062 7.53125 -0.609375 9.78125 -0.609375 C 11.175781 -0.609375 12.285156 -0.9375 13.109375 -1.59375 C 13.929688 -2.25 14.34375 -3.160156 14.34375 -4.328125 C 14.34375 -5.765625 13.890625 -6.992188 12.984375 -8.015625 C 12.085938 -9.046875 10.691406 -10.191406 8.796875 -11.453125 C 7.285156 -12.460938 6.070312 -13.347656 5.15625 -14.109375 C 4.25 -14.867188 3.503906 -15.75 2.921875 -16.75 C 2.335938 -17.75 2.046875 -18.90625 2.046875 -20.21875 C 2.046875 -21.8125 2.472656 -23.144531 3.328125 -24.21875 C 4.191406 -25.289062 5.335938 -26.085938 6.765625 -26.609375 C 8.203125 -27.128906 9.765625 -27.390625 11.453125 -27.390625 Z M 11.453125 -27.390625 "/></g></g></g><g fill="#f8f8f8" fill-opacity="1"><g transform="translate(34.643722, 73.470286)"><g><path d="M 25.828125 -26.09375 C 25.046875 -25.914062 24.460938 -25.644531 24.078125 -25.28125 C 23.703125 -24.914062 23.453125 -24.351562 23.328125 -23.59375 C 23.203125 -22.832031 23.140625 -21.695312 23.140625 -20.1875 L 23.140625 -11.046875 C 23.140625 -7.398438 22.625 -4.71875 21.59375 -3 C 20.90625 -1.863281 19.894531 -0.988281 18.5625 -0.375 C 17.238281 0.226562 15.53125 0.53125 13.4375 0.53125 C 10.375 0.53125 7.992188 -0.078125 6.296875 -1.296875 C 5.054688 -2.179688 4.226562 -3.367188 3.8125 -4.859375 C 3.394531 -6.347656 3.1875 -8.367188 3.1875 -10.921875 L 3.1875 -22.84375 C 3.1875 -23.800781 3.125 -24.492188 3 -24.921875 C 2.875 -25.347656 2.625 -25.640625 2.25 -25.796875 C 1.882812 -25.953125 1.300781 -26.050781 0.5 -26.09375 L 0.5 -26.859375 C 1.9375 -26.785156 4.160156 -26.75 7.171875 -26.75 C 10.148438 -26.75 12.414062 -26.785156 13.96875 -26.859375 L 13.96875 -26.09375 C 13.050781 -26.050781 12.382812 -25.953125 11.96875 -25.796875 C 11.550781 -25.640625 11.265625 -25.347656 11.109375 -24.921875 C 10.960938 -24.492188 10.890625 -23.800781 10.890625 -22.84375 L 10.890625 -7.359375 C 10.890625 -4.929688 11.269531 -3.226562 12.03125 -2.25 C 12.789062 -1.28125 13.988281 -0.796875 15.625 -0.796875 C 18.03125 -0.796875 19.738281 -1.648438 20.75 -3.359375 C 21.757812 -5.066406 22.265625 -7.488281 22.265625 -10.625 L 22.265625 -19.421875 C 22.265625 -21.296875 22.1875 -22.644531 22.03125 -23.46875 C 21.882812 -24.289062 21.550781 -24.890625 21.03125 -25.265625 C 20.519531 -25.640625 19.65625 -25.914062 18.4375 -26.09375 L 18.4375 -26.859375 C 19.476562 -26.785156 20.894531 -26.75 22.6875 -26.75 C 24.03125 -26.75 25.078125 -26.785156 25.828125 -26.859375 Z M 25.828125 -26.09375 "/></g></g></g><g fill="#f8f8f8" fill-opacity="1"><g transform="translate(60.930246, 73.470286)"><g><path d="M 35.546875 -26.09375 C 34.734375 -26.050781 34.144531 -25.953125 33.78125 -25.796875 C 33.414062 -25.640625 33.171875 -25.347656 33.046875 -24.921875 C 32.921875 -24.492188 32.859375 -23.800781 32.859375 -22.84375 L 32.859375 -4.015625 C 32.859375 -3.054688 32.925781 -2.363281 33.0625 -1.9375 C 33.195312 -1.507812 33.441406 -1.21875 33.796875 -1.0625 C 34.148438 -0.90625 34.734375 -0.804688 35.546875 -0.765625 L 35.546875 0 C 34.003906 -0.0703125 31.765625 -0.109375 28.828125 -0.109375 C 25.765625 -0.109375 23.515625 -0.0703125 22.078125 0 L 22.078125 -0.765625 C 22.992188 -0.804688 23.660156 -0.90625 24.078125 -1.0625 C 24.492188 -1.21875 24.773438 -1.507812 24.921875 -1.9375 C 25.078125 -2.363281 25.15625 -3.054688 25.15625 -4.015625 L 25.15625 -23.40625 L 16.015625 -0.03125 L 15.40625 -0.03125 L 4.703125 -24.390625 L 4.703125 -7.4375 C 4.703125 -5.5625 4.773438 -4.210938 4.921875 -3.390625 C 5.078125 -2.566406 5.414062 -1.96875 5.9375 -1.59375 C 6.457031 -1.21875 7.320312 -0.941406 8.53125 -0.765625 L 8.53125 0 C 7.5 -0.0703125 6.082031 -0.109375 4.28125 -0.109375 C 2.945312 -0.109375 1.898438 -0.0703125 1.140625 0 L 1.140625 -0.765625 C 1.921875 -0.941406 2.5 -1.210938 2.875 -1.578125 C 3.257812 -1.941406 3.515625 -2.503906 3.640625 -3.265625 C 3.765625 -4.023438 3.828125 -5.160156 3.828125 -6.671875 L 3.828125 -22.84375 C 3.828125 -23.800781 3.757812 -24.492188 3.625 -24.921875 C 3.488281 -25.347656 3.242188 -25.640625 2.890625 -25.796875 C 2.535156 -25.953125 1.953125 -26.050781 1.140625 -26.09375 L 1.140625 -26.859375 C 1.898438 -26.785156 2.945312 -26.75 4.28125 -26.75 C 7.320312 -26.75 9.941406 -26.785156 12.140625 -26.859375 L 19.3125 -10.734375 L 25.53125 -26.75 L 28.828125 -26.75 C 31.765625 -26.75 34.003906 -26.785156 35.546875 -26.859375 Z M 35.546875 -26.09375 "/></g></g></g><g fill="#f8f8f8" fill-opacity="1"><g transform="translate(97.534134, 73.470286)"><g><path d="M 35.546875 -26.09375 C 34.734375 -26.050781 34.144531 -25.953125 33.78125 -25.796875 C 33.414062 -25.640625 33.171875 -25.347656 33.046875 -24.921875 C 32.921875 -24.492188 32.859375 -23.800781 32.859375 -22.84375 L 32.859375 -4.015625 C 32.859375 -3.054688 32.925781 -2.363281 33.0625 -1.9375 C 33.195312 -1.507812 33.441406 -1.21875 33.796875 -1.0625 C 34.148438 -0.90625 34.734375 -0.804688 35.546875 -0.765625 L 35.546875 0 C 34.003906 -0.0703125 31.765625 -0.109375 28.828125 -0.109375 C 25.765625 -0.109375 23.515625 -0.0703125 22.078125 0 L 22.078125 -0.765625 C 22.992188 -0.804688 23.660156 -0.90625 24.078125 -1.0625 C 24.492188 -1.21875 24.773438 -1.507812 24.921875 -1.9375 C 25.078125 -2.363281 25.15625 -3.054688 25.15625 -4.015625 L 25.15625 -23.40625 L 16.015625 -0.03125 L 15.40625 -0.03125 L 4.703125 -24.390625 L 4.703125 -7.4375 C 4.703125 -5.5625 4.773438 -4.210938 4.921875 -3.390625 C 5.078125 -2.566406 5.414062 -1.96875 5.9375 -1.59375 C 6.457031 -1.21875 7.320312 -0.941406 8.53125 -0.765625 L 8.53125 0 C 7.5 -0.0703125 6.082031 -0.109375 4.28125 -0.109375 C 2.945312 -0.109375 1.898438 -0.0703125 1.140625 0 L 1.140625 -0.765625 C 1.921875 -0.941406 2.5 -1.210938 2.875 -1.578125 C 3.257812 -1.941406 3.515625 -2.503906 3.640625 -3.265625 C 3.765625 -4.023438 3.828125 -5.160156 3.828125 -6.671875 L 3.828125 -22.84375 C 3.828125 -23.800781 3.757812 -24.492188 3.625 -24.921875 C 3.488281 -25.347656 3.242188 -25.640625 2.890625 -25.796875 C 2.535156 -25.953125 1.953125 -26.050781 1.140625 -26.09375 L 1.140625 -26.859375 C 1.898438 -26.785156 2.945312 -26.75 4.28125 -26.75 C 7.320312 -26.75 9.941406 -26.785156 12.140625 -26.859375 L 19.3125 -10.734375 L 25.53125 -26.75 L 28.828125 -26.75 C 31.765625 -26.75 34.003906 -26.785156 35.546875 -26.859375 Z M 35.546875 -26.09375 "/></g></g></g><g fill="#f8f8f8" fill-opacity="1"><g transform="translate(134.138022, 73.470286)"><g><path d="M 14.15625 -26.09375 C 13.34375 -26.050781 12.753906 -25.953125 12.390625 -25.796875 C 12.023438 -25.640625 11.773438 -25.347656 11.640625 -24.921875 C 11.515625 -24.492188 11.453125 -23.800781 11.453125 -22.84375 L 11.453125 -4.015625 C 11.453125 -3.054688 11.519531 -2.363281 11.65625 -1.9375 C 11.800781 -1.507812 12.050781 -1.21875 12.40625 -1.0625 C 12.757812 -0.90625 13.34375 -0.804688 14.15625 -0.765625 L 14.15625 0 C 12.6875 -0.0703125 10.570312 -0.109375 7.8125 -0.109375 C 4.75 -0.109375 2.5 -0.0703125 1.0625 0 L 1.0625 -0.765625 C 1.875 -0.804688 2.460938 -0.90625 2.828125 -1.0625 C 3.191406 -1.21875 3.4375 -1.507812 3.5625 -1.9375 C 3.6875 -2.363281 3.75 -3.054688 3.75 -4.015625 L 3.75 -22.84375 C 3.75 -23.800781 3.679688 -24.492188 3.546875 -24.921875 C 3.410156 -25.347656 3.164062 -25.640625 2.8125 -25.796875 C 2.457031 -25.953125 1.875 -26.050781 1.0625 -26.09375 L 1.0625 -26.859375 C 2.5 -26.785156 4.75 -26.75 7.8125 -26.75 C 10.539062 -26.75 12.65625 -26.785156 14.15625 -26.859375 Z M 14.15625 -26.09375 "/></g></g></g><g fill="#f8f8f8" fill-opacity="1"><g transform="translate(149.348543, 73.470286)"><g><path d="M 25.640625 -26.859375 C 25.460938 -24.054688 25.375 -21.550781 25.375 -19.34375 C 25.375 -18.1875 25.414062 -17.273438 25.5 -16.609375 L 24.625 -16.609375 C 23.789062 -19.929688 22.710938 -22.320312 21.390625 -23.78125 C 20.078125 -25.25 18.660156 -25.984375 17.140625 -25.984375 L 17.109375 -25.984375 L 17.109375 -4.28125 C 17.109375 -3.21875 17.210938 -2.445312 17.421875 -1.96875 C 17.640625 -1.488281 18.035156 -1.164062 18.609375 -1 C 19.179688 -0.84375 20.085938 -0.765625 21.328125 -0.765625 L 21.328125 0 C 17.753906 -0.0703125 14.984375 -0.109375 13.015625 -0.109375 C 11.210938 -0.109375 8.609375 -0.0703125 5.203125 0 L 5.203125 -0.765625 C 6.441406 -0.765625 7.34375 -0.84375 7.90625 -1 C 8.476562 -1.164062 8.867188 -1.488281 9.078125 -1.96875 C 9.296875 -2.445312 9.40625 -3.21875 9.40625 -4.28125 L 9.40625 -25.984375 L 9.375 -25.984375 C 7.832031 -25.984375 6.410156 -25.253906 5.109375 -23.796875 C 3.804688 -22.347656 2.734375 -19.953125 1.890625 -16.609375 L 1.03125 -16.609375 C 1.101562 -17.273438 1.140625 -18.1875 1.140625 -19.34375 C 1.140625 -21.550781 1.050781 -24.054688 0.875 -26.859375 C 3.28125 -26.785156 7.414062 -26.75 13.28125 -26.75 C 19.125 -26.75 23.242188 -26.785156 25.640625 -26.859375 Z M 25.640625 -26.859375 "/></g></g></g><path stroke-linecap="round" transform="matrix(0.749552, 0, 0, 0.749552, 11.391716, 42.222843)" fill="none" stroke-linejoin="miter" d="M 0.999142 1.000348 L 218.081888 1.000348 " stroke="#ffffff" stroke-width="2" stroke-opacity="1" stroke-miterlimit="4"/><g fill="#e3b655" fill-opacity="1"><g transform="translate(95.514245, 88.32158)"><g><path d="M 10.671875 -24.6875 C 13.109375 -24.6875 15.101562 -24.097656 16.65625 -22.921875 C 18.21875 -21.753906 19 -20.21875 19 -18.3125 C 19 -16.03125 17.46875 -13.320312 14.40625 -10.1875 L 9.453125 -4.921875 L 19.734375 -4.921875 L 19.734375 0 L 1.46875 0 L 1.46875 -4.015625 L 10.1875 -13.25 C 11.738281 -14.875 12.515625 -16.269531 12.515625 -17.4375 C 12.515625 -18.132812 12.269531 -18.679688 11.78125 -19.078125 C 11.300781 -19.472656 10.628906 -19.671875 9.765625 -19.671875 C 7.742188 -19.671875 5.523438 -18.632812 3.109375 -16.5625 L 0.765625 -21.03125 C 4.023438 -23.46875 7.328125 -24.6875 10.671875 -24.6875 Z M 10.671875 -24.6875 "/></g></g></g><g fill="#e3b655" fill-opacity="1"><g transform="translate(116.440573, 88.32158)"><g/></g></g><g fill="#e3b655" fill-opacity="1"><g transform="translate(124.532087, 88.32158)"><g/></g></g><g fill="#e3b655" fill-opacity="1"><g transform="translate(132.6236, 88.32158)"><g/></g></g><g fill="#e3b655" fill-opacity="1"><g transform="translate(140.715637, 88.32158)"><g><path d="M 10.671875 -24.6875 C 13.109375 -24.6875 15.101562 -24.097656 16.65625 -22.921875 C 18.21875 -21.753906 19 -20.21875 19 -18.3125 C 19 -16.03125 17.46875 -13.320312 14.40625 -10.1875 L 9.453125 -4.921875 L 19.734375 -4.921875 L 19.734375 0 L 1.46875 0 L 1.46875 -4.015625 L 10.1875 -13.25 C 11.738281 -14.875 12.515625 -16.269531 12.515625 -17.4375 C 12.515625 -18.132812 12.269531 -18.679688 11.78125 -19.078125 C 11.300781 -19.472656 10.628906 -19.671875 9.765625 -19.671875 C 7.742188 -19.671875 5.523438 -18.632812 3.109375 -16.5625 L 0.765625 -21.03125 C 4.023438 -23.46875 7.328125 -24.6875 10.671875 -24.6875 Z M 10.671875 -24.6875 "/></g></g></g><g fill="#e3b655" fill-opacity="1"><g transform="translate(161.641961, 88.32158)"><g><path d="M 18.546875 -19.5 L 8.203125 -19.5 L 8.203125 -15.546875 L 10.390625 -15.546875 C 13.160156 -15.546875 15.394531 -14.863281 17.09375 -13.5 C 18.789062 -12.144531 19.640625 -10.378906 19.640625 -8.203125 C 19.640625 -5.640625 18.753906 -3.585938 16.984375 -2.046875 C 15.210938 -0.515625 12.851562 0.25 9.90625 0.25 C 8.320312 0.25 6.675781 -0.03125 4.96875 -0.59375 C 3.257812 -1.15625 1.765625 -1.890625 0.484375 -2.796875 L 2.96875 -7.5 C 4.820312 -5.5 6.890625 -4.5 9.171875 -4.5 C 10.378906 -4.5 11.3125 -4.78125 11.96875 -5.34375 C 12.632812 -5.914062 12.96875 -6.726562 12.96875 -7.78125 C 12.96875 -8.726562 12.632812 -9.46875 11.96875 -10 C 11.3125 -10.539062 10.378906 -10.8125 9.171875 -10.8125 C 6.429688 -10.8125 4.222656 -10.753906 2.546875 -10.640625 L 2.546875 -24.40625 L 18.546875 -24.40625 Z M 18.546875 -19.5 "/></g></g></g><g clip-path="url(#6f5b95ad90)"><g fill="#f4772e" fill-opacity="1"><g transform="translate(12.319198, 6.621038)"><g><path d="M 2.09375 0 L 0.59375 0 L 0.59375 -5.890625 L 2.09375 -5.890625 Z M 2.09375 0 "/></g></g></g></g><g clip-path="url(#5916fbc7e8)"><g fill="#f4772e" fill-opacity="1"><g transform="translate(14.997044, 6.621038)"><g><path d="M 0.59375 -5.890625 L 3.15625 -5.890625 C 3.90625 -5.890625 4.488281 -5.710938 4.90625 -5.359375 C 5.320312 -5.003906 5.53125 -4.5 5.53125 -3.84375 C 5.53125 -3.144531 5.320312 -2.601562 4.90625 -2.21875 C 4.488281 -1.84375 3.90625 -1.65625 3.15625 -1.65625 L 2.09375 -1.65625 L 2.09375 0 L 0.59375 0 Z M 2.09375 -4.71875 L 2.09375 -2.84375 L 3.078125 -2.84375 C 3.410156 -2.84375 3.664062 -2.921875 3.84375 -3.078125 C 4.03125 -3.242188 4.125 -3.484375 4.125 -3.796875 C 4.125 -4.097656 4.03125 -4.328125 3.84375 -4.484375 C 3.664062 -4.640625 3.410156 -4.71875 3.078125 -4.71875 Z M 2.09375 -4.71875 "/></g></g></g></g><g clip-path="url(#f06eb43959)"><g fill="#f4772e" fill-opacity="1"><g transform="translate(20.72326, 6.621038)"><g><path d="M 6.03125 0 L 4.703125 0 L 2 -3.625 L 2 0 L 0.59375 0 L 0.59375 -5.890625 L 1.90625 -5.890625 L 4.625 -2.25 L 4.625 -5.890625 L 6.03125 -5.890625 Z M 6.03125 0 "/></g></g></g></g><g fill="#000000" fill-opacity="1"><g transform="translate(27.348655, 6.621038)"><g/></g></g><g clip-path="url(#7ae69ccd75)"><g fill="#f8f8f8" fill-opacity="1"><g transform="translate(29.305723, 6.621038)"><g><path d="M 4.953125 -4.71875 L 2.09375 -4.71875 L 2.09375 -3.359375 L 4.734375 -3.359375 L 4.734375 -2.171875 L 2.09375 -2.171875 L 2.09375 0 L 0.59375 0 L 0.59375 -5.890625 L 4.953125 -5.890625 Z M 4.953125 -4.71875 "/></g></g></g></g><g clip-path="url(#8113db8ca8)"><g fill="#f8f8f8" fill-opacity="1"><g transform="translate(34.39195, 6.621038)"><g><path d="M 3.390625 -5.953125 C 4.304688 -5.953125 5.066406 -5.664062 5.671875 -5.09375 C 6.273438 -4.519531 6.578125 -3.804688 6.578125 -2.953125 C 6.578125 -2.097656 6.269531 -1.378906 5.65625 -0.796875 C 5.050781 -0.222656 4.289062 0.0625 3.375 0.0625 C 2.46875 0.0625 1.710938 -0.222656 1.109375 -0.796875 C 0.503906 -1.367188 0.203125 -2.085938 0.203125 -2.953125 C 0.203125 -3.816406 0.503906 -4.53125 1.109375 -5.09375 C 1.710938 -5.664062 2.472656 -5.953125 3.390625 -5.953125 Z M 3.40625 -4.6875 C 2.945312 -4.6875 2.550781 -4.519531 2.21875 -4.1875 C 1.894531 -3.851562 1.734375 -3.4375 1.734375 -2.9375 C 1.734375 -2.445312 1.894531 -2.03125 2.21875 -1.6875 C 2.550781 -1.351562 2.941406 -1.1875 3.390625 -1.1875 C 3.847656 -1.1875 4.234375 -1.351562 4.546875 -1.6875 C 4.867188 -2.03125 5.03125 -2.445312 5.03125 -2.9375 C 5.03125 -3.4375 4.867188 -3.851562 4.546875 -4.1875 C 4.234375 -4.519531 3.851562 -4.6875 3.40625 -4.6875 Z M 3.40625 -4.6875 "/></g></g></g></g><g clip-path="url(#5f8fbde8fd)"><g fill="#f8f8f8" fill-opacity="1"><g transform="translate(41.170779, 6.621038)"><g><path d="M 5.890625 -5.890625 L 5.890625 -2.46875 C 5.890625 -1.695312 5.648438 -1.082031 5.171875 -0.625 C 4.691406 -0.164062 4.035156 0.0625 3.203125 0.0625 C 2.378906 0.0625 1.71875 -0.164062 1.21875 -0.625 C 0.726562 -1.082031 0.484375 -1.695312 0.484375 -2.46875 L 0.484375 -5.890625 L 1.984375 -5.890625 L 1.984375 -2.46875 C 1.984375 -2.082031 2.097656 -1.769531 2.328125 -1.53125 C 2.554688 -1.300781 2.851562 -1.1875 3.21875 -1.1875 C 3.570312 -1.1875 3.859375 -1.300781 4.078125 -1.53125 C 4.296875 -1.757812 4.40625 -2.070312 4.40625 -2.46875 L 4.40625 -5.890625 Z M 5.890625 -5.890625 "/></g></g></g></g><g clip-path="url(#6fae13c0ad)"><g fill="#f8f8f8" fill-opacity="1"><g transform="translate(47.553828, 6.621038)"><g><path d="M 6.03125 0 L 4.703125 0 L 2 -3.625 L 2 0 L 0.59375 0 L 0.59375 -5.890625 L 1.90625 -5.890625 L 4.625 -2.25 L 4.625 -5.890625 L 6.03125 -5.890625 Z M 6.03125 0 "/></g></g></g></g><g clip-path="url(#152c839c52)"><g fill="#f8f8f8" fill-opacity="1"><g transform="translate(54.172661, 6.621038)"><g><path d="M 0.59375 -5.890625 L 3.125 -5.890625 C 4.050781 -5.890625 4.800781 -5.617188 5.375 -5.078125 C 5.957031 -4.535156 6.25 -3.828125 6.25 -2.953125 C 6.25 -2.078125 5.953125 -1.363281 5.359375 -0.8125 C 4.773438 -0.269531 4.007812 0 3.0625 0 L 0.59375 0 Z M 2.09375 -4.703125 L 2.09375 -1.203125 L 3.15625 -1.203125 C 3.613281 -1.203125 3.988281 -1.363281 4.28125 -1.6875 C 4.582031 -2.007812 4.734375 -2.425781 4.734375 -2.9375 C 4.734375 -3.457031 4.578125 -3.878906 4.265625 -4.203125 C 3.960938 -4.535156 3.570312 -4.703125 3.09375 -4.703125 Z M 2.09375 -4.703125 "/></g></g></g></g><g clip-path="url(#f2ae636883)"><g fill="#f8f8f8" fill-opacity="1"><g transform="translate(60.631499, 6.621038)"><g><path d="M 4.5 -1.09375 L 1.921875 -1.09375 L 1.5 0 L -0.046875 0 L 2.5 -5.890625 L 4.046875 -5.890625 L 6.53125 0 L 4.921875 0 Z M 4.0625 -2.21875 L 3.21875 -4.40625 L 2.359375 -2.21875 Z M 4.0625 -2.21875 "/></g></g></g></g><g clip-path="url(#8a907fac27)"><g fill="#f8f8f8" fill-opacity="1"><g transform="translate(67.115599, 6.621038)"><g><path d="M 5.09375 -4.6875 L 3.3125 -4.6875 L 3.3125 0 L 1.8125 0 L 1.8125 -4.6875 L 0.0625 -4.6875 L 0.0625 -5.90625 L 5.09375 -5.90625 Z M 5.09375 -4.6875 "/></g></g></g></g><g clip-path="url(#c1d2640f50)"><g fill="#f8f8f8" fill-opacity="1"><g transform="translate(72.26077, 6.621038)"><g><path d="M 2.09375 0 L 0.59375 0 L 0.59375 -5.890625 L 2.09375 -5.890625 Z M 2.09375 0 "/></g></g></g></g><g clip-path="url(#fafcec51b1)"><g fill="#f8f8f8" fill-opacity="1"><g transform="translate(74.938616, 6.621038)"><g><path d="M 3.390625 -5.953125 C 4.304688 -5.953125 5.066406 -5.664062 5.671875 -5.09375 C 6.273438 -4.519531 6.578125 -3.804688 6.578125 -2.953125 C 6.578125 -2.097656 6.269531 -1.378906 5.65625 -0.796875 C 5.050781 -0.222656 4.289062 0.0625 3.375 0.0625 C 2.46875 0.0625 1.710938 -0.222656 1.109375 -0.796875 C 0.503906 -1.367188 0.203125 -2.085938 0.203125 -2.953125 C 0.203125 -3.816406 0.503906 -4.53125 1.109375 -5.09375 C 1.710938 -5.664062 2.472656 -5.953125 3.390625 -5.953125 Z M 3.40625 -4.6875 C 2.945312 -4.6875 2.550781 -4.519531 2.21875 -4.1875 C 1.894531 -3.851562 1.734375 -3.4375 1.734375 -2.9375 C 1.734375 -2.445312 1.894531 -2.03125 2.21875 -1.6875 C 2.550781 -1.351562 2.941406 -1.1875 3.390625 -1.1875 C 3.847656 -1.1875 4.234375 -1.351562 4.546875 -1.6875 C 4.867188 -2.03125 5.03125 -2.445312 5.03125 -2.9375 C 5.03125 -3.4375 4.867188 -3.851562 4.546875 -4.1875 C 4.234375 -4.519531 3.851562 -4.6875 3.40625 -4.6875 Z M 3.40625 -4.6875 "/></g></g></g></g><g clip-path="url(#5a8a09b386)"><g fill="#f8f8f8" fill-opacity="1"><g transform="translate(81.717445, 6.621038)"><g><path d="M 6.03125 0 L 4.703125 0 L 2 -3.625 L 2 0 L 0.59375 0 L 0.59375 -5.890625 L 1.90625 -5.890625 L 4.625 -2.25 L 4.625 -5.890625 L 6.03125 -5.890625 Z M 6.03125 0 "/></g></g></g></g><g fill="#000000" fill-opacity="1"><g transform="translate(88.341649, 6.621038)"><g/></g></g><g fill="#ffffff" fill-opacity="1"><g transform="translate(89.320047, 6.61496)"><g><path d="M 0.171875 -1.671875 L 0.890625 -1.671875 C 1.109375 -1.671875 1.273438 -1.617188 1.390625 -1.515625 C 1.515625 -1.421875 1.578125 -1.28125 1.578125 -1.09375 C 1.578125 -0.894531 1.515625 -0.738281 1.390625 -0.625 C 1.273438 -0.519531 1.109375 -0.46875 0.890625 -0.46875 L 0.59375 -0.46875 L 0.59375 0 L 0.171875 0 Z M 0.59375 -1.34375 L 0.59375 -0.8125 L 0.875 -0.8125 C 0.96875 -0.8125 1.039062 -0.832031 1.09375 -0.875 C 1.144531 -0.914062 1.171875 -0.984375 1.171875 -1.078125 C 1.171875 -1.160156 1.144531 -1.222656 1.09375 -1.265625 C 1.039062 -1.316406 0.96875 -1.34375 0.875 -1.34375 Z M 0.59375 -1.34375 "/></g></g></g><g fill="#ffffff" fill-opacity="1"><g transform="translate(90.941225, 6.61496)"><g><path d="M 1.171875 0 L 0.921875 -0.46875 L 0.59375 -0.46875 L 0.59375 0 L 0.171875 0 L 0.171875 -1.671875 L 0.921875 -1.671875 C 1.140625 -1.671875 1.304688 -1.617188 1.421875 -1.515625 C 1.546875 -1.421875 1.609375 -1.28125 1.609375 -1.09375 C 1.609375 -0.832031 1.507812 -0.648438 1.3125 -0.546875 L 1.65625 0 Z M 0.59375 -0.8125 L 0.921875 -0.8125 C 1.003906 -0.8125 1.070312 -0.832031 1.125 -0.875 C 1.175781 -0.914062 1.203125 -0.984375 1.203125 -1.078125 C 1.203125 -1.160156 1.175781 -1.222656 1.125 -1.265625 C 1.070312 -1.316406 1.003906 -1.34375 0.921875 -1.34375 L 0.59375 -1.34375 Z M 0.59375 -0.8125 "/></g></g></g><g fill="#ffffff" fill-opacity="1"><g transform="translate(92.6673, 6.61496)"><g><path d="M 1.484375 -1.34375 L 0.59375 -1.34375 L 0.59375 -1 L 1.390625 -1 L 1.390625 -0.671875 L 0.59375 -0.671875 L 0.59375 -0.328125 L 1.5 -0.328125 L 1.5 0 L 0.171875 0 L 0.171875 -1.671875 L 1.484375 -1.671875 Z M 1.484375 -1.34375 "/></g></g></g><g fill="#ffffff" fill-opacity="1"><g transform="translate(94.274173, 6.61496)"><g><path d="M 0.8125 -1.6875 C 1.0625 -1.6875 1.28125 -1.625 1.46875 -1.5 L 1.3125 -1.171875 C 1.21875 -1.222656 1.117188 -1.265625 1.015625 -1.296875 C 0.921875 -1.328125 0.84375 -1.34375 0.78125 -1.34375 C 0.65625 -1.34375 0.59375 -1.300781 0.59375 -1.21875 C 0.59375 -1.164062 0.617188 -1.125 0.671875 -1.09375 C 0.734375 -1.0625 0.804688 -1.035156 0.890625 -1.015625 C 0.984375 -0.992188 1.070312 -0.96875 1.15625 -0.9375 C 1.25 -0.90625 1.320312 -0.851562 1.375 -0.78125 C 1.4375 -0.707031 1.46875 -0.613281 1.46875 -0.5 C 1.46875 -0.332031 1.40625 -0.203125 1.28125 -0.109375 C 1.15625 -0.0234375 1 0.015625 0.8125 0.015625 C 0.664062 0.015625 0.523438 -0.00390625 0.390625 -0.046875 C 0.253906 -0.0976562 0.140625 -0.164062 0.046875 -0.25 L 0.203125 -0.578125 C 0.285156 -0.503906 0.382812 -0.441406 0.5 -0.390625 C 0.613281 -0.347656 0.71875 -0.328125 0.8125 -0.328125 C 0.875 -0.328125 0.925781 -0.335938 0.96875 -0.359375 C 1.007812 -0.390625 1.03125 -0.425781 1.03125 -0.46875 C 1.03125 -0.519531 1.003906 -0.5625 0.953125 -0.59375 C 0.910156 -0.625 0.859375 -0.644531 0.796875 -0.65625 C 0.734375 -0.675781 0.660156 -0.695312 0.578125 -0.71875 C 0.503906 -0.75 0.4375 -0.773438 0.375 -0.796875 C 0.3125 -0.828125 0.253906 -0.875 0.203125 -0.9375 C 0.160156 -1.007812 0.140625 -1.09375 0.140625 -1.1875 C 0.140625 -1.34375 0.203125 -1.460938 0.328125 -1.546875 C 0.453125 -1.640625 0.613281 -1.6875 0.8125 -1.6875 Z M 0.8125 -1.6875 "/></g></g></g><g fill="#ffffff" fill-opacity="1"><g transform="translate(95.809523, 6.61496)"><g><path d="M 1.484375 -1.34375 L 0.59375 -1.34375 L 0.59375 -1 L 1.390625 -1 L 1.390625 -0.671875 L 0.59375 -0.671875 L 0.59375 -0.328125 L 1.5 -0.328125 L 1.5 0 L 0.171875 0 L 0.171875 -1.671875 L 1.484375 -1.671875 Z M 1.484375 -1.34375 "/></g></g></g><g fill="#ffffff" fill-opacity="1"><g transform="translate(97.416395, 6.61496)"><g><path d="M 1.71875 0 L 1.34375 0 L 0.5625 -1.03125 L 0.5625 0 L 0.171875 0 L 0.171875 -1.671875 L 0.546875 -1.671875 L 1.3125 -0.640625 L 1.3125 -1.671875 L 1.71875 -1.671875 Z M 1.71875 0 "/></g></g></g><g fill="#ffffff" fill-opacity="1"><g transform="translate(99.290284, 6.61496)"><g><path d="M 1.453125 -1.328125 L 0.9375 -1.328125 L 0.9375 0 L 0.515625 0 L 0.515625 -1.328125 L 0.015625 -1.328125 L 0.015625 -1.671875 L 1.453125 -1.671875 Z M 1.453125 -1.328125 "/></g></g></g><g fill="#ffffff" fill-opacity="1"><g transform="translate(100.746958, 6.61496)"><g><path d="M 0.8125 -1.6875 C 1.0625 -1.6875 1.28125 -1.625 1.46875 -1.5 L 1.3125 -1.171875 C 1.21875 -1.222656 1.117188 -1.265625 1.015625 -1.296875 C 0.921875 -1.328125 0.84375 -1.34375 0.78125 -1.34375 C 0.65625 -1.34375 0.59375 -1.300781 0.59375 -1.21875 C 0.59375 -1.164062 0.617188 -1.125 0.671875 -1.09375 C 0.734375 -1.0625 0.804688 -1.035156 0.890625 -1.015625 C 0.984375 -0.992188 1.070312 -0.96875 1.15625 -0.9375 C 1.25 -0.90625 1.320312 -0.851562 1.375 -0.78125 C 1.4375 -0.707031 1.46875 -0.613281 1.46875 -0.5 C 1.46875 -0.332031 1.40625 -0.203125 1.28125 -0.109375 C 1.15625 -0.0234375 1 0.015625 0.8125 0.015625 C 0.664062 0.015625 0.523438 -0.00390625 0.390625 -0.046875 C 0.253906 -0.0976562 0.140625 -0.164062 0.046875 -0.25 L 0.203125 -0.578125 C 0.285156 -0.503906 0.382812 -0.441406 0.5 -0.390625 C 0.613281 -0.347656 0.71875 -0.328125 0.8125 -0.328125 C 0.875 -0.328125 0.925781 -0.335938 0.96875 -0.359375 C 1.007812 -0.390625 1.03125 -0.425781 1.03125 -0.46875 C 1.03125 -0.519531 1.003906 -0.5625 0.953125 -0.59375 C 0.910156 -0.625 0.859375 -0.644531 0.796875 -0.65625 C 0.734375 -0.675781 0.660156 -0.695312 0.578125 -0.71875 C 0.503906 -0.75 0.4375 -0.773438 0.375 -0.796875 C 0.3125 -0.828125 0.253906 -0.875 0.203125 -0.9375 C 0.160156 -1.007812 0.140625 -1.09375 0.140625 -1.1875 C 0.140625 -1.34375 0.203125 -1.460938 0.328125 -1.546875 C 0.453125 -1.640625 0.613281 -1.6875 0.8125 -1.6875 Z M 0.8125 -1.6875 "/></g></g></g></svg>