<svg xmlns="http://www.w3.org/2000/svg" xmlns:xlink="http://www.w3.org/1999/xlink" width="119" zoomAndPan="magnify" viewBox="0 0 89.25 52.499999" height="70" preserveAspectRatio="xMidYMid meet" version="1.0"><defs><clipPath id="f26cd56269"><path d="M 13.675781 35.355469 L 16.171875 35.355469 L 16.171875 35.921875 L 13.675781 35.921875 Z M 13.675781 35.921875 L 14.371094 35.921875 L 14.371094 37.175781 L 13.675781 37.175781 Z M 13.675781 37.175781 L 15.773438 37.175781 L 15.773438 37.742188 L 13.675781 37.742188 Z M 13.675781 37.742188 L 14.371094 37.742188 L 14.371094 39.597656 L 13.675781 39.597656 Z M 13.675781 37.742188 " clip-rule="nonzero"/></clipPath><clipPath id="59927605d9"><path d="M 0.757812 45.433594 L 3.617188 45.433594 L 3.617188 48.34375 L 0.757812 48.34375 Z M 0.757812 45.433594 " clip-rule="nonzero"/></clipPath><clipPath id="216053069e"><path d="M 2.96875 46.292969 C 2.894531 46.152344 2.792969 46.046875 2.664062 45.972656 C 2.53125 45.902344 2.382812 45.867188 2.210938 45.867188 C 2.023438 45.867188 1.859375 45.90625 1.710938 45.992188 C 1.566406 46.078125 1.449219 46.195312 1.367188 46.351562 C 1.285156 46.507812 1.242188 46.683594 1.242188 46.886719 C 1.242188 47.089844 1.285156 47.269531 1.367188 47.425781 C 1.449219 47.582031 1.566406 47.703125 1.710938 47.785156 C 1.859375 47.867188 2.023438 47.910156 2.210938 47.910156 C 2.464844 47.910156 2.667969 47.839844 2.824219 47.699219 C 2.980469 47.558594 3.078125 47.367188 3.113281 47.128906 L 2.054688 47.128906 L 2.054688 46.757812 L 3.609375 46.757812 L 3.609375 47.121094 C 3.582031 47.339844 3.503906 47.542969 3.375 47.726562 C 3.25 47.910156 3.085938 48.054688 2.882812 48.167969 C 2.683594 48.277344 2.457031 48.332031 2.210938 48.332031 C 1.945312 48.332031 1.703125 48.269531 1.484375 48.144531 C 1.265625 48.023438 1.089844 47.851562 0.960938 47.632812 C 0.835938 47.410156 0.769531 47.164062 0.769531 46.886719 C 0.769531 46.609375 0.832031 46.363281 0.960938 46.140625 C 1.089844 45.921875 1.265625 45.753906 1.484375 45.628906 C 1.707031 45.503906 1.949219 45.445312 2.210938 45.445312 C 2.511719 45.445312 2.78125 45.515625 3.015625 45.664062 C 3.25 45.8125 3.417969 46.023438 3.527344 46.292969 Z M 2.96875 46.292969 " clip-rule="nonzero"/></clipPath><clipPath id="7dadd5a2d5"><path d="M 4.148438 45.480469 L 4.609375 45.480469 L 4.609375 47.933594 L 4.148438 47.933594 Z M 4.148438 47.933594 L 5.566406 47.933594 L 5.566406 48.304688 L 4.148438 48.304688 Z M 4.148438 47.933594 " clip-rule="nonzero"/></clipPath><clipPath id="fc48b8ca8a"><path d="M 5.867188 45.433594 L 8.773438 45.433594 L 8.773438 48.34375 L 5.867188 48.34375 Z M 5.867188 45.433594 " clip-rule="nonzero"/></clipPath><clipPath id="423fe9dd87"><path d="M 7.824219 47.804688 C 7.96875 47.71875 8.082031 47.597656 8.164062 47.4375 C 8.246094 47.277344 8.289062 47.09375 8.289062 46.886719 C 8.289062 46.679688 8.246094 46.496094 8.164062 46.339844 C 8.082031 46.179688 7.96875 46.058594 7.824219 45.976562 C 7.675781 45.890625 7.507812 45.847656 7.320312 45.847656 C 7.136719 45.847656 6.96875 45.890625 6.820312 45.976562 C 6.675781 46.058594 6.558594 46.179688 6.476562 46.339844 C 6.394531 46.496094 6.355469 46.679688 6.355469 46.886719 C 6.355469 47.09375 6.394531 47.28125 6.476562 47.4375 C 6.558594 47.597656 6.675781 47.71875 6.820312 47.804688 C 6.96875 47.890625 7.136719 47.933594 7.320312 47.933594 C 7.507812 47.933594 7.675781 47.890625 7.824219 47.804688 M 6.597656 48.148438 C 6.375 48.027344 6.199219 47.851562 6.070312 47.632812 C 5.941406 47.414062 5.878906 47.164062 5.878906 46.886719 C 5.878906 46.609375 5.945312 46.363281 6.070312 46.140625 C 6.199219 45.921875 6.375 45.75 6.597656 45.628906 C 6.816406 45.503906 7.058594 45.445312 7.320312 45.445312 C 7.589844 45.445312 7.832031 45.503906 8.050781 45.628906 C 8.273438 45.753906 8.449219 45.925781 8.574219 46.144531 C 8.699219 46.363281 8.765625 46.609375 8.765625 46.886719 C 8.765625 47.164062 8.703125 47.414062 8.574219 47.632812 C 8.445312 47.855469 8.273438 48.027344 8.050781 48.152344 C 7.832031 48.273438 7.589844 48.335938 7.320312 48.335938 C 7.058594 48.335938 6.816406 48.273438 6.597656 48.152344 " clip-rule="nonzero"/></clipPath><clipPath id="cafbe9a939"><path d="M 9.296875 45.46875 L 11.359375 45.46875 L 11.359375 48.308594 L 9.296875 48.308594 Z M 9.296875 45.46875 " clip-rule="nonzero"/></clipPath><clipPath id="dfbf15f4ba"><path d="M 10.761719 47.8125 C 10.851562 47.738281 10.894531 47.632812 10.894531 47.496094 C 10.894531 47.359375 10.847656 47.25 10.753906 47.167969 C 10.660156 47.085938 10.53125 47.046875 10.375 47.046875 L 9.765625 47.046875 L 9.765625 47.929688 L 10.390625 47.929688 C 10.546875 47.929688 10.671875 47.890625 10.761719 47.8125 M 9.765625 46.667969 L 10.339844 46.667969 C 10.492188 46.667969 10.609375 46.632812 10.695312 46.566406 C 10.78125 46.496094 10.824219 46.398438 10.824219 46.265625 C 10.824219 46.136719 10.777344 46.039062 10.695312 45.96875 C 10.609375 45.894531 10.492188 45.859375 10.339844 45.859375 L 9.765625 45.859375 Z M 11.199219 47.09375 C 11.304688 47.226562 11.355469 47.378906 11.355469 47.546875 C 11.355469 47.691406 11.320312 47.820312 11.246094 47.933594 C 11.171875 48.050781 11.0625 48.140625 10.921875 48.207031 C 10.78125 48.273438 10.617188 48.304688 10.429688 48.304688 L 9.304688 48.304688 L 9.304688 45.480469 L 10.382812 45.480469 C 10.574219 45.480469 10.738281 45.511719 10.878906 45.578125 C 11.015625 45.640625 11.117188 45.730469 11.1875 45.839844 C 11.257812 45.953125 11.296875 46.074219 11.296875 46.207031 C 11.296875 46.371094 11.253906 46.507812 11.164062 46.617188 C 11.078125 46.726562 10.964844 46.804688 10.816406 46.855469 C 10.96875 46.882812 11.097656 46.964844 11.203125 47.09375 " clip-rule="nonzero"/></clipPath><clipPath id="87adc4a66a"><path d="M 11.765625 45.46875 L 14.351562 45.46875 L 14.351562 48.308594 L 11.765625 48.308594 Z M 11.765625 45.46875 " clip-rule="nonzero"/></clipPath><clipPath id="59ccd65ddf"><path d="M 13.519531 47.351562 L 13.058594 46.039062 L 12.597656 47.351562 Z M 13.648438 47.730469 L 12.464844 47.730469 L 12.261719 48.308594 L 11.777344 48.308594 L 12.789062 45.476562 L 13.328125 45.476562 L 14.339844 48.308594 L 13.851562 48.308594 Z M 13.648438 47.730469 " clip-rule="nonzero"/></clipPath><clipPath id="f1b800d35c"><path d="M 14.859375 45.480469 L 15.324219 45.480469 L 15.324219 47.933594 L 14.859375 47.933594 Z M 14.859375 47.933594 L 16.277344 47.933594 L 16.277344 48.304688 L 14.859375 48.304688 Z M 14.859375 47.933594 " clip-rule="nonzero"/></clipPath><clipPath id="d17b6ff9eb"><path d="M 19.121094 35.300781 L 23.453125 35.300781 L 23.453125 39.648438 L 19.121094 39.648438 Z M 19.121094 35.300781 " clip-rule="nonzero"/></clipPath><clipPath id="5a71e09263"><path d="M 22.039062 38.839844 C 22.257812 38.714844 22.429688 38.53125 22.550781 38.292969 C 22.675781 38.054688 22.738281 37.777344 22.738281 37.464844 C 22.738281 37.152344 22.675781 36.878906 22.550781 36.640625 C 22.429688 36.40625 22.257812 36.226562 22.039062 36.097656 C 21.820312 35.972656 21.566406 35.910156 21.289062 35.910156 C 21.007812 35.910156 20.757812 35.972656 20.535156 36.097656 C 20.316406 36.222656 20.144531 36.40625 20.023438 36.640625 C 19.898438 36.878906 19.835938 37.152344 19.835938 37.464844 C 19.835938 37.777344 19.898438 38.054688 20.023438 38.292969 C 20.144531 38.53125 20.320312 38.714844 20.535156 38.839844 C 20.753906 38.96875 21.007812 39.035156 21.289062 39.035156 C 21.566406 39.035156 21.816406 38.96875 22.039062 38.839844 M 20.199219 39.359375 C 19.867188 39.171875 19.605469 38.914062 19.414062 38.582031 C 19.21875 38.25 19.121094 37.878906 19.121094 37.464844 C 19.121094 37.050781 19.21875 36.679688 19.410156 36.351562 C 19.605469 36.019531 19.867188 35.761719 20.199219 35.578125 C 20.53125 35.390625 20.894531 35.300781 21.289062 35.300781 C 21.6875 35.300781 22.050781 35.390625 22.382812 35.578125 C 22.710938 35.761719 22.976562 36.019531 23.167969 36.351562 C 23.359375 36.679688 23.453125 37.050781 23.453125 37.464844 C 23.453125 37.878906 23.359375 38.253906 23.167969 38.585938 C 22.976562 38.917969 22.714844 39.175781 22.382812 39.359375 C 22.050781 39.546875 21.6875 39.636719 21.289062 39.636719 C 20.894531 39.636719 20.53125 39.546875 20.199219 39.359375 " clip-rule="nonzero"/></clipPath><clipPath id="f64c515723"><path d="M 26.652344 35.355469 L 29.992188 35.355469 L 29.992188 39.636719 L 26.652344 39.636719 Z M 26.652344 35.355469 " clip-rule="nonzero"/></clipPath><clipPath id="e9935d4cb6"><path d="M 27.363281 35.355469 L 27.363281 38.054688 C 27.363281 38.378906 27.445312 38.621094 27.617188 38.78125 C 27.785156 38.945312 28.019531 39.027344 28.320312 39.027344 C 28.625 39.027344 28.863281 38.945312 29.03125 38.78125 C 29.199219 38.617188 29.28125 38.378906 29.28125 38.054688 L 29.28125 35.355469 L 29.980469 35.355469 L 29.980469 38.046875 C 29.980469 38.390625 29.902344 38.683594 29.753906 38.921875 C 29.601562 39.164062 29.402344 39.339844 29.148438 39.460938 C 28.898438 39.578125 28.617188 39.636719 28.3125 39.636719 C 28.007812 39.636719 27.730469 39.578125 27.480469 39.460938 C 27.230469 39.339844 27.03125 39.164062 26.886719 38.921875 C 26.738281 38.683594 26.667969 38.390625 26.667969 38.046875 L 26.667969 35.355469 Z M 27.363281 35.355469 " clip-rule="nonzero"/></clipPath><clipPath id="7ef57e1d87"><path d="M 33.417969 35.347656 L 36.914062 35.347656 L 36.914062 39.605469 L 33.417969 39.605469 Z M 33.417969 35.347656 " clip-rule="nonzero"/></clipPath><clipPath id="94cae22c89"><path d="M 36.898438 39.59375 L 36.207031 39.59375 L 34.113281 36.429688 L 34.113281 39.59375 L 33.417969 39.59375 L 33.417969 35.347656 L 34.113281 35.347656 L 36.207031 38.507812 L 36.207031 35.347656 L 36.902344 35.347656 Z M 36.898438 39.59375 " clip-rule="nonzero"/></clipPath><clipPath id="09cc534cb4"><path d="M 40.351562 35.355469 L 43.988281 35.355469 L 43.988281 39.601562 L 40.351562 39.601562 Z M 40.351562 35.355469 " clip-rule="nonzero"/></clipPath><clipPath id="f8f3d99110"><path d="M 42.878906 38.625 C 43.140625 38.355469 43.273438 37.976562 43.273438 37.488281 C 43.273438 37 43.140625 36.613281 42.878906 36.335938 C 42.613281 36.058594 42.230469 35.921875 41.734375 35.921875 L 41.046875 35.921875 L 41.046875 39.027344 L 41.734375 39.027344 C 42.230469 39.027344 42.613281 38.894531 42.875 38.625 M 42.921875 35.613281 C 43.261719 35.785156 43.523438 36.035156 43.707031 36.359375 C 43.894531 36.683594 43.984375 37.058594 43.984375 37.488281 C 43.984375 37.921875 43.894531 38.296875 43.707031 38.613281 C 43.523438 38.929688 43.261719 39.171875 42.921875 39.339844 C 42.582031 39.511719 42.1875 39.59375 41.734375 39.59375 L 40.351562 39.59375 L 40.351562 35.355469 L 41.734375 35.355469 C 42.1875 35.355469 42.582031 35.441406 42.921875 35.613281 " clip-rule="nonzero"/></clipPath><clipPath id="65ae7e1d33"><path d="M 17.722656 45.433594 L 20.496094 45.433594 L 20.496094 48.34375 L 17.722656 48.34375 Z M 17.722656 45.433594 " clip-rule="nonzero"/></clipPath><clipPath id="b35b9f9ebc"><path d="M 17.921875 46.144531 C 18.050781 45.925781 18.226562 45.753906 18.449219 45.628906 C 18.667969 45.503906 18.910156 45.445312 19.175781 45.445312 C 19.472656 45.445312 19.742188 45.515625 19.976562 45.664062 C 20.210938 45.8125 20.382812 46.023438 20.488281 46.292969 L 19.929688 46.292969 C 19.855469 46.144531 19.757812 46.035156 19.625 45.960938 C 19.496094 45.886719 19.34375 45.851562 19.175781 45.851562 C 18.988281 45.851562 18.820312 45.890625 18.671875 45.976562 C 18.527344 46.0625 18.414062 46.179688 18.328125 46.339844 C 18.246094 46.496094 18.207031 46.679688 18.207031 46.886719 C 18.207031 47.097656 18.25 47.28125 18.328125 47.4375 C 18.410156 47.597656 18.527344 47.714844 18.671875 47.800781 C 18.820312 47.886719 18.988281 47.929688 19.175781 47.929688 C 19.34375 47.929688 19.496094 47.894531 19.625 47.820312 C 19.753906 47.746094 19.855469 47.636719 19.929688 47.488281 L 20.488281 47.488281 C 20.382812 47.757812 20.210938 47.964844 19.976562 48.113281 C 19.742188 48.261719 19.476562 48.332031 19.175781 48.332031 C 18.90625 48.332031 18.664062 48.273438 18.445312 48.148438 C 18.226562 48.023438 18.050781 47.851562 17.925781 47.632812 C 17.796875 47.414062 17.730469 47.164062 17.730469 46.886719 C 17.730469 46.609375 17.796875 46.363281 17.921875 46.140625 " clip-rule="nonzero"/></clipPath><clipPath id="129bbf0d57"><path d="M 20.953125 45.433594 L 23.84375 45.433594 L 23.84375 48.34375 L 20.953125 48.34375 Z M 20.953125 45.433594 " clip-rule="nonzero"/></clipPath><clipPath id="5649dd158b"><path d="M 22.898438 47.804688 C 23.046875 47.71875 23.160156 47.597656 23.242188 47.4375 C 23.324219 47.277344 23.367188 47.09375 23.367188 46.886719 C 23.367188 46.679688 23.324219 46.496094 23.242188 46.339844 C 23.160156 46.179688 23.046875 46.0625 22.898438 45.976562 C 22.75 45.890625 22.585938 45.847656 22.398438 45.847656 C 22.210938 45.847656 22.042969 45.890625 21.898438 45.976562 C 21.75 46.0625 21.636719 46.179688 21.554688 46.339844 C 21.472656 46.496094 21.429688 46.679688 21.429688 46.886719 C 21.429688 47.09375 21.472656 47.28125 21.554688 47.4375 C 21.636719 47.597656 21.75 47.71875 21.898438 47.804688 C 22.042969 47.890625 22.210938 47.933594 22.398438 47.933594 C 22.585938 47.933594 22.75 47.890625 22.898438 47.804688 M 21.671875 48.148438 C 21.449219 48.027344 21.277344 47.851562 21.148438 47.632812 C 21.019531 47.414062 20.953125 47.164062 20.953125 46.886719 C 20.953125 46.609375 21.019531 46.363281 21.148438 46.140625 C 21.277344 45.921875 21.449219 45.75 21.671875 45.628906 C 21.894531 45.503906 22.136719 45.445312 22.398438 45.445312 C 22.664062 45.445312 22.90625 45.503906 23.128906 45.628906 C 23.351562 45.753906 23.523438 45.925781 23.648438 46.144531 C 23.777344 46.363281 23.839844 46.609375 23.839844 46.886719 C 23.839844 47.167969 23.777344 47.414062 23.648438 47.632812 C 23.523438 47.855469 23.347656 48.027344 23.128906 48.152344 C 22.910156 48.273438 22.664062 48.335938 22.398438 48.335938 C 22.136719 48.335938 21.894531 48.273438 21.671875 48.152344 " clip-rule="nonzero"/></clipPath><clipPath id="53c7682b33"><path d="M 24.367188 45.46875 L 26.699219 45.46875 L 26.699219 48.308594 L 24.367188 48.308594 Z M 24.367188 45.46875 " clip-rule="nonzero"/></clipPath><clipPath id="b16011a632"><path d="M 26.699219 48.304688 L 26.238281 48.304688 L 24.84375 46.195312 L 24.84375 48.304688 L 24.378906 48.304688 L 24.378906 45.476562 L 24.84375 45.476562 L 26.238281 47.582031 L 26.238281 45.476562 L 26.699219 45.476562 Z M 26.699219 48.304688 " clip-rule="nonzero"/></clipPath><clipPath id="11429cfeb9"><path d="M 27.390625 45.480469 L 29.054688 45.480469 L 29.054688 45.859375 L 27.390625 45.859375 Z M 27.390625 45.859375 L 27.855469 45.859375 L 27.855469 46.691406 L 27.390625 46.691406 Z M 27.390625 46.691406 L 28.789062 46.691406 L 28.789062 47.070312 L 27.390625 47.070312 Z M 27.390625 47.070312 L 27.855469 47.070312 L 27.855469 48.308594 L 27.390625 48.308594 Z M 27.390625 47.070312 " clip-rule="nonzero"/></clipPath><clipPath id="da4dfc6343"><path d="M 29.566406 45.480469 L 30.03125 45.480469 L 30.03125 47.933594 L 29.566406 47.933594 Z M 29.566406 47.933594 L 30.984375 47.933594 L 30.984375 48.304688 L 29.566406 48.304688 Z M 29.566406 47.933594 " clip-rule="nonzero"/></clipPath><clipPath id="977ad78371"><path d="M 31.433594 45.46875 L 33.664062 45.46875 L 33.664062 48.34375 L 31.433594 48.34375 Z M 31.433594 45.46875 " clip-rule="nonzero"/></clipPath><clipPath id="b06f3d5921"><path d="M 31.910156 45.480469 L 31.910156 47.28125 C 31.910156 47.496094 31.96875 47.65625 32.078125 47.765625 C 32.191406 47.875 32.347656 47.929688 32.550781 47.929688 C 32.753906 47.929688 32.910156 47.875 33.023438 47.765625 C 33.136719 47.65625 33.191406 47.496094 33.191406 47.28125 L 33.191406 45.480469 L 33.652344 45.480469 L 33.652344 47.273438 C 33.652344 47.503906 33.605469 47.699219 33.503906 47.859375 C 33.402344 48.019531 33.269531 48.136719 33.101562 48.21875 C 32.933594 48.296875 32.746094 48.335938 32.542969 48.335938 C 32.339844 48.335938 32.15625 48.296875 31.988281 48.21875 C 31.820312 48.136719 31.6875 48.019531 31.589844 47.859375 C 31.492188 47.699219 31.445312 47.503906 31.445312 47.273438 L 31.445312 45.480469 Z M 31.910156 45.480469 " clip-rule="nonzero"/></clipPath><clipPath id="ff2d5df09f"><path d="M 34.339844 45.476562 L 35.902344 45.476562 L 35.902344 45.855469 L 34.339844 45.855469 Z M 34.339844 45.855469 L 34.800781 45.855469 L 34.800781 46.683594 L 34.339844 46.683594 Z M 34.339844 46.683594 L 35.777344 46.683594 L 35.777344 47.0625 L 34.339844 47.0625 Z M 34.339844 47.0625 L 34.800781 47.0625 L 34.800781 47.929688 L 34.339844 47.929688 Z M 34.339844 47.929688 L 35.902344 47.929688 L 35.902344 48.304688 L 34.339844 48.304688 Z M 34.339844 47.929688 " clip-rule="nonzero"/></clipPath><clipPath id="60d8eaca2f"><path d="M 36.539062 45.46875 L 38.871094 45.46875 L 38.871094 48.308594 L 36.539062 48.308594 Z M 36.539062 45.46875 " clip-rule="nonzero"/></clipPath><clipPath id="7c3431145a"><path d="M 38.871094 48.304688 L 38.410156 48.304688 L 37.015625 46.195312 L 37.015625 48.304688 L 36.550781 48.304688 L 36.550781 45.476562 L 37.015625 45.476562 L 38.410156 47.582031 L 38.410156 45.476562 L 38.871094 45.476562 Z M 38.871094 48.304688 " clip-rule="nonzero"/></clipPath><clipPath id="1283f37bf6"><path d="M 39.398438 45.433594 L 42.167969 45.433594 L 42.167969 48.34375 L 39.398438 48.34375 Z M 39.398438 45.433594 " clip-rule="nonzero"/></clipPath><clipPath id="b25a1bac1d"><path d="M 39.601562 46.144531 C 39.730469 45.925781 39.90625 45.753906 40.128906 45.628906 C 40.347656 45.503906 40.589844 45.445312 40.851562 45.445312 C 41.152344 45.445312 41.421875 45.515625 41.65625 45.664062 C 41.890625 45.8125 42.058594 46.023438 42.164062 46.292969 L 41.609375 46.292969 C 41.535156 46.144531 41.433594 46.035156 41.304688 45.960938 C 41.171875 45.886719 41.023438 45.851562 40.851562 45.851562 C 40.664062 45.851562 40.5 45.890625 40.351562 45.976562 C 40.203125 46.0625 40.089844 46.179688 40.007812 46.339844 C 39.925781 46.496094 39.882812 46.679688 39.882812 46.886719 C 39.882812 47.097656 39.925781 47.28125 40.007812 47.4375 C 40.089844 47.597656 40.203125 47.714844 40.351562 47.800781 C 40.5 47.886719 40.664062 47.929688 40.851562 47.929688 C 41.023438 47.929688 41.171875 47.894531 41.304688 47.820312 C 41.433594 47.746094 41.535156 47.636719 41.609375 47.488281 L 42.164062 47.488281 C 42.058594 47.757812 41.890625 47.964844 41.65625 48.113281 C 41.421875 48.261719 41.152344 48.332031 40.851562 48.332031 C 40.585938 48.332031 40.34375 48.273438 40.125 48.148438 C 39.90625 48.023438 39.730469 47.851562 39.601562 47.632812 C 39.476562 47.414062 39.410156 47.167969 39.410156 46.886719 C 39.410156 46.609375 39.476562 46.363281 39.601562 46.144531 " clip-rule="nonzero"/></clipPath><clipPath id="d4f7fd49aa"><path d="M 42.789062 45.476562 L 44.347656 45.476562 L 44.347656 45.855469 L 42.789062 45.855469 Z M 42.789062 45.855469 L 43.25 45.855469 L 43.25 46.683594 L 42.789062 46.683594 Z M 42.789062 46.683594 L 44.226562 46.683594 L 44.226562 47.0625 L 42.789062 47.0625 Z M 42.789062 47.0625 L 43.25 47.0625 L 43.25 47.929688 L 42.789062 47.929688 Z M 42.789062 47.929688 L 44.347656 47.929688 L 44.347656 48.304688 L 42.789062 48.304688 Z M 42.789062 47.929688 " clip-rule="nonzero"/></clipPath><clipPath id="3feb15d6c8"><path d="M 46.960938 35.347656 L 50.820312 35.347656 L 50.820312 39.597656 L 46.960938 39.597656 Z M 46.960938 35.347656 " clip-rule="nonzero"/></clipPath><clipPath id="92721366ef"><path d="M 49.574219 38.160156 L 48.882812 36.191406 L 48.1875 38.160156 Z M 49.769531 38.726562 L 47.992188 38.726562 L 47.6875 39.59375 L 46.960938 39.59375 L 48.480469 35.347656 L 49.285156 35.347656 L 50.804688 39.59375 L 50.074219 39.59375 Z M 49.769531 38.726562 " clip-rule="nonzero"/></clipPath><clipPath id="bb3170e302"><path d="M 45.976562 45.433594 L 48.882812 45.433594 L 48.882812 48.34375 L 45.976562 48.34375 Z M 45.976562 45.433594 " clip-rule="nonzero"/></clipPath><clipPath id="f6f14b4e82"><path d="M 47.925781 47.804688 C 48.074219 47.71875 48.1875 47.597656 48.269531 47.4375 C 48.351562 47.277344 48.394531 47.09375 48.394531 46.886719 C 48.394531 46.679688 48.351562 46.496094 48.269531 46.339844 C 48.1875 46.179688 48.074219 46.0625 47.925781 45.976562 C 47.78125 45.890625 47.613281 45.847656 47.425781 45.847656 C 47.238281 45.847656 47.074219 45.890625 46.925781 45.976562 C 46.78125 46.0625 46.664062 46.179688 46.582031 46.339844 C 46.5 46.496094 46.460938 46.679688 46.460938 46.886719 C 46.460938 47.09375 46.5 47.28125 46.582031 47.4375 C 46.664062 47.597656 46.78125 47.71875 46.925781 47.804688 C 47.074219 47.890625 47.238281 47.933594 47.425781 47.933594 C 47.613281 47.933594 47.78125 47.890625 47.925781 47.804688 M 46.699219 48.148438 C 46.480469 48.027344 46.304688 47.851562 46.175781 47.632812 C 46.046875 47.414062 45.984375 47.164062 45.984375 46.886719 C 45.984375 46.609375 46.046875 46.363281 46.175781 46.140625 C 46.304688 45.921875 46.480469 45.753906 46.699219 45.628906 C 46.921875 45.503906 47.164062 45.445312 47.425781 45.445312 C 47.691406 45.445312 47.9375 45.503906 48.15625 45.628906 C 48.378906 45.753906 48.550781 45.925781 48.679688 46.144531 C 48.804688 46.363281 48.871094 46.609375 48.871094 46.886719 C 48.871094 47.167969 48.808594 47.414062 48.679688 47.632812 C 48.550781 47.855469 48.378906 48.027344 48.15625 48.152344 C 47.9375 48.273438 47.691406 48.335938 47.425781 48.335938 C 47.164062 48.335938 46.921875 48.273438 46.699219 48.152344 " clip-rule="nonzero"/></clipPath><clipPath id="73b7235303"><path d="M 49.40625 45.480469 L 51.070312 45.480469 L 51.070312 45.859375 L 49.40625 45.859375 Z M 49.40625 45.859375 L 49.871094 45.859375 L 49.871094 46.691406 L 49.40625 46.691406 Z M 49.40625 46.691406 L 50.804688 46.691406 L 50.804688 47.070312 L 49.40625 47.070312 Z M 49.40625 47.070312 L 49.871094 47.070312 L 49.871094 48.308594 L 49.40625 48.308594 Z M 49.40625 47.070312 " clip-rule="nonzero"/></clipPath><clipPath id="523dd4ef66"><path d="M 53.78125 35.355469 L 56.738281 35.355469 L 56.738281 35.921875 L 53.78125 35.921875 Z M 54.914062 35.921875 L 55.609375 35.921875 L 55.609375 39.59375 L 54.914062 39.59375 Z M 54.914062 35.921875 " clip-rule="nonzero"/></clipPath><clipPath id="e34222df31"><path d="M 59.976562 35.355469 L 60.671875 35.355469 L 60.671875 39.59375 L 59.976562 39.59375 Z M 59.976562 35.355469 " clip-rule="nonzero"/></clipPath><clipPath id="ccba7ef243"><path d="M 63.894531 35.300781 L 68.222656 35.300781 L 68.222656 39.648438 L 63.894531 39.648438 Z M 63.894531 35.300781 " clip-rule="nonzero"/></clipPath><clipPath id="8d5617ae5c"><path d="M 66.808594 38.839844 C 67.027344 38.714844 67.199219 38.53125 67.324219 38.292969 C 67.449219 38.054688 67.507812 37.777344 67.507812 37.464844 C 67.507812 37.152344 67.449219 36.878906 67.324219 36.640625 C 67.199219 36.40625 67.027344 36.226562 66.808594 36.097656 C 66.589844 35.972656 66.339844 35.910156 66.058594 35.910156 C 65.777344 35.910156 65.527344 35.972656 65.308594 36.097656 C 65.085938 36.222656 64.917969 36.40625 64.792969 36.640625 C 64.667969 36.878906 64.605469 37.152344 64.605469 37.464844 C 64.605469 37.777344 64.667969 38.054688 64.792969 38.292969 C 64.917969 38.53125 65.089844 38.714844 65.308594 38.839844 C 65.527344 38.96875 65.777344 39.035156 66.058594 39.035156 C 66.339844 39.035156 66.589844 38.96875 66.808594 38.839844 M 64.96875 39.359375 C 64.640625 39.171875 64.375 38.914062 64.183594 38.582031 C 63.992188 38.25 63.894531 37.878906 63.894531 37.464844 C 63.894531 37.050781 63.988281 36.679688 64.183594 36.351562 C 64.375 36.019531 64.636719 35.761719 64.96875 35.578125 C 65.300781 35.390625 65.664062 35.300781 66.058594 35.300781 C 66.457031 35.300781 66.820312 35.390625 67.152344 35.578125 C 67.480469 35.761719 67.746094 36.019531 67.9375 36.351562 C 68.128906 36.679688 68.222656 37.050781 68.222656 37.464844 C 68.222656 37.878906 68.125 38.253906 67.9375 38.585938 C 67.746094 38.917969 67.484375 39.175781 67.152344 39.359375 C 66.824219 39.546875 66.457031 39.636719 66.058594 39.636719 C 65.664062 39.636719 65.300781 39.546875 64.972656 39.359375 " clip-rule="nonzero"/></clipPath><clipPath id="7fb848774b"><path d="M 52.644531 45.433594 L 54.636719 45.433594 L 54.636719 48.34375 L 52.644531 48.34375 Z M 52.644531 45.433594 " clip-rule="nonzero"/></clipPath><clipPath id="be773f9f57"><path d="M 53.140625 48.234375 C 52.988281 48.167969 52.867188 48.074219 52.78125 47.953125 C 52.695312 47.832031 52.652344 47.6875 52.652344 47.523438 L 53.148438 47.523438 C 53.160156 47.648438 53.207031 47.75 53.292969 47.824219 C 53.375 47.902344 53.496094 47.945312 53.652344 47.945312 C 53.808594 47.945312 53.933594 47.90625 54.023438 47.828125 C 54.113281 47.753906 54.15625 47.652344 54.15625 47.53125 C 54.15625 47.433594 54.128906 47.355469 54.074219 47.296875 C 54.019531 47.238281 53.949219 47.191406 53.867188 47.160156 C 53.785156 47.128906 53.671875 47.09375 53.523438 47.054688 C 53.339844 47.007812 53.191406 46.957031 53.074219 46.90625 C 52.957031 46.855469 52.863281 46.777344 52.78125 46.671875 C 52.699219 46.566406 52.65625 46.425781 52.65625 46.25 C 52.65625 46.085938 52.699219 45.945312 52.78125 45.824219 C 52.863281 45.699219 52.976562 45.609375 53.121094 45.542969 C 53.269531 45.476562 53.4375 45.445312 53.632812 45.445312 C 53.90625 45.445312 54.128906 45.511719 54.304688 45.648438 C 54.480469 45.785156 54.578125 45.972656 54.59375 46.210938 L 54.082031 46.210938 C 54.074219 46.109375 54.027344 46.023438 53.9375 45.949219 C 53.847656 45.875 53.730469 45.839844 53.582031 45.839844 C 53.449219 45.839844 53.339844 45.875 53.257812 45.941406 C 53.175781 46.007812 53.132812 46.105469 53.132812 46.234375 C 53.132812 46.320312 53.15625 46.394531 53.210938 46.445312 C 53.265625 46.5 53.328125 46.546875 53.410156 46.578125 C 53.492188 46.609375 53.605469 46.648438 53.746094 46.6875 C 53.933594 46.738281 54.085938 46.789062 54.203125 46.839844 C 54.320312 46.894531 54.421875 46.972656 54.503906 47.078125 C 54.585938 47.183594 54.625 47.328125 54.625 47.507812 C 54.625 47.652344 54.585938 47.785156 54.511719 47.914062 C 54.433594 48.042969 54.320312 48.144531 54.171875 48.222656 C 54.023438 48.300781 53.851562 48.335938 53.652344 48.335938 C 53.460938 48.335938 53.289062 48.304688 53.140625 48.238281 " clip-rule="nonzero"/></clipPath><clipPath id="c355780b94"><path d="M 55.09375 45.433594 L 57.867188 45.433594 L 57.867188 48.34375 L 55.09375 48.34375 Z M 55.09375 45.433594 " clip-rule="nonzero"/></clipPath><clipPath id="7927fff20c"><path d="M 55.296875 46.144531 C 55.425781 45.925781 55.601562 45.753906 55.820312 45.628906 C 56.042969 45.503906 56.285156 45.445312 56.546875 45.445312 C 56.847656 45.445312 57.113281 45.515625 57.347656 45.664062 C 57.582031 45.8125 57.753906 46.023438 57.859375 46.292969 L 57.300781 46.292969 C 57.230469 46.144531 57.128906 46.03125 56.996094 45.960938 C 56.867188 45.886719 56.71875 45.851562 56.546875 45.851562 C 56.359375 45.851562 56.191406 45.890625 56.046875 45.976562 C 55.898438 46.0625 55.785156 46.179688 55.703125 46.339844 C 55.621094 46.496094 55.578125 46.679688 55.578125 46.886719 C 55.578125 47.097656 55.621094 47.28125 55.703125 47.4375 C 55.785156 47.597656 55.898438 47.714844 56.046875 47.800781 C 56.191406 47.886719 56.359375 47.929688 56.546875 47.929688 C 56.71875 47.929688 56.867188 47.894531 56.996094 47.820312 C 57.125 47.746094 57.230469 47.636719 57.300781 47.488281 L 57.859375 47.488281 C 57.753906 47.757812 57.582031 47.964844 57.347656 48.113281 C 57.113281 48.261719 56.847656 48.332031 56.546875 48.332031 C 56.28125 48.332031 56.039062 48.269531 55.816406 48.148438 C 55.597656 48.023438 55.425781 47.851562 55.296875 47.632812 C 55.167969 47.414062 55.105469 47.164062 55.105469 46.886719 C 55.105469 46.609375 55.167969 46.363281 55.296875 46.144531 " clip-rule="nonzero"/></clipPath><clipPath id="f1cabf0ce4"><path d="M 60.273438 45.480469 L 60.738281 45.480469 L 60.738281 46.691406 L 60.273438 46.691406 Z M 58.480469 45.480469 L 58.945312 45.480469 L 58.945312 46.691406 L 58.480469 46.691406 Z M 58.480469 46.691406 L 60.738281 46.691406 L 60.738281 47.070312 L 58.480469 47.070312 Z M 58.480469 47.070312 L 58.945312 47.070312 L 58.945312 48.304688 L 58.480469 48.304688 Z M 60.273438 47.070312 L 60.738281 47.070312 L 60.738281 48.304688 L 60.273438 48.304688 Z M 60.273438 47.070312 " clip-rule="nonzero"/></clipPath><clipPath id="a8d9a7309f"><path d="M 61.265625 45.433594 L 64.171875 45.433594 L 64.171875 48.34375 L 61.265625 48.34375 Z M 61.265625 45.433594 " clip-rule="nonzero"/></clipPath><clipPath id="7fe27853c8"><path d="M 63.21875 47.804688 C 63.367188 47.71875 63.480469 47.597656 63.5625 47.4375 C 63.644531 47.277344 63.6875 47.09375 63.6875 46.886719 C 63.6875 46.679688 63.644531 46.496094 63.5625 46.339844 C 63.480469 46.179688 63.367188 46.058594 63.21875 45.976562 C 63.070312 45.890625 62.90625 45.847656 62.71875 45.847656 C 62.53125 45.847656 62.363281 45.890625 62.21875 45.976562 C 62.070312 46.058594 61.957031 46.179688 61.875 46.339844 C 61.792969 46.496094 61.75 46.679688 61.75 46.886719 C 61.75 47.09375 61.792969 47.28125 61.875 47.4375 C 61.957031 47.597656 62.070312 47.71875 62.21875 47.804688 C 62.363281 47.890625 62.53125 47.933594 62.71875 47.933594 C 62.90625 47.933594 63.070312 47.890625 63.21875 47.804688 M 61.992188 48.148438 C 61.769531 48.027344 61.597656 47.851562 61.46875 47.632812 C 61.339844 47.414062 61.273438 47.164062 61.273438 46.886719 C 61.273438 46.609375 61.339844 46.363281 61.46875 46.140625 C 61.597656 45.921875 61.769531 45.75 61.992188 45.628906 C 62.214844 45.503906 62.457031 45.445312 62.71875 45.445312 C 62.984375 45.445312 63.226562 45.503906 63.449219 45.628906 C 63.671875 45.753906 63.84375 45.925781 63.96875 46.144531 C 64.097656 46.363281 64.160156 46.609375 64.160156 46.886719 C 64.160156 47.164062 64.097656 47.414062 63.96875 47.632812 C 63.84375 47.855469 63.667969 48.027344 63.449219 48.152344 C 63.230469 48.273438 62.984375 48.335938 62.71875 48.335938 C 62.457031 48.335938 62.214844 48.273438 61.992188 48.152344 " clip-rule="nonzero"/></clipPath><clipPath id="d1f6020b3b"><path d="M 64.527344 45.433594 L 67.4375 45.433594 L 67.4375 48.34375 L 64.527344 48.34375 Z M 64.527344 45.433594 " clip-rule="nonzero"/></clipPath><clipPath id="ee1c8a8c54"><path d="M 66.488281 47.804688 C 66.632812 47.71875 66.75 47.597656 66.832031 47.4375 C 66.914062 47.277344 66.953125 47.09375 66.953125 46.886719 C 66.953125 46.679688 66.914062 46.496094 66.832031 46.339844 C 66.75 46.179688 66.632812 46.058594 66.488281 45.976562 C 66.339844 45.890625 66.175781 45.847656 65.988281 45.847656 C 65.800781 45.847656 65.632812 45.890625 65.488281 45.976562 C 65.339844 46.058594 65.226562 46.179688 65.144531 46.339844 C 65.0625 46.496094 65.019531 46.679688 65.019531 46.886719 C 65.019531 47.09375 65.0625 47.28125 65.144531 47.4375 C 65.226562 47.597656 65.339844 47.71875 65.488281 47.804688 C 65.632812 47.890625 65.800781 47.933594 65.988281 47.933594 C 66.175781 47.933594 66.339844 47.890625 66.488281 47.804688 M 65.261719 48.148438 C 65.039062 48.027344 64.867188 47.851562 64.738281 47.632812 C 64.605469 47.414062 64.542969 47.164062 64.542969 46.886719 C 64.542969 46.609375 64.609375 46.363281 64.738281 46.140625 C 64.863281 45.921875 65.039062 45.75 65.261719 45.628906 C 65.484375 45.503906 65.722656 45.445312 65.988281 45.445312 C 66.253906 45.445312 66.496094 45.503906 66.71875 45.628906 C 66.9375 45.753906 67.113281 45.925781 67.238281 46.144531 C 67.367188 46.363281 67.429688 46.609375 67.429688 46.886719 C 67.429688 47.164062 67.367188 47.414062 67.238281 47.632812 C 67.113281 47.855469 66.9375 48.027344 66.71875 48.152344 C 66.496094 48.273438 66.253906 48.335938 65.988281 48.335938 C 65.722656 48.335938 65.484375 48.273438 65.261719 48.152344 " clip-rule="nonzero"/></clipPath><clipPath id="cac42f2c5d"><path d="M 67.960938 45.46875 L 69.398438 45.46875 L 69.398438 48.308594 L 67.960938 48.308594 Z M 67.960938 45.46875 " clip-rule="nonzero"/></clipPath><clipPath id="8ee4d0d90f"><path d="M 68.429688 47.933594 L 69.386719 47.933594 L 69.386719 48.304688 L 67.96875 48.304688 L 67.96875 45.480469 L 68.433594 45.480469 Z M 68.429688 47.933594 " clip-rule="nonzero"/></clipPath><clipPath id="10f3fc963b"><path d="M 13.566406 2.953125 L 75 2.953125 L 75 30.882812 L 13.566406 30.882812 Z M 13.566406 2.953125 " clip-rule="nonzero"/></clipPath><clipPath id="871654f0c5"><path d="M 68.230469 2.953125 L 68.230469 20.261719 L 56.855469 2.953125 L 50.050781 2.953125 L 50.050781 30.882812 L 56.855469 30.882812 L 56.855469 13.652344 L 68.234375 30.882812 L 75.039062 30.882812 L 75.039062 2.953125 Z M 46.546875 11.941406 C 46.546875 6.8125 43.128906 2.953125 36.28125 2.953125 L 25.261719 2.953125 L 25.261719 30.882812 L 32.066406 30.882812 L 32.066406 20.855469 L 36.285156 20.855469 C 43.40625 20.855469 46.550781 16.558594 46.550781 11.941406 M 32.066406 15.445312 L 32.066406 8.441406 L 35.765625 8.441406 C 38.472656 8.441406 39.625 9.792969 39.625 11.941406 C 39.625 14.09375 38.472656 15.445312 35.765625 15.445312 Z M 13.566406 30.882812 L 20.371094 30.882812 L 20.371094 2.953125 L 13.566406 2.953125 Z M 13.566406 30.882812 " clip-rule="nonzero"/></clipPath><clipPath id="63f7c08450"><path d="M 71.441406 35.347656 L 74.9375 35.347656 L 74.9375 39.605469 L 71.441406 39.605469 Z M 71.441406 35.347656 " clip-rule="nonzero"/></clipPath><clipPath id="cfef3cd98a"><path d="M 74.925781 39.59375 L 74.230469 39.59375 L 72.140625 36.429688 L 72.140625 39.59375 L 71.441406 39.59375 L 71.441406 35.347656 L 72.140625 35.347656 L 74.230469 38.507812 L 74.230469 35.347656 L 74.925781 35.347656 Z M 74.925781 39.59375 " clip-rule="nonzero"/></clipPath><clipPath id="525cca17d5"><path d="M 70.992188 45.480469 L 71.453125 45.480469 L 71.453125 47.933594 L 70.992188 47.933594 Z M 70.992188 47.933594 L 72.410156 47.933594 L 72.410156 48.304688 L 70.992188 48.304688 Z M 70.992188 47.933594 " clip-rule="nonzero"/></clipPath><clipPath id="bd2a31160f"><path d="M 72.878906 45.476562 L 74.4375 45.476562 L 74.4375 45.855469 L 72.878906 45.855469 Z M 72.878906 45.855469 L 73.34375 45.855469 L 73.34375 46.683594 L 72.878906 46.683594 Z M 72.878906 46.683594 L 74.320312 46.683594 L 74.320312 47.0625 L 72.878906 47.0625 Z M 72.878906 47.0625 L 73.34375 47.0625 L 73.34375 47.929688 L 72.878906 47.929688 Z M 72.878906 47.929688 L 74.441406 47.929688 L 74.441406 48.304688 L 72.878906 48.304688 Z M 72.878906 47.929688 " clip-rule="nonzero"/></clipPath><clipPath id="7ef0ba4ab2"><path d="M 74.921875 45.46875 L 77.492188 45.46875 L 77.492188 48.308594 L 74.921875 48.308594 Z M 74.921875 45.46875 " clip-rule="nonzero"/></clipPath><clipPath id="8ed3cdc403"><path d="M 76.664062 47.351562 L 76.203125 46.039062 L 75.738281 47.351562 Z M 76.792969 47.730469 L 75.609375 47.730469 L 75.40625 48.308594 L 74.921875 48.308594 L 75.9375 45.476562 L 76.472656 45.476562 L 77.484375 48.308594 L 76.996094 48.308594 Z M 76.792969 47.730469 " clip-rule="nonzero"/></clipPath><clipPath id="25a1f70acf"><path d="M 78 45.46875 L 80.433594 45.46875 L 80.433594 48.308594 L 78 48.308594 Z M 78 45.46875 " clip-rule="nonzero"/></clipPath><clipPath id="f558a04ea1"><path d="M 79.6875 47.660156 C 79.863281 47.480469 79.953125 47.230469 79.953125 46.90625 C 79.953125 46.578125 79.867188 46.320312 79.6875 46.136719 C 79.511719 45.953125 79.257812 45.859375 78.929688 45.859375 L 78.46875 45.859375 L 78.46875 47.929688 L 78.929688 47.929688 C 79.257812 47.929688 79.511719 47.839844 79.6875 47.660156 M 79.71875 45.65625 C 79.945312 45.769531 80.121094 45.933594 80.242188 46.152344 C 80.367188 46.367188 80.429688 46.617188 80.429688 46.90625 C 80.429688 47.191406 80.367188 47.441406 80.242188 47.652344 C 80.121094 47.863281 79.945312 48.027344 79.71875 48.140625 C 79.492188 48.25 79.230469 48.308594 78.929688 48.308594 L 78.003906 48.308594 L 78.003906 45.480469 L 78.929688 45.480469 C 79.230469 45.480469 79.492188 45.539062 79.71875 45.652344 " clip-rule="nonzero"/></clipPath><clipPath id="822d3c7d98"><path d="M 80.96875 45.476562 L 82.53125 45.476562 L 82.53125 45.855469 L 80.96875 45.855469 Z M 80.96875 45.855469 L 81.433594 45.855469 L 81.433594 46.683594 L 80.96875 46.683594 Z M 80.96875 46.683594 L 82.410156 46.683594 L 82.410156 47.0625 L 80.96875 47.0625 Z M 80.96875 47.0625 L 81.433594 47.0625 L 81.433594 47.929688 L 80.96875 47.929688 Z M 80.96875 47.929688 L 82.53125 47.929688 L 82.53125 48.304688 L 80.96875 48.304688 Z M 80.96875 47.929688 " clip-rule="nonzero"/></clipPath><clipPath id="14a7ea17f8"><path d="M 83.171875 45.46875 L 85.203125 45.46875 L 85.203125 48.308594 L 83.171875 48.308594 Z M 83.171875 45.46875 " clip-rule="nonzero"/></clipPath><clipPath id="7cce94ff2a"><path d="M 83.644531 46.804688 L 84.15625 46.804688 C 84.332031 46.804688 84.460938 46.761719 84.550781 46.675781 C 84.636719 46.589844 84.679688 46.472656 84.679688 46.328125 C 84.679688 46.179688 84.636719 46.066406 84.550781 45.984375 C 84.464844 45.898438 84.332031 45.859375 84.15625 45.859375 L 83.644531 45.859375 Z M 84.648438 48.304688 L 83.996094 47.175781 L 83.644531 47.175781 L 83.644531 48.304688 L 83.179688 48.304688 L 83.179688 45.480469 L 84.15625 45.480469 C 84.375 45.480469 84.558594 45.515625 84.707031 45.59375 C 84.855469 45.667969 84.96875 45.773438 85.046875 45.898438 C 85.121094 46.023438 85.15625 46.167969 85.15625 46.324219 C 85.15625 46.507812 85.105469 46.675781 84.996094 46.828125 C 84.886719 46.976562 84.722656 47.078125 84.503906 47.132812 L 85.203125 48.304688 Z M 84.648438 48.304688 " clip-rule="nonzero"/></clipPath><clipPath id="ba208054f4"><path d="M 85.761719 45.433594 L 87.738281 45.433594 L 87.738281 48.34375 L 85.761719 48.34375 Z M 85.761719 45.433594 " clip-rule="nonzero"/></clipPath><clipPath id="426afad872"><path d="M 86.25 48.234375 C 86.101562 48.167969 85.980469 48.074219 85.894531 47.953125 C 85.808594 47.832031 85.765625 47.6875 85.765625 47.527344 L 86.261719 47.527344 C 86.269531 47.648438 86.320312 47.75 86.402344 47.828125 C 86.488281 47.90625 86.609375 47.945312 86.761719 47.945312 C 86.921875 47.945312 87.046875 47.90625 87.136719 47.832031 C 87.226562 47.753906 87.269531 47.652344 87.269531 47.53125 C 87.269531 47.4375 87.242188 47.359375 87.1875 47.300781 C 87.132812 47.242188 87.0625 47.191406 86.980469 47.160156 C 86.898438 47.128906 86.78125 47.09375 86.636719 47.058594 C 86.453125 47.007812 86.304688 46.957031 86.1875 46.910156 C 86.074219 46.859375 85.972656 46.78125 85.894531 46.675781 C 85.8125 46.566406 85.769531 46.425781 85.769531 46.25 C 85.769531 46.089844 85.8125 45.945312 85.894531 45.824219 C 85.976562 45.703125 86.089844 45.609375 86.234375 45.542969 C 86.382812 45.480469 86.550781 45.445312 86.742188 45.445312 C 87.015625 45.445312 87.238281 45.515625 87.414062 45.652344 C 87.589844 45.789062 87.6875 45.976562 87.707031 46.214844 L 87.195312 46.214844 C 87.1875 46.113281 87.136719 46.023438 87.046875 45.953125 C 86.957031 45.878906 86.839844 45.84375 86.695312 45.84375 C 86.558594 45.84375 86.453125 45.875 86.367188 45.945312 C 86.285156 46.011719 86.242188 46.109375 86.242188 46.238281 C 86.242188 46.324219 86.269531 46.394531 86.320312 46.449219 C 86.375 46.503906 86.441406 46.550781 86.523438 46.582031 C 86.601562 46.613281 86.714844 46.648438 86.855469 46.6875 C 87.042969 46.742188 87.195312 46.792969 87.3125 46.84375 C 87.429688 46.894531 87.53125 46.976562 87.613281 47.082031 C 87.695312 47.1875 87.738281 47.332031 87.738281 47.511719 C 87.738281 47.65625 87.699219 47.789062 87.621094 47.917969 C 87.542969 48.046875 87.429688 48.148438 87.285156 48.226562 C 87.136719 48.304688 86.960938 48.339844 86.761719 48.339844 C 86.570312 48.339844 86.402344 48.308594 86.25 48.242188 " clip-rule="nonzero"/></clipPath></defs><g clip-path="url(#f26cd56269)"><path fill="#ffffff" d="M 13.675781 35.355469 L 16.171875 35.355469 L 16.171875 39.59375 L 13.675781 39.59375 Z M 13.675781 35.355469 " fill-opacity="1" fill-rule="nonzero"/></g><g clip-path="url(#59927605d9)"><g clip-path="url(#216053069e)"><path fill="#ffffff" d="M 0.0507812 44.726562 L 16.992188 44.726562 L 16.992188 49.054688 L 0.0507812 49.054688 Z M 0.0507812 44.726562 " fill-opacity="1" fill-rule="nonzero"/></g></g><g clip-path="url(#7dadd5a2d5)"><path fill="#ffffff" d="M 0.0507812 44.726562 L 16.992188 44.726562 L 16.992188 49.054688 L 0.0507812 49.054688 Z M 0.0507812 44.726562 " fill-opacity="1" fill-rule="nonzero"/></g><g clip-path="url(#fc48b8ca8a)"><g clip-path="url(#423fe9dd87)"><path fill="#ffffff" d="M 0.0507812 44.726562 L 16.992188 44.726562 L 16.992188 49.054688 L 0.0507812 49.054688 Z M 0.0507812 44.726562 " fill-opacity="1" fill-rule="nonzero"/></g></g><g clip-path="url(#cafbe9a939)"><g clip-path="url(#dfbf15f4ba)"><path fill="#ffffff" d="M 0.0507812 44.726562 L 16.992188 44.726562 L 16.992188 49.054688 L 0.0507812 49.054688 Z M 0.0507812 44.726562 " fill-opacity="1" fill-rule="nonzero"/></g></g><g clip-path="url(#87adc4a66a)"><g clip-path="url(#59ccd65ddf)"><path fill="#ffffff" d="M 0.0507812 44.726562 L 16.992188 44.726562 L 16.992188 49.054688 L 0.0507812 49.054688 Z M 0.0507812 44.726562 " fill-opacity="1" fill-rule="nonzero"/></g></g><g clip-path="url(#f1b800d35c)"><path fill="#ffffff" d="M 0.0507812 44.726562 L 16.992188 44.726562 L 16.992188 49.054688 L 0.0507812 49.054688 Z M 0.0507812 44.726562 " fill-opacity="1" fill-rule="nonzero"/></g><g clip-path="url(#d17b6ff9eb)"><g clip-path="url(#5a71e09263)"><path fill="#ffffff" d="M 19.121094 35.300781 L 23.453125 35.300781 L 23.453125 39.628906 L 19.121094 39.628906 Z M 19.121094 35.300781 " fill-opacity="1" fill-rule="nonzero"/></g></g><g clip-path="url(#f64c515723)"><g clip-path="url(#e9935d4cb6)"><path fill="#ffffff" d="M 26.667969 35.355469 L 29.976562 35.355469 L 29.976562 39.636719 L 26.667969 39.636719 Z M 26.667969 35.355469 " fill-opacity="1" fill-rule="nonzero"/></g></g><g clip-path="url(#7ef57e1d87)"><g clip-path="url(#94cae22c89)"><path fill="#ffffff" d="M 33.417969 35.347656 L 36.898438 35.347656 L 36.898438 39.59375 L 33.417969 39.59375 Z M 33.417969 35.347656 " fill-opacity="1" fill-rule="nonzero"/></g></g><g clip-path="url(#09cc534cb4)"><g clip-path="url(#f8f3d99110)"><path fill="#ffffff" d="M 40.351562 35.355469 L 43.988281 35.355469 L 43.988281 39.601562 L 40.351562 39.601562 Z M 40.351562 35.355469 " fill-opacity="1" fill-rule="nonzero"/></g></g><g clip-path="url(#65ae7e1d33)"><g clip-path="url(#b35b9f9ebc)"><path fill="#ffffff" d="M 17.011719 44.726562 L 45.0625 44.726562 L 45.0625 49.054688 L 17.011719 49.054688 Z M 17.011719 44.726562 " fill-opacity="1" fill-rule="nonzero"/></g></g><g clip-path="url(#129bbf0d57)"><g clip-path="url(#5649dd158b)"><path fill="#ffffff" d="M 17.011719 44.726562 L 45.0625 44.726562 L 45.0625 49.054688 L 17.011719 49.054688 Z M 17.011719 44.726562 " fill-opacity="1" fill-rule="nonzero"/></g></g><g clip-path="url(#53c7682b33)"><g clip-path="url(#b16011a632)"><path fill="#ffffff" d="M 17.011719 44.726562 L 45.0625 44.726562 L 45.0625 49.054688 L 17.011719 49.054688 Z M 17.011719 44.726562 " fill-opacity="1" fill-rule="nonzero"/></g></g><g clip-path="url(#11429cfeb9)"><path fill="#ffffff" d="M 17.011719 44.726562 L 45.0625 44.726562 L 45.0625 49.054688 L 17.011719 49.054688 Z M 17.011719 44.726562 " fill-opacity="1" fill-rule="nonzero"/></g><g clip-path="url(#da4dfc6343)"><path fill="#ffffff" d="M 17.011719 44.726562 L 45.0625 44.726562 L 45.0625 49.054688 L 17.011719 49.054688 Z M 17.011719 44.726562 " fill-opacity="1" fill-rule="nonzero"/></g><g clip-path="url(#977ad78371)"><g clip-path="url(#b06f3d5921)"><path fill="#ffffff" d="M 17.011719 44.726562 L 45.0625 44.726562 L 45.0625 49.054688 L 17.011719 49.054688 Z M 17.011719 44.726562 " fill-opacity="1" fill-rule="nonzero"/></g></g><g clip-path="url(#ff2d5df09f)"><path fill="#ffffff" d="M 17.011719 44.726562 L 45.0625 44.726562 L 45.0625 49.054688 L 17.011719 49.054688 Z M 17.011719 44.726562 " fill-opacity="1" fill-rule="nonzero"/></g><g clip-path="url(#60d8eaca2f)"><g clip-path="url(#7c3431145a)"><path fill="#ffffff" d="M 17.011719 44.726562 L 45.0625 44.726562 L 45.0625 49.054688 L 17.011719 49.054688 Z M 17.011719 44.726562 " fill-opacity="1" fill-rule="nonzero"/></g></g><g clip-path="url(#1283f37bf6)"><g clip-path="url(#b25a1bac1d)"><path fill="#ffffff" d="M 17.011719 44.726562 L 45.0625 44.726562 L 45.0625 49.054688 L 17.011719 49.054688 Z M 17.011719 44.726562 " fill-opacity="1" fill-rule="nonzero"/></g></g><g clip-path="url(#d4f7fd49aa)"><path fill="#ffffff" d="M 17.011719 44.726562 L 45.0625 44.726562 L 45.0625 49.054688 L 17.011719 49.054688 Z M 17.011719 44.726562 " fill-opacity="1" fill-rule="nonzero"/></g><g clip-path="url(#3feb15d6c8)"><g clip-path="url(#92721366ef)"><path fill="#ffffff" d="M 46.960938 35.347656 L 50.804688 35.347656 L 50.804688 39.597656 L 46.960938 39.597656 Z M 46.960938 35.347656 " fill-opacity="1" fill-rule="nonzero"/></g></g><g clip-path="url(#bb3170e302)"><g clip-path="url(#f6f14b4e82)"><path fill="#ffffff" d="M 45.265625 44.726562 L 51.789062 44.726562 L 51.789062 49.054688 L 45.265625 49.054688 Z M 45.265625 44.726562 " fill-opacity="1" fill-rule="nonzero"/></g></g><g clip-path="url(#73b7235303)"><path fill="#ffffff" d="M 45.265625 44.726562 L 51.789062 44.726562 L 51.789062 49.054688 L 45.265625 49.054688 Z M 45.265625 44.726562 " fill-opacity="1" fill-rule="nonzero"/></g><g clip-path="url(#523dd4ef66)"><path fill="#ffffff" d="M 53.78125 35.355469 L 56.738281 35.355469 L 56.738281 39.597656 L 53.78125 39.597656 Z M 53.78125 35.355469 " fill-opacity="1" fill-rule="nonzero"/></g><g clip-path="url(#e34222df31)"><path fill="#ffffff" d="M 59.976562 35.355469 L 60.671875 35.355469 L 60.671875 39.59375 L 59.976562 39.59375 Z M 59.976562 35.355469 " fill-opacity="1" fill-rule="nonzero"/></g><g clip-path="url(#ccba7ef243)"><g clip-path="url(#8d5617ae5c)"><path fill="#ffffff" d="M 63.894531 35.300781 L 68.222656 35.300781 L 68.222656 39.628906 L 63.894531 39.628906 Z M 63.894531 35.300781 " fill-opacity="1" fill-rule="nonzero"/></g></g><g clip-path="url(#7fb848774b)"><g clip-path="url(#be773f9f57)"><path fill="#ffffff" d="M 51.933594 44.726562 L 70.109375 44.726562 L 70.109375 49.054688 L 51.933594 49.054688 Z M 51.933594 44.726562 " fill-opacity="1" fill-rule="nonzero"/></g></g><g clip-path="url(#c355780b94)"><g clip-path="url(#7927fff20c)"><path fill="#ffffff" d="M 51.933594 44.726562 L 70.109375 44.726562 L 70.109375 49.054688 L 51.933594 49.054688 Z M 51.933594 44.726562 " fill-opacity="1" fill-rule="nonzero"/></g></g><g clip-path="url(#f1cabf0ce4)"><path fill="#ffffff" d="M 51.933594 44.726562 L 70.109375 44.726562 L 70.109375 49.054688 L 51.933594 49.054688 Z M 51.933594 44.726562 " fill-opacity="1" fill-rule="nonzero"/></g><g clip-path="url(#a8d9a7309f)"><g clip-path="url(#7fe27853c8)"><path fill="#ffffff" d="M 51.933594 44.726562 L 70.109375 44.726562 L 70.109375 49.054688 L 51.933594 49.054688 Z M 51.933594 44.726562 " fill-opacity="1" fill-rule="nonzero"/></g></g><g clip-path="url(#d1f6020b3b)"><g clip-path="url(#ee1c8a8c54)"><path fill="#ffffff" d="M 51.933594 44.726562 L 70.109375 44.726562 L 70.109375 49.054688 L 51.933594 49.054688 Z M 51.933594 44.726562 " fill-opacity="1" fill-rule="nonzero"/></g></g><g clip-path="url(#cac42f2c5d)"><g clip-path="url(#8ee4d0d90f)"><path fill="#ffffff" d="M 51.933594 44.726562 L 70.109375 44.726562 L 70.109375 49.054688 L 51.933594 49.054688 Z M 51.933594 44.726562 " fill-opacity="1" fill-rule="nonzero"/></g></g><g clip-path="url(#10f3fc963b)"><g clip-path="url(#871654f0c5)"><path fill="#ff7e39" d="M 13.566406 2.953125 L 74.992188 2.953125 L 74.992188 30.882812 L 13.566406 30.882812 Z M 13.566406 2.953125 " fill-opacity="1" fill-rule="nonzero"/></g></g><g clip-path="url(#63f7c08450)"><g clip-path="url(#cfef3cd98a)"><path fill="#ffffff" d="M 71.441406 35.347656 L 74.925781 35.347656 L 74.925781 39.59375 L 71.441406 39.59375 Z M 71.441406 35.347656 " fill-opacity="1" fill-rule="nonzero"/></g></g><g clip-path="url(#525cca17d5)"><path fill="#ffffff" d="M 70.273438 44.726562 L 88.464844 44.726562 L 88.464844 49.054688 L 70.273438 49.054688 Z M 70.273438 44.726562 " fill-opacity="1" fill-rule="nonzero"/></g><g clip-path="url(#bd2a31160f)"><path fill="#ffffff" d="M 70.273438 44.726562 L 88.464844 44.726562 L 88.464844 49.054688 L 70.273438 49.054688 Z M 70.273438 44.726562 " fill-opacity="1" fill-rule="nonzero"/></g><g clip-path="url(#7ef0ba4ab2)"><g clip-path="url(#8ed3cdc403)"><path fill="#ffffff" d="M 70.273438 44.726562 L 88.464844 44.726562 L 88.464844 49.054688 L 70.273438 49.054688 Z M 70.273438 44.726562 " fill-opacity="1" fill-rule="nonzero"/></g></g><g clip-path="url(#25a1f70acf)"><g clip-path="url(#f558a04ea1)"><path fill="#ffffff" d="M 70.273438 44.726562 L 88.464844 44.726562 L 88.464844 49.054688 L 70.273438 49.054688 Z M 70.273438 44.726562 " fill-opacity="1" fill-rule="nonzero"/></g></g><g clip-path="url(#822d3c7d98)"><path fill="#ffffff" d="M 70.273438 44.726562 L 88.464844 44.726562 L 88.464844 49.054688 L 70.273438 49.054688 Z M 70.273438 44.726562 " fill-opacity="1" fill-rule="nonzero"/></g><g clip-path="url(#14a7ea17f8)"><g clip-path="url(#7cce94ff2a)"><path fill="#ffffff" d="M 70.273438 44.726562 L 88.464844 44.726562 L 88.464844 49.054688 L 70.273438 49.054688 Z M 70.273438 44.726562 " fill-opacity="1" fill-rule="nonzero"/></g></g><g clip-path="url(#ba208054f4)"><g clip-path="url(#426afad872)"><path fill="#ffffff" d="M 70.273438 44.726562 L 88.464844 44.726562 L 88.464844 49.054688 L 70.273438 49.054688 Z M 70.273438 44.726562 " fill-opacity="1" fill-rule="nonzero"/></g></g></svg>