<svg xmlns="http://www.w3.org/2000/svg" xmlns:xlink="http://www.w3.org/1999/xlink" width="536" zoomAndPan="magnify" viewBox="0 0 402 179.999997" height="240" preserveAspectRatio="xMidYMid meet" version="1.0"><defs><g/></defs><g fill="#e3b655" fill-opacity="1"><g transform="translate(234.344746, 177.537545)"><g><path d="M 23.984375 -48.125 C 30.753906 -48.125 35.957031 -46.03125 39.59375 -41.84375 C 43.226562 -37.664062 45.046875 -31.691406 45.046875 -23.921875 C 45.046875 -16.109375 43.226562 -10.109375 39.59375 -5.921875 C 35.957031 -1.742188 30.753906 0.34375 23.984375 0.34375 C 17.171875 0.34375 11.9375 -1.742188 8.28125 -5.921875 C 4.625 -10.109375 2.796875 -16.109375 2.796875 -23.921875 C 2.796875 -31.691406 4.625 -37.664062 8.28125 -41.84375 C 11.9375 -46.03125 17.171875 -48.125 23.984375 -48.125 Z M 23.984375 -39.265625 C 20.898438 -39.265625 18.675781 -38.070312 17.3125 -35.6875 C 15.945312 -33.300781 15.265625 -29.378906 15.265625 -23.921875 C 15.265625 -18.472656 15.945312 -14.539062 17.3125 -12.125 C 18.675781 -9.71875 20.898438 -8.515625 23.984375 -8.515625 C 26.984375 -8.515625 29.175781 -9.726562 30.5625 -12.15625 C 31.945312 -14.59375 32.640625 -18.515625 32.640625 -23.921875 C 32.640625 -29.328125 31.945312 -33.234375 30.5625 -35.640625 C 29.175781 -38.054688 26.984375 -39.265625 23.984375 -39.265625 Z M 23.984375 -39.265625 "/></g></g></g><g fill="#000000" fill-opacity="1"><g transform="translate(14.306797, 145.801903)"><g><path d="M 23.59375 -56.421875 C 26.5625 -56.421875 28.96875 -56.144531 30.8125 -55.59375 C 32.664062 -55.050781 34.476562 -54.285156 36.25 -53.296875 C 36.820312 -52.984375 37.328125 -52.722656 37.765625 -52.515625 C 38.210938 -52.304688 38.597656 -52.203125 38.921875 -52.203125 C 39.390625 -52.203125 39.753906 -52.472656 40.015625 -53.015625 C 40.273438 -53.566406 40.484375 -54.441406 40.640625 -55.640625 L 42.4375 -55.640625 C 42.175781 -51.890625 42.046875 -45.53125 42.046875 -36.5625 L 40.25 -36.5625 C 40.039062 -39.539062 39.359375 -42.382812 38.203125 -45.09375 C 37.054688 -47.800781 35.492188 -50.015625 33.515625 -51.734375 C 31.535156 -53.453125 29.242188 -54.3125 26.640625 -54.3125 C 24.242188 -54.3125 22.316406 -53.671875 20.859375 -52.390625 C 19.398438 -51.117188 18.671875 -49.335938 18.671875 -47.046875 C 18.671875 -45.273438 19.0625 -43.738281 19.84375 -42.4375 C 20.625 -41.132812 21.769531 -39.867188 23.28125 -38.640625 C 24.789062 -37.410156 27.265625 -35.597656 30.703125 -33.203125 C 31.015625 -33.046875 31.3125 -32.863281 31.59375 -32.65625 C 31.882812 -32.445312 32.160156 -32.238281 32.421875 -32.03125 C 35.285156 -30.050781 37.578125 -28.289062 39.296875 -26.75 C 41.023438 -25.21875 42.421875 -23.4375 43.484375 -21.40625 C 44.554688 -19.375 45.09375 -17.03125 45.09375 -14.375 C 45.09375 -10.988281 44.140625 -8.132812 42.234375 -5.8125 C 40.335938 -3.5 37.769531 -1.769531 34.53125 -0.625 C 31.300781 0.519531 27.734375 1.09375 23.828125 1.09375 C 20.648438 1.09375 18.003906 0.832031 15.890625 0.3125 C 13.785156 -0.207031 11.820312 -0.910156 10 -1.796875 C 8.851562 -2.523438 7.96875 -2.890625 7.34375 -2.890625 C 6.875 -2.890625 6.507812 -2.613281 6.25 -2.0625 C 5.988281 -1.519531 5.78125 -0.648438 5.625 0.546875 L 3.828125 0.546875 C 4.035156 -2.992188 4.140625 -10.546875 4.140625 -22.109375 L 5.9375 -22.109375 C 6.300781 -15.910156 7.601562 -10.882812 9.84375 -7.03125 C 12.082031 -3.175781 15.519531 -1.25 20.15625 -1.25 C 23.019531 -1.25 25.296875 -1.925781 26.984375 -3.28125 C 28.679688 -4.632812 29.53125 -6.507812 29.53125 -8.90625 C 29.53125 -11.875 28.601562 -14.410156 26.75 -16.515625 C 24.90625 -18.628906 22.03125 -20.988281 18.125 -23.59375 C 15 -25.675781 12.5 -27.5 10.625 -29.0625 C 8.75 -30.625 7.210938 -32.429688 6.015625 -34.484375 C 4.816406 -36.546875 4.21875 -38.9375 4.21875 -41.65625 C 4.21875 -44.9375 5.101562 -47.679688 6.875 -49.890625 C 8.644531 -52.109375 11 -53.75 13.9375 -54.8125 C 16.882812 -55.882812 20.101562 -56.421875 23.59375 -56.421875 Z M 23.59375 -56.421875 "/></g></g></g><g fill="#000000" fill-opacity="1"><g transform="translate(62.204579, 145.801903)"><g><path d="M 53.21875 -53.765625 C 51.601562 -53.398438 50.40625 -52.835938 49.625 -52.078125 C 48.84375 -51.328125 48.320312 -50.171875 48.0625 -48.609375 C 47.800781 -47.046875 47.671875 -44.703125 47.671875 -41.578125 L 47.671875 -22.734375 C 47.671875 -15.234375 46.601562 -9.710938 44.46875 -6.171875 C 43.0625 -3.828125 40.988281 -2.03125 38.25 -0.78125 C 35.507812 0.46875 31.976562 1.09375 27.65625 1.09375 C 21.351562 1.09375 16.457031 -0.15625 12.96875 -2.65625 C 10.414062 -4.476562 8.707031 -6.925781 7.84375 -10 C 6.988281 -13.070312 6.5625 -17.238281 6.5625 -22.5 L 6.5625 -47.046875 C 6.5625 -49.023438 6.429688 -50.457031 6.171875 -51.34375 C 5.910156 -52.226562 5.398438 -52.828125 4.640625 -53.140625 C 3.890625 -53.453125 2.679688 -53.660156 1.015625 -53.765625 L 1.015625 -55.328125 C 3.984375 -55.171875 8.566406 -55.09375 14.765625 -55.09375 C 20.910156 -55.09375 25.570312 -55.171875 28.75 -55.328125 L 28.75 -53.765625 C 26.875 -53.660156 25.503906 -53.453125 24.640625 -53.140625 C 23.785156 -52.828125 23.203125 -52.226562 22.890625 -51.34375 C 22.578125 -50.457031 22.421875 -49.023438 22.421875 -47.046875 L 22.421875 -15.15625 C 22.421875 -10.15625 23.203125 -6.648438 24.765625 -4.640625 C 26.328125 -2.640625 28.800781 -1.640625 32.1875 -1.640625 C 37.144531 -1.640625 40.664062 -3.394531 42.75 -6.90625 C 44.832031 -10.425781 45.875 -15.414062 45.875 -21.875 L 45.875 -40.015625 C 45.875 -43.867188 45.71875 -46.640625 45.40625 -48.328125 C 45.09375 -50.023438 44.398438 -51.265625 43.328125 -52.046875 C 42.265625 -52.828125 40.476562 -53.398438 37.96875 -53.765625 L 37.96875 -55.328125 C 40.113281 -55.171875 43.035156 -55.09375 46.734375 -55.09375 C 49.492188 -55.09375 51.65625 -55.171875 53.21875 -55.328125 Z M 53.21875 -53.765625 "/></g></g></g><g fill="#000000" fill-opacity="1"><g transform="translate(116.353295, 145.801903)"><g><path d="M 73.21875 -53.765625 C 71.550781 -53.660156 70.335938 -53.453125 69.578125 -53.140625 C 68.828125 -52.828125 68.320312 -52.226562 68.0625 -51.34375 C 67.800781 -50.457031 67.671875 -49.023438 67.671875 -47.046875 L 67.671875 -8.28125 C 67.671875 -6.300781 67.8125 -4.867188 68.09375 -3.984375 C 68.382812 -3.097656 68.894531 -2.5 69.625 -2.1875 C 70.351562 -1.875 71.550781 -1.664062 73.21875 -1.5625 L 73.21875 0 C 70.039062 -0.15625 65.429688 -0.234375 59.390625 -0.234375 C 53.085938 -0.234375 48.453125 -0.15625 45.484375 0 L 45.484375 -1.5625 C 47.359375 -1.664062 48.722656 -1.875 49.578125 -2.1875 C 50.441406 -2.5 51.03125 -3.097656 51.34375 -3.984375 C 51.65625 -4.867188 51.8125 -6.300781 51.8125 -8.28125 L 51.8125 -48.21875 L 32.96875 -0.078125 L 31.71875 -0.078125 L 9.6875 -50.25 L 9.6875 -15.3125 C 9.6875 -11.457031 9.84375 -8.679688 10.15625 -6.984375 C 10.46875 -5.296875 11.15625 -4.0625 12.21875 -3.28125 C 13.289062 -2.5 15.078125 -1.925781 17.578125 -1.5625 L 17.578125 0 C 15.441406 -0.15625 12.523438 -0.234375 8.828125 -0.234375 C 6.066406 -0.234375 3.90625 -0.15625 2.34375 0 L 2.34375 -1.5625 C 3.957031 -1.925781 5.15625 -2.484375 5.9375 -3.234375 C 6.71875 -3.992188 7.238281 -5.15625 7.5 -6.71875 C 7.757812 -8.28125 7.890625 -10.625 7.890625 -13.75 L 7.890625 -47.046875 C 7.890625 -49.023438 7.742188 -50.457031 7.453125 -51.34375 C 7.171875 -52.226562 6.664062 -52.828125 5.9375 -53.140625 C 5.207031 -53.453125 4.007812 -53.660156 2.34375 -53.765625 L 2.34375 -55.328125 C 3.90625 -55.171875 6.066406 -55.09375 8.828125 -55.09375 C 15.078125 -55.09375 20.46875 -55.171875 25 -55.328125 L 39.78125 -22.109375 L 52.59375 -55.09375 L 59.390625 -55.09375 C 65.429688 -55.09375 70.039062 -55.171875 73.21875 -55.328125 Z M 73.21875 -53.765625 "/></g></g></g><g fill="#000000" fill-opacity="1"><g transform="translate(191.755181, 145.801903)"><g><path d="M 73.21875 -53.765625 C 71.550781 -53.660156 70.335938 -53.453125 69.578125 -53.140625 C 68.828125 -52.828125 68.320312 -52.226562 68.0625 -51.34375 C 67.800781 -50.457031 67.671875 -49.023438 67.671875 -47.046875 L 67.671875 -8.28125 C 67.671875 -6.300781 67.8125 -4.867188 68.09375 -3.984375 C 68.382812 -3.097656 68.894531 -2.5 69.625 -2.1875 C 70.351562 -1.875 71.550781 -1.664062 73.21875 -1.5625 L 73.21875 0 C 70.039062 -0.15625 65.429688 -0.234375 59.390625 -0.234375 C 53.085938 -0.234375 48.453125 -0.15625 45.484375 0 L 45.484375 -1.5625 C 47.359375 -1.664062 48.722656 -1.875 49.578125 -2.1875 C 50.441406 -2.5 51.03125 -3.097656 51.34375 -3.984375 C 51.65625 -4.867188 51.8125 -6.300781 51.8125 -8.28125 L 51.8125 -48.21875 L 32.96875 -0.078125 L 31.71875 -0.078125 L 9.6875 -50.25 L 9.6875 -15.3125 C 9.6875 -11.457031 9.84375 -8.679688 10.15625 -6.984375 C 10.46875 -5.296875 11.15625 -4.0625 12.21875 -3.28125 C 13.289062 -2.5 15.078125 -1.925781 17.578125 -1.5625 L 17.578125 0 C 15.441406 -0.15625 12.523438 -0.234375 8.828125 -0.234375 C 6.066406 -0.234375 3.90625 -0.15625 2.34375 0 L 2.34375 -1.5625 C 3.957031 -1.925781 5.15625 -2.484375 5.9375 -3.234375 C 6.71875 -3.992188 7.238281 -5.15625 7.5 -6.71875 C 7.757812 -8.28125 7.890625 -10.625 7.890625 -13.75 L 7.890625 -47.046875 C 7.890625 -49.023438 7.742188 -50.457031 7.453125 -51.34375 C 7.171875 -52.226562 6.664062 -52.828125 5.9375 -53.140625 C 5.207031 -53.453125 4.007812 -53.660156 2.34375 -53.765625 L 2.34375 -55.328125 C 3.90625 -55.171875 6.066406 -55.09375 8.828125 -55.09375 C 15.078125 -55.09375 20.46875 -55.171875 25 -55.328125 L 39.78125 -22.109375 L 52.59375 -55.09375 L 59.390625 -55.09375 C 65.429688 -55.09375 70.039062 -55.171875 73.21875 -55.328125 Z M 73.21875 -53.765625 "/></g></g></g><g fill="#000000" fill-opacity="1"><g transform="translate(267.157068, 145.801903)"><g><path d="M 29.140625 -53.765625 C 27.472656 -53.660156 26.257812 -53.453125 25.5 -53.140625 C 24.75 -52.828125 24.242188 -52.226562 23.984375 -51.34375 C 23.722656 -50.457031 23.59375 -49.023438 23.59375 -47.046875 L 23.59375 -8.28125 C 23.59375 -6.300781 23.734375 -4.867188 24.015625 -3.984375 C 24.304688 -3.097656 24.816406 -2.5 25.546875 -2.1875 C 26.273438 -1.875 27.472656 -1.664062 29.140625 -1.5625 L 29.140625 0 C 26.117188 -0.15625 21.769531 -0.234375 16.09375 -0.234375 C 9.789062 -0.234375 5.15625 -0.15625 2.1875 0 L 2.1875 -1.5625 C 3.851562 -1.664062 5.0625 -1.875 5.8125 -2.1875 C 6.570312 -2.5 7.082031 -3.097656 7.34375 -3.984375 C 7.601562 -4.867188 7.734375 -6.300781 7.734375 -8.28125 L 7.734375 -47.046875 C 7.734375 -49.023438 7.585938 -50.457031 7.296875 -51.34375 C 7.015625 -52.226562 6.507812 -52.828125 5.78125 -53.140625 C 5.050781 -53.453125 3.851562 -53.660156 2.1875 -53.765625 L 2.1875 -55.328125 C 5.15625 -55.171875 9.789062 -55.09375 16.09375 -55.09375 C 21.71875 -55.09375 26.066406 -55.171875 29.140625 -55.328125 Z M 29.140625 -53.765625 "/></g></g></g><g fill="#000000" fill-opacity="1"><g transform="translate(298.489858, 145.801903)"><g><path d="M 52.828125 -55.328125 C 52.460938 -49.546875 52.28125 -44.390625 52.28125 -39.859375 C 52.28125 -37.453125 52.359375 -35.570312 52.515625 -34.21875 L 50.71875 -34.21875 C 49 -41.050781 46.785156 -45.976562 44.078125 -49 C 41.367188 -52.019531 38.445312 -53.53125 35.3125 -53.53125 L 35.234375 -53.53125 L 35.234375 -8.828125 C 35.234375 -6.640625 35.453125 -5.050781 35.890625 -4.0625 C 36.335938 -3.070312 37.148438 -2.40625 38.328125 -2.0625 C 39.503906 -1.726562 41.367188 -1.5625 43.921875 -1.5625 L 43.921875 0 C 36.566406 -0.15625 30.859375 -0.234375 26.796875 -0.234375 C 23.097656 -0.234375 17.734375 -0.15625 10.703125 0 L 10.703125 -1.5625 C 13.253906 -1.5625 15.113281 -1.726562 16.28125 -2.0625 C 17.457031 -2.40625 18.265625 -3.070312 18.703125 -4.0625 C 19.148438 -5.050781 19.375 -6.640625 19.375 -8.828125 L 19.375 -53.53125 L 19.296875 -53.53125 C 16.117188 -53.53125 13.1875 -52.03125 10.5 -49.03125 C 7.820312 -46.039062 5.625 -41.101562 3.90625 -34.21875 L 2.109375 -34.21875 C 2.265625 -35.570312 2.34375 -37.453125 2.34375 -39.859375 C 2.34375 -44.390625 2.160156 -49.546875 1.796875 -55.328125 C 6.742188 -55.171875 15.257812 -55.09375 27.34375 -55.09375 C 39.382812 -55.09375 47.878906 -55.171875 52.828125 -55.328125 Z M 52.828125 -55.328125 "/></g></g></g><path stroke-linecap="round" transform="matrix(0.75, 0, 0, 0.75, 15.689532, 79.702862)" fill="none" stroke-linejoin="miter" d="M 1.502499 1.50035 L 449.523359 1.50035 " stroke="#000000" stroke-width="3" stroke-opacity="1" stroke-miterlimit="4"/><g fill="#e3b655" fill-opacity="1"><g transform="translate(188.97706, 178.169533)"><g><path d="M 21.984375 -50.859375 C 27.015625 -50.859375 31.132812 -49.648438 34.34375 -47.234375 C 37.550781 -44.816406 39.15625 -41.644531 39.15625 -37.71875 C 39.15625 -33.019531 35.992188 -27.441406 29.671875 -20.984375 L 19.46875 -10.125 L 40.65625 -10.125 L 40.65625 0 L 3.015625 0 L 3.015625 -8.265625 L 20.984375 -27.296875 C 24.191406 -30.648438 25.796875 -33.523438 25.796875 -35.921875 C 25.796875 -37.359375 25.289062 -38.484375 24.28125 -39.296875 C 23.28125 -40.109375 21.890625 -40.515625 20.109375 -40.515625 C 15.941406 -40.515625 11.367188 -38.382812 6.390625 -34.125 L 1.578125 -43.328125 C 8.285156 -48.347656 15.085938 -50.859375 21.984375 -50.859375 Z M 21.984375 -50.859375 "/></g></g></g><g fill="#e3b655" fill-opacity="1"><g transform="translate(232.084082, 178.169533)"><g/></g></g><g fill="#e3b655" fill-opacity="1"><g transform="translate(248.752129, 178.169533)"><g/></g></g><g fill="#e3b655" fill-opacity="1"><g transform="translate(265.420177, 178.169533)"><g/></g></g><g fill="#e3b655" fill-opacity="1"><g transform="translate(282.089303, 178.169533)"><g><path d="M 21.984375 -50.859375 C 27.015625 -50.859375 31.132812 -49.648438 34.34375 -47.234375 C 37.550781 -44.816406 39.15625 -41.644531 39.15625 -37.71875 C 39.15625 -33.019531 35.992188 -27.441406 29.671875 -20.984375 L 19.46875 -10.125 L 40.65625 -10.125 L 40.65625 0 L 3.015625 0 L 3.015625 -8.265625 L 20.984375 -27.296875 C 24.191406 -30.648438 25.796875 -33.523438 25.796875 -35.921875 C 25.796875 -37.359375 25.289062 -38.484375 24.28125 -39.296875 C 23.28125 -40.109375 21.890625 -40.515625 20.109375 -40.515625 C 15.941406 -40.515625 11.367188 -38.382812 6.390625 -34.125 L 1.578125 -43.328125 C 8.285156 -48.347656 15.085938 -50.859375 21.984375 -50.859375 Z M 21.984375 -50.859375 "/></g></g></g><g fill="#e3b655" fill-opacity="1"><g transform="translate(325.196316, 178.169533)"><g><path d="M 38.21875 -40.15625 L 16.890625 -40.15625 L 16.890625 -32.046875 L 21.40625 -32.046875 C 27.101562 -32.046875 31.703125 -30.644531 35.203125 -27.84375 C 38.703125 -25.039062 40.453125 -21.390625 40.453125 -16.890625 C 40.453125 -11.617188 38.628906 -7.398438 34.984375 -4.234375 C 31.347656 -1.078125 26.488281 0.5 20.40625 0.5 C 17.144531 0.5 13.753906 -0.0703125 10.234375 -1.21875 C 6.710938 -2.375 3.632812 -3.882812 1 -5.75 L 6.109375 -15.453125 C 9.941406 -11.328125 14.203125 -9.265625 18.890625 -9.265625 C 21.378906 -9.265625 23.304688 -9.847656 24.671875 -11.015625 C 26.035156 -12.191406 26.71875 -13.859375 26.71875 -16.015625 C 26.71875 -17.984375 26.035156 -19.515625 24.671875 -20.609375 C 23.304688 -21.710938 21.378906 -22.265625 18.890625 -22.265625 C 13.242188 -22.265625 8.695312 -22.144531 5.25 -21.90625 L 5.25 -50.296875 L 38.21875 -50.296875 Z M 38.21875 -40.15625 "/></g></g></g><g fill="#000000" fill-opacity="1"><g transform="translate(15.689532, 28.744781)"><g><path d="M 6.078125 -25.984375 L 8.296875 -25.984375 L 8.296875 0 L 6.078125 0 Z M 2.765625 -25.984375 L 4.96875 -25.984375 L 4.96875 0 L 2.765625 0 Z M 2.765625 -25.984375 "/></g></g></g><g fill="#000000" fill-opacity="1"><g transform="translate(26.931491, 28.744781)"><g><path d="M 8.546875 -25.984375 L 11.125 -25.984375 L 21.5625 -6.703125 L 21.5625 -25.984375 L 23.78125 -25.984375 L 23.78125 0 L 22.890625 0 Z M 8.296875 -19.984375 L 8.296875 0 L 6.078125 0 L 6.078125 -25.984375 L 7.1875 -25.984375 L 21.5625 0 L 19.125 0 Z M 24.875 -25.984375 L 27.09375 -25.984375 L 27.09375 0 L 24.875 0 Z M 2.765625 -25.984375 L 4.96875 -25.984375 L 4.96875 0 L 2.765625 0 Z M 2.765625 -25.984375 "/></g></g></g><g fill="#000000" fill-opacity="1"><g transform="translate(57.302954, 28.744781)"><g><path d="M 6.078125 -20.453125 L 4.96875 -20.453125 L 4.96875 0 L 2.765625 0 L 2.765625 -22.671875 L 13.15625 -22.671875 C 14.5625 -22.671875 15.890625 -22.414062 17.140625 -21.90625 C 18.390625 -21.40625 19.472656 -20.71875 20.390625 -19.84375 C 21.316406 -18.976562 22.050781 -17.953125 22.59375 -16.765625 C 23.132812 -15.585938 23.40625 -14.320312 23.40625 -12.96875 C 23.40625 -11.625 23.132812 -10.359375 22.59375 -9.171875 C 22.050781 -7.992188 21.316406 -6.972656 20.390625 -6.109375 C 19.472656 -5.253906 18.390625 -4.570312 17.140625 -4.0625 C 15.890625 -3.5625 14.5625 -3.3125 13.15625 -3.3125 L 8.296875 -3.3125 L 8.296875 -2.21875 L 13.15625 -2.21875 C 14.726562 -2.21875 16.203125 -2.492188 17.578125 -3.046875 C 18.953125 -3.597656 20.15625 -4.359375 21.1875 -5.328125 C 22.21875 -6.296875 23.03125 -7.429688 23.625 -8.734375 C 24.21875 -10.035156 24.515625 -11.445312 24.515625 -12.96875 C 24.515625 -14.46875 24.21875 -15.875 23.625 -17.1875 C 23.03125 -18.507812 22.21875 -19.660156 21.1875 -20.640625 C 20.15625 -21.617188 18.953125 -22.382812 17.578125 -22.9375 C 16.203125 -23.5 14.726562 -23.78125 13.15625 -23.78125 L 2.765625 -23.78125 L 2.765625 -25.984375 L 13.15625 -25.984375 C 15.019531 -25.984375 16.773438 -25.644531 18.421875 -24.96875 C 20.078125 -24.289062 21.515625 -23.367188 22.734375 -22.203125 C 23.960938 -21.035156 24.929688 -19.660156 25.640625 -18.078125 C 26.359375 -16.492188 26.71875 -14.789062 26.71875 -12.96875 C 26.71875 -11.15625 26.359375 -9.460938 25.640625 -7.890625 C 24.929688 -6.316406 23.960938 -4.945312 22.734375 -3.78125 C 21.515625 -2.613281 20.078125 -1.691406 18.421875 -1.015625 C 16.773438 -0.335938 15.019531 0 13.15625 0 L 6.078125 0 Z M 8.296875 -20.453125 L 8.296875 -5.53125 L 13.125 -5.53125 C 14.226562 -5.53125 15.265625 -5.71875 16.234375 -6.09375 C 17.203125 -6.476562 18.054688 -7 18.796875 -7.65625 C 19.535156 -8.320312 20.113281 -9.109375 20.53125 -10.015625 C 20.945312 -10.929688 21.15625 -11.914062 21.15625 -12.96875 C 21.15625 -14.03125 20.945312 -15.015625 20.53125 -15.921875 C 20.113281 -16.828125 19.535156 -17.617188 18.796875 -18.296875 C 18.054688 -18.972656 17.203125 -19.5 16.234375 -19.875 C 15.265625 -20.257812 14.226562 -20.453125 13.125 -20.453125 Z M 8.296875 -20.453125 "/></g></g></g><g fill="#000000" fill-opacity="1"><g transform="translate(85.610353, 28.744781)"><g><path d="M 6.078125 -25.984375 L 8.296875 -25.984375 L 8.296875 0 L 6.078125 0 Z M 2.765625 -25.984375 L 4.96875 -25.984375 L 4.96875 0 L 2.765625 0 Z M 2.765625 -25.984375 "/></g></g></g><g fill="#000000" fill-opacity="1"><g transform="translate(96.852311, 28.744781)"><g><path d="M 12.796875 -25.984375 L 15.703125 -25.984375 L 24.8125 0 L 22.453125 0 L 14.234375 -23.4375 L 13.640625 -21.703125 L 21.234375 0 L 18.875 0 L 16.953125 -5.53125 L 7.96875 -5.53125 L 6.046875 0 L 3.71875 0 Z M 9.25 -25.984375 L 11.609375 -25.984375 L 2.5 0 L 0.1875 0 Z M 9.921875 -11.0625 L 15.03125 -11.0625 L 12.5 -18.46875 Z M 8.734375 -7.734375 L 16.1875 -7.734375 L 15.8125 -8.84375 L 9.140625 -8.84375 Z M 8.734375 -7.734375 "/></g></g></g><g fill="#000000" fill-opacity="1"><g transform="translate(122.063597, 28.744781)"><g><path d="M 1.109375 -12.15625 L 9.953125 -12.15625 L 9.953125 -9.953125 L 1.109375 -9.953125 Z M 1.109375 -8.84375 L 9.953125 -8.84375 L 9.953125 -6.640625 L 1.109375 -6.640625 Z M 1.109375 -8.84375 "/></g></g></g><g fill="#000000" fill-opacity="1"><g transform="translate(133.30556, 28.744781)"><g><path d="M 8.546875 -25.984375 L 11.125 -25.984375 L 21.5625 -6.703125 L 21.5625 -25.984375 L 23.78125 -25.984375 L 23.78125 0 L 22.890625 0 Z M 8.296875 -19.984375 L 8.296875 0 L 6.078125 0 L 6.078125 -25.984375 L 7.1875 -25.984375 L 21.5625 0 L 19.125 0 Z M 24.875 -25.984375 L 27.09375 -25.984375 L 27.09375 0 L 24.875 0 Z M 2.765625 -25.984375 L 4.96875 -25.984375 L 4.96875 0 L 2.765625 0 Z M 2.765625 -25.984375 "/></g></g></g><g fill="#000000" fill-opacity="1"><g transform="translate(163.677023, 28.744781)"><g><path d="M 2.765625 -22.671875 L 20.453125 -22.671875 L 20.453125 -20.453125 L 8.296875 -20.453125 L 8.296875 -16.03125 L 19.90625 -16.03125 L 19.90625 -13.828125 L 8.296875 -13.828125 L 8.296875 -12.71875 L 19.90625 -12.71875 L 19.90625 -10.5 L 8.296875 -10.5 L 8.296875 -5.53125 L 21.015625 -5.53125 L 21.015625 -3.3125 L 8.296875 -3.3125 L 8.296875 -2.21875 L 21.015625 -2.21875 L 21.015625 0 L 6.078125 0 L 6.078125 -20.453125 L 4.96875 -20.453125 L 4.96875 0 L 2.765625 0 Z M 2.765625 -25.984375 L 20.453125 -25.984375 L 20.453125 -23.78125 L 2.765625 -23.78125 Z M 2.765625 -25.984375 "/></g></g></g><g fill="#000000" fill-opacity="1"><g transform="translate(187.229691, 28.744781)"><g><path d="M 14.109375 -22.671875 C 14.773438 -22.671875 15.390625 -22.546875 15.953125 -22.296875 C 16.523438 -22.054688 17.023438 -21.71875 17.453125 -21.28125 C 17.878906 -20.851562 18.210938 -20.359375 18.453125 -19.796875 C 18.703125 -19.234375 18.828125 -18.617188 18.828125 -17.953125 C 18.828125 -17.285156 18.703125 -16.671875 18.453125 -16.109375 C 18.210938 -15.546875 17.878906 -15.050781 17.453125 -14.625 C 17.023438 -14.207031 16.523438 -13.875 15.953125 -13.625 C 15.390625 -13.382812 14.773438 -13.265625 14.109375 -13.265625 L 8.296875 -13.265625 L 8.296875 -12.15625 L 14.109375 -12.15625 C 14.921875 -12.15625 15.675781 -12.304688 16.375 -12.609375 C 17.082031 -12.921875 17.695312 -13.335938 18.21875 -13.859375 C 18.75 -14.378906 19.164062 -14.988281 19.46875 -15.6875 C 19.78125 -16.382812 19.9375 -17.140625 19.9375 -17.953125 C 19.9375 -18.765625 19.78125 -19.519531 19.46875 -20.21875 C 19.164062 -20.914062 18.75 -21.53125 18.21875 -22.0625 C 17.695312 -22.59375 17.082031 -23.007812 16.375 -23.3125 C 15.675781 -23.625 14.921875 -23.78125 14.109375 -23.78125 L 2.765625 -23.78125 L 2.765625 -25.984375 L 14.109375 -25.984375 C 15.222656 -25.984375 16.265625 -25.773438 17.234375 -25.359375 C 18.203125 -24.941406 19.054688 -24.363281 19.796875 -23.625 C 20.535156 -22.882812 21.113281 -22.03125 21.53125 -21.0625 C 21.945312 -20.09375 22.15625 -19.054688 22.15625 -17.953125 C 22.15625 -16.847656 21.945312 -15.804688 21.53125 -14.828125 C 21.113281 -13.859375 20.535156 -13.007812 19.796875 -12.28125 C 19.054688 -11.5625 18.203125 -10.992188 17.234375 -10.578125 C 16.265625 -10.160156 15.222656 -9.953125 14.109375 -9.953125 L 8.296875 -9.953125 L 8.296875 0 L 6.078125 0 L 6.078125 -20.453125 L 4.96875 -20.453125 L 4.96875 0 L 2.765625 0 L 2.765625 -22.671875 Z M 8.296875 -20.453125 L 8.296875 -15.484375 L 14.109375 -15.484375 C 14.828125 -15.484375 15.425781 -15.710938 15.90625 -16.171875 C 16.382812 -16.640625 16.625 -17.234375 16.625 -17.953125 C 16.625 -18.660156 16.382812 -19.253906 15.90625 -19.734375 C 15.425781 -20.210938 14.828125 -20.453125 14.109375 -20.453125 Z M 8.296875 -20.453125 "/></g></g></g><g fill="#000000" fill-opacity="1"><g transform="translate(210.782359, 28.744781)"><g><path d="M 12.796875 -25.984375 L 15.703125 -25.984375 L 24.8125 0 L 22.453125 0 L 14.234375 -23.4375 L 13.640625 -21.703125 L 21.234375 0 L 18.875 0 L 16.953125 -5.53125 L 7.96875 -5.53125 L 6.046875 0 L 3.71875 0 Z M 9.25 -25.984375 L 11.609375 -25.984375 L 2.5 0 L 0.1875 0 Z M 9.921875 -11.0625 L 15.03125 -11.0625 L 12.5 -18.46875 Z M 8.734375 -7.734375 L 16.1875 -7.734375 L 15.8125 -8.84375 L 9.140625 -8.84375 Z M 8.734375 -7.734375 "/></g></g></g><g fill="#000000" fill-opacity="1"><g transform="translate(235.993651, 28.744781)"><g><path d="M 6.078125 -25.984375 L 8.296875 -25.984375 L 8.296875 -5.53125 L 19.34375 -5.53125 L 19.34375 -3.3125 L 8.296875 -3.3125 L 8.296875 -2.21875 L 19.34375 -2.21875 L 19.34375 0 L 6.078125 0 Z M 2.765625 -25.984375 L 4.96875 -25.984375 L 4.96875 0 L 2.765625 0 Z M 2.765625 -25.984375 "/></g></g></g><g fill="#000000" fill-opacity="1"><g transform="translate(15.689532, 64.695905)"><g><path d="M 15.84375 -22.078125 C 15.28125 -22.691406 14.53125 -23.210938 13.59375 -23.640625 C 12.664062 -24.078125 11.632812 -24.296875 10.5 -24.296875 C 9.644531 -24.296875 8.832031 -24.148438 8.0625 -23.859375 C 7.300781 -23.578125 6.625 -23.1875 6.03125 -22.6875 C 5.445312 -22.1875 4.984375 -21.578125 4.640625 -20.859375 C 4.296875 -20.148438 4.125 -19.363281 4.125 -18.5 C 4.125 -17.914062 4.207031 -17.328125 4.375 -16.734375 C 4.550781 -16.140625 4.800781 -15.597656 5.125 -15.109375 C 5.445312 -14.617188 5.835938 -14.1875 6.296875 -13.8125 C 6.765625 -13.445312 7.296875 -13.191406 7.890625 -13.046875 L 12.5 -11.828125 C 12.96875 -11.703125 13.390625 -11.484375 13.765625 -11.171875 C 14.148438 -10.867188 14.46875 -10.515625 14.71875 -10.109375 C 14.976562 -9.710938 15.175781 -9.28125 15.3125 -8.8125 C 15.445312 -8.34375 15.515625 -7.875 15.515625 -7.40625 C 15.515625 -6.695312 15.351562 -6.054688 15.03125 -5.484375 C 14.71875 -4.921875 14.285156 -4.441406 13.734375 -4.046875 C 13.179688 -3.660156 12.546875 -3.351562 11.828125 -3.125 C 11.117188 -2.90625 10.359375 -2.796875 9.546875 -2.796875 C 8.441406 -2.796875 7.390625 -3 6.390625 -3.40625 C 5.398438 -3.8125 4.609375 -4.332031 4.015625 -4.96875 L 5.828125 -6.296875 C 6.171875 -5.984375 6.675781 -5.691406 7.34375 -5.421875 C 8.019531 -5.148438 8.753906 -5.015625 9.546875 -5.015625 C 10.648438 -5.015625 11.550781 -5.238281 12.25 -5.6875 C 12.957031 -6.144531 13.3125 -6.769531 13.3125 -7.5625 C 13.3125 -8.050781 13.164062 -8.503906 12.875 -8.921875 C 12.59375 -9.335938 12.207031 -9.609375 11.71875 -9.734375 L 7.109375 -11.0625 C 6.273438 -11.257812 5.535156 -11.601562 4.890625 -12.09375 C 4.253906 -12.582031 3.710938 -13.15625 3.265625 -13.8125 C 2.828125 -14.476562 2.492188 -15.203125 2.265625 -15.984375 C 2.035156 -16.773438 1.921875 -17.578125 1.921875 -18.390625 C 1.921875 -19.617188 2.160156 -20.726562 2.640625 -21.71875 C 3.117188 -22.71875 3.75 -23.570312 4.53125 -24.28125 C 5.320312 -25 6.238281 -25.546875 7.28125 -25.921875 C 8.320312 -26.304688 9.410156 -26.5 10.546875 -26.5 C 12.015625 -26.5 13.363281 -26.21875 14.59375 -25.65625 C 15.820312 -25.09375 16.832031 -24.378906 17.625 -23.515625 Z M 13.34375 -19.9375 C 13.09375 -20.207031 12.707031 -20.445312 12.1875 -20.65625 C 11.675781 -20.863281 11.113281 -20.96875 10.5 -20.96875 C 9.59375 -20.96875 8.859375 -20.726562 8.296875 -20.25 C 7.734375 -19.769531 7.453125 -19.140625 7.453125 -18.359375 C 7.453125 -17.867188 7.59375 -17.410156 7.875 -16.984375 C 8.15625 -16.566406 8.539062 -16.3125 9.03125 -16.21875 L 13.671875 -14.890625 C 14.503906 -14.691406 15.238281 -14.347656 15.875 -13.859375 C 16.519531 -13.367188 17.0625 -12.789062 17.5 -12.125 C 17.945312 -11.457031 18.285156 -10.722656 18.515625 -9.921875 C 18.753906 -9.128906 18.875 -8.328125 18.875 -7.515625 C 18.875 -6.316406 18.617188 -5.21875 18.109375 -4.21875 C 17.609375 -3.226562 16.941406 -2.378906 16.109375 -1.671875 C 15.273438 -0.972656 14.296875 -0.429688 13.171875 -0.046875 C 12.054688 0.328125 10.894531 0.515625 9.6875 0.515625 C 7.945312 0.515625 6.351562 0.203125 4.90625 -0.421875 C 3.457031 -1.046875 2.300781 -1.863281 1.4375 -2.875 L 3.25 -4.203125 C 3.882812 -3.535156 4.765625 -2.953125 5.890625 -2.453125 C 7.023438 -1.953125 8.253906 -1.703125 9.578125 -1.703125 C 10.515625 -1.703125 11.40625 -1.832031 12.25 -2.09375 C 13.101562 -2.363281 13.851562 -2.742188 14.5 -3.234375 C 15.15625 -3.734375 15.671875 -4.332031 16.046875 -5.03125 C 16.429688 -5.726562 16.625 -6.507812 16.625 -7.375 C 16.625 -8.601562 16.3125 -9.742188 15.6875 -10.796875 C 15.0625 -11.859375 14.132812 -12.5625 12.90625 -12.90625 L 8.296875 -14.109375 C 7.335938 -14.378906 6.59375 -14.945312 6.0625 -15.8125 C 5.53125 -16.675781 5.265625 -17.570312 5.265625 -18.5 C 5.265625 -19.21875 5.410156 -19.863281 5.703125 -20.4375 C 6.003906 -21.007812 6.398438 -21.5 6.890625 -21.90625 C 7.378906 -22.3125 7.941406 -22.625 8.578125 -22.84375 C 9.222656 -23.070312 9.898438 -23.1875 10.609375 -23.1875 C 11.546875 -23.1875 12.394531 -23.003906 13.15625 -22.640625 C 13.914062 -22.285156 14.539062 -21.863281 15.03125 -21.375 Z M 13.34375 -19.9375 "/></g></g></g><g fill="#000000" fill-opacity="1"><g transform="translate(37.178115, 64.695905)"><g><path d="M 22.5625 -21.59375 C 21.550781 -22.457031 20.414062 -23.128906 19.15625 -23.609375 C 17.90625 -24.085938 16.582031 -24.328125 15.1875 -24.328125 C 13.613281 -24.328125 12.140625 -24.03125 10.765625 -23.4375 C 9.390625 -22.851562 8.191406 -22.046875 7.171875 -21.015625 C 6.148438 -19.984375 5.34375 -18.773438 4.75 -17.390625 C 4.164062 -16.015625 3.875 -14.539062 3.875 -12.96875 C 3.875 -11.394531 4.164062 -9.921875 4.75 -8.546875 C 5.34375 -7.171875 6.148438 -5.972656 7.171875 -4.953125 C 8.191406 -3.929688 9.390625 -3.125 10.765625 -2.53125 C 12.140625 -1.945312 13.613281 -1.65625 15.1875 -1.65625 C 16.78125 -1.65625 18.265625 -1.957031 19.640625 -2.5625 C 21.015625 -3.164062 22.222656 -3.984375 23.265625 -5.015625 L 25.0625 -3.71875 C 23.8125 -2.394531 22.34375 -1.351562 20.65625 -0.59375 C 18.976562 0.164062 17.15625 0.546875 15.1875 0.546875 C 13.320312 0.546875 11.566406 0.191406 9.921875 -0.515625 C 8.273438 -1.222656 6.84375 -2.1875 5.625 -3.40625 C 4.40625 -4.625 3.4375 -6.054688 2.71875 -7.703125 C 2.007812 -9.347656 1.65625 -11.101562 1.65625 -12.96875 C 1.65625 -14.84375 2.007812 -16.601562 2.71875 -18.25 C 3.4375 -19.894531 4.40625 -21.332031 5.625 -22.5625 C 6.84375 -23.789062 8.273438 -24.757812 9.921875 -25.46875 C 11.566406 -26.175781 13.320312 -26.53125 15.1875 -26.53125 C 16.957031 -26.53125 18.601562 -26.222656 20.125 -25.609375 C 21.644531 -25.003906 23.019531 -24.144531 24.25 -23.03125 Z M 19.859375 -19.5 C 19.203125 -19.988281 18.472656 -20.363281 17.671875 -20.625 C 16.867188 -20.882812 16.03125 -21.015625 15.15625 -21.015625 C 14.039062 -21.015625 13 -20.800781 12.03125 -20.375 C 11.0625 -19.957031 10.210938 -19.378906 9.484375 -18.640625 C 8.765625 -17.910156 8.195312 -17.0625 7.78125 -16.09375 C 7.363281 -15.125 7.15625 -14.082031 7.15625 -12.96875 C 7.15625 -11.863281 7.363281 -10.828125 7.78125 -9.859375 C 8.195312 -8.890625 8.765625 -8.039062 9.484375 -7.3125 C 10.210938 -6.59375 11.0625 -6.019531 12.03125 -5.59375 C 13 -5.175781 14.039062 -4.96875 15.15625 -4.96875 C 16.1875 -4.96875 17.148438 -5.140625 18.046875 -5.484375 C 18.941406 -5.835938 19.742188 -6.332031 20.453125 -6.96875 L 22.34375 -5.640625 C 21.40625 -4.753906 20.328125 -4.050781 19.109375 -3.53125 C 17.890625 -3.019531 16.582031 -2.765625 15.1875 -2.765625 C 13.78125 -2.765625 12.457031 -3.035156 11.21875 -3.578125 C 9.976562 -4.117188 8.894531 -4.847656 7.96875 -5.765625 C 7.050781 -6.691406 6.320312 -7.773438 5.78125 -9.015625 C 5.238281 -10.253906 4.96875 -11.570312 4.96875 -12.96875 C 4.96875 -14.375 5.238281 -15.703125 5.78125 -16.953125 C 6.320312 -18.203125 7.050781 -19.285156 7.96875 -20.203125 C 8.894531 -21.128906 9.976562 -21.863281 11.21875 -22.40625 C 12.457031 -22.945312 13.78125 -23.21875 15.1875 -23.21875 C 16.414062 -23.21875 17.578125 -23.007812 18.671875 -22.59375 C 19.765625 -22.175781 20.753906 -21.613281 21.640625 -20.90625 Z M 19.859375 -19.5 "/></g></g></g><g fill="#000000" fill-opacity="1"><g transform="translate(62.757983, 64.695905)"><g><path d="M 19.90625 -11.0625 L 8.296875 -11.0625 L 8.296875 0 L 6.078125 0 L 6.078125 -25.984375 L 8.296875 -25.984375 L 8.296875 -16.59375 L 19.90625 -16.59375 L 19.90625 -25.984375 L 22.109375 -25.984375 L 22.109375 0 L 19.90625 0 Z M 2.765625 -25.984375 L 4.96875 -25.984375 L 4.96875 0 L 2.765625 0 Z M 23.21875 -25.984375 L 25.4375 -25.984375 L 25.4375 0 L 23.21875 0 Z M 8.296875 -13.265625 L 19.90625 -13.265625 L 19.90625 -14.375 L 8.296875 -14.375 Z M 8.296875 -13.265625 "/></g></g></g><g fill="#000000" fill-opacity="1"><g transform="translate(91.065382, 64.695905)"><g><path d="M 1.65625 -12.96875 C 1.65625 -14.84375 2.007812 -16.601562 2.71875 -18.25 C 3.4375 -19.894531 4.40625 -21.332031 5.625 -22.5625 C 6.84375 -23.789062 8.273438 -24.757812 9.921875 -25.46875 C 11.566406 -26.175781 13.320312 -26.53125 15.1875 -26.53125 C 17.050781 -26.53125 18.804688 -26.175781 20.453125 -25.46875 C 22.097656 -24.757812 23.535156 -23.789062 24.765625 -22.5625 C 25.992188 -21.332031 26.960938 -19.894531 27.671875 -18.25 C 28.390625 -16.601562 28.75 -14.84375 28.75 -12.96875 C 28.75 -11.101562 28.390625 -9.347656 27.671875 -7.703125 C 26.960938 -6.054688 25.992188 -4.625 24.765625 -3.40625 C 23.535156 -2.1875 22.097656 -1.222656 20.453125 -0.515625 C 18.804688 0.191406 17.050781 0.546875 15.1875 0.546875 C 13.320312 0.546875 11.566406 0.191406 9.921875 -0.515625 C 8.273438 -1.222656 6.84375 -2.1875 5.625 -3.40625 C 4.40625 -4.625 3.4375 -6.054688 2.71875 -7.703125 C 2.007812 -9.347656 1.65625 -11.101562 1.65625 -12.96875 Z M 3.875 -12.96875 C 3.875 -11.394531 4.164062 -9.921875 4.75 -8.546875 C 5.34375 -7.171875 6.148438 -5.972656 7.171875 -4.953125 C 8.191406 -3.929688 9.390625 -3.125 10.765625 -2.53125 C 12.140625 -1.945312 13.613281 -1.65625 15.1875 -1.65625 C 16.757812 -1.65625 18.234375 -1.945312 19.609375 -2.53125 C 20.984375 -3.125 22.1875 -3.929688 23.21875 -4.953125 C 24.25 -5.972656 25.054688 -7.171875 25.640625 -8.546875 C 26.234375 -9.921875 26.53125 -11.394531 26.53125 -12.96875 C 26.53125 -14.539062 26.234375 -16.015625 25.640625 -17.390625 C 25.054688 -18.773438 24.25 -19.984375 23.21875 -21.015625 C 22.1875 -22.046875 20.984375 -22.851562 19.609375 -23.4375 C 18.234375 -24.03125 16.757812 -24.328125 15.1875 -24.328125 C 13.613281 -24.328125 12.140625 -24.03125 10.765625 -23.4375 C 9.390625 -22.851562 8.191406 -22.046875 7.171875 -21.015625 C 6.148438 -19.984375 5.34375 -18.773438 4.75 -17.390625 C 4.164062 -16.015625 3.875 -14.539062 3.875 -12.96875 Z M 4.96875 -12.96875 C 4.96875 -14.375 5.238281 -15.703125 5.78125 -16.953125 C 6.320312 -18.203125 7.050781 -19.285156 7.96875 -20.203125 C 8.894531 -21.128906 9.976562 -21.863281 11.21875 -22.40625 C 12.457031 -22.945312 13.78125 -23.21875 15.1875 -23.21875 C 16.582031 -23.21875 17.90625 -22.945312 19.15625 -22.40625 C 20.414062 -21.863281 21.503906 -21.128906 22.421875 -20.203125 C 23.347656 -19.285156 24.082031 -18.203125 24.625 -16.953125 C 25.164062 -15.703125 25.4375 -14.375 25.4375 -12.96875 C 25.4375 -11.570312 25.164062 -10.253906 24.625 -9.015625 C 24.082031 -7.773438 23.347656 -6.691406 22.421875 -5.765625 C 21.503906 -4.847656 20.414062 -4.117188 19.15625 -3.578125 C 17.90625 -3.035156 16.582031 -2.765625 15.1875 -2.765625 C 13.78125 -2.765625 12.457031 -3.035156 11.21875 -3.578125 C 9.976562 -4.117188 8.894531 -4.847656 7.96875 -5.765625 C 7.050781 -6.691406 6.320312 -7.773438 5.78125 -9.015625 C 5.238281 -10.253906 4.96875 -11.570312 4.96875 -12.96875 Z M 7.15625 -12.96875 C 7.15625 -11.863281 7.363281 -10.828125 7.78125 -9.859375 C 8.195312 -8.890625 8.765625 -8.039062 9.484375 -7.3125 C 10.210938 -6.59375 11.0625 -6.019531 12.03125 -5.59375 C 13 -5.175781 14.039062 -4.96875 15.15625 -4.96875 C 16.257812 -4.96875 17.296875 -5.175781 18.265625 -5.59375 C 19.234375 -6.019531 20.085938 -6.59375 20.828125 -7.3125 C 21.566406 -8.039062 22.144531 -8.890625 22.5625 -9.859375 C 22.976562 -10.828125 23.1875 -11.863281 23.1875 -12.96875 C 23.1875 -14.082031 22.976562 -15.125 22.5625 -16.09375 C 22.144531 -17.0625 21.566406 -17.910156 20.828125 -18.640625 C 20.085938 -19.378906 19.234375 -19.957031 18.265625 -20.375 C 17.296875 -20.800781 16.257812 -21.015625 15.15625 -21.015625 C 14.039062 -21.015625 13 -20.800781 12.03125 -20.375 C 11.0625 -19.957031 10.210938 -19.378906 9.484375 -18.640625 C 8.765625 -17.910156 8.195312 -17.0625 7.78125 -16.09375 C 7.363281 -15.125 7.15625 -14.082031 7.15625 -12.96875 Z M 7.15625 -12.96875 "/></g></g></g><g fill="#000000" fill-opacity="1"><g transform="translate(121.658004, 64.695905)"><g><path d="M 1.65625 -12.96875 C 1.65625 -14.84375 2.007812 -16.601562 2.71875 -18.25 C 3.4375 -19.894531 4.40625 -21.332031 5.625 -22.5625 C 6.84375 -23.789062 8.273438 -24.757812 9.921875 -25.46875 C 11.566406 -26.175781 13.320312 -26.53125 15.1875 -26.53125 C 17.050781 -26.53125 18.804688 -26.175781 20.453125 -25.46875 C 22.097656 -24.757812 23.535156 -23.789062 24.765625 -22.5625 C 25.992188 -21.332031 26.960938 -19.894531 27.671875 -18.25 C 28.390625 -16.601562 28.75 -14.84375 28.75 -12.96875 C 28.75 -11.101562 28.390625 -9.347656 27.671875 -7.703125 C 26.960938 -6.054688 25.992188 -4.625 24.765625 -3.40625 C 23.535156 -2.1875 22.097656 -1.222656 20.453125 -0.515625 C 18.804688 0.191406 17.050781 0.546875 15.1875 0.546875 C 13.320312 0.546875 11.566406 0.191406 9.921875 -0.515625 C 8.273438 -1.222656 6.84375 -2.1875 5.625 -3.40625 C 4.40625 -4.625 3.4375 -6.054688 2.71875 -7.703125 C 2.007812 -9.347656 1.65625 -11.101562 1.65625 -12.96875 Z M 3.875 -12.96875 C 3.875 -11.394531 4.164062 -9.921875 4.75 -8.546875 C 5.34375 -7.171875 6.148438 -5.972656 7.171875 -4.953125 C 8.191406 -3.929688 9.390625 -3.125 10.765625 -2.53125 C 12.140625 -1.945312 13.613281 -1.65625 15.1875 -1.65625 C 16.757812 -1.65625 18.234375 -1.945312 19.609375 -2.53125 C 20.984375 -3.125 22.1875 -3.929688 23.21875 -4.953125 C 24.25 -5.972656 25.054688 -7.171875 25.640625 -8.546875 C 26.234375 -9.921875 26.53125 -11.394531 26.53125 -12.96875 C 26.53125 -14.539062 26.234375 -16.015625 25.640625 -17.390625 C 25.054688 -18.773438 24.25 -19.984375 23.21875 -21.015625 C 22.1875 -22.046875 20.984375 -22.851562 19.609375 -23.4375 C 18.234375 -24.03125 16.757812 -24.328125 15.1875 -24.328125 C 13.613281 -24.328125 12.140625 -24.03125 10.765625 -23.4375 C 9.390625 -22.851562 8.191406 -22.046875 7.171875 -21.015625 C 6.148438 -19.984375 5.34375 -18.773438 4.75 -17.390625 C 4.164062 -16.015625 3.875 -14.539062 3.875 -12.96875 Z M 4.96875 -12.96875 C 4.96875 -14.375 5.238281 -15.703125 5.78125 -16.953125 C 6.320312 -18.203125 7.050781 -19.285156 7.96875 -20.203125 C 8.894531 -21.128906 9.976562 -21.863281 11.21875 -22.40625 C 12.457031 -22.945312 13.78125 -23.21875 15.1875 -23.21875 C 16.582031 -23.21875 17.90625 -22.945312 19.15625 -22.40625 C 20.414062 -21.863281 21.503906 -21.128906 22.421875 -20.203125 C 23.347656 -19.285156 24.082031 -18.203125 24.625 -16.953125 C 25.164062 -15.703125 25.4375 -14.375 25.4375 -12.96875 C 25.4375 -11.570312 25.164062 -10.253906 24.625 -9.015625 C 24.082031 -7.773438 23.347656 -6.691406 22.421875 -5.765625 C 21.503906 -4.847656 20.414062 -4.117188 19.15625 -3.578125 C 17.90625 -3.035156 16.582031 -2.765625 15.1875 -2.765625 C 13.78125 -2.765625 12.457031 -3.035156 11.21875 -3.578125 C 9.976562 -4.117188 8.894531 -4.847656 7.96875 -5.765625 C 7.050781 -6.691406 6.320312 -7.773438 5.78125 -9.015625 C 5.238281 -10.253906 4.96875 -11.570312 4.96875 -12.96875 Z M 7.15625 -12.96875 C 7.15625 -11.863281 7.363281 -10.828125 7.78125 -9.859375 C 8.195312 -8.890625 8.765625 -8.039062 9.484375 -7.3125 C 10.210938 -6.59375 11.0625 -6.019531 12.03125 -5.59375 C 13 -5.175781 14.039062 -4.96875 15.15625 -4.96875 C 16.257812 -4.96875 17.296875 -5.175781 18.265625 -5.59375 C 19.234375 -6.019531 20.085938 -6.59375 20.828125 -7.3125 C 21.566406 -8.039062 22.144531 -8.890625 22.5625 -9.859375 C 22.976562 -10.828125 23.1875 -11.863281 23.1875 -12.96875 C 23.1875 -14.082031 22.976562 -15.125 22.5625 -16.09375 C 22.144531 -17.0625 21.566406 -17.910156 20.828125 -18.640625 C 20.085938 -19.378906 19.234375 -19.957031 18.265625 -20.375 C 17.296875 -20.800781 16.257812 -21.015625 15.15625 -21.015625 C 14.039062 -21.015625 13 -20.800781 12.03125 -20.375 C 11.0625 -19.957031 10.210938 -19.378906 9.484375 -18.640625 C 8.765625 -17.910156 8.195312 -17.0625 7.78125 -16.09375 C 7.363281 -15.125 7.15625 -14.082031 7.15625 -12.96875 Z M 7.15625 -12.96875 "/></g></g></g><g fill="#000000" fill-opacity="1"><g transform="translate(152.250626, 64.695905)"><g><path d="M 6.078125 -25.984375 L 8.296875 -25.984375 L 8.296875 -5.53125 L 19.34375 -5.53125 L 19.34375 -3.3125 L 8.296875 -3.3125 L 8.296875 -2.21875 L 19.34375 -2.21875 L 19.34375 0 L 6.078125 0 Z M 2.765625 -25.984375 L 4.96875 -25.984375 L 4.96875 0 L 2.765625 0 Z M 2.765625 -25.984375 "/></g></g></g><g fill="#000000" fill-opacity="1"><g transform="translate(172.375445, 64.695905)"><g/></g></g><g fill="#000000" fill-opacity="1"><g transform="translate(183.617408, 64.695905)"><g><path d="M 6.078125 -25.984375 L 8.296875 -25.984375 L 8.296875 -5.53125 L 19.34375 -5.53125 L 19.34375 -3.3125 L 8.296875 -3.3125 L 8.296875 -2.21875 L 19.34375 -2.21875 L 19.34375 0 L 6.078125 0 Z M 2.765625 -25.984375 L 4.96875 -25.984375 L 4.96875 0 L 2.765625 0 Z M 2.765625 -25.984375 "/></g></g></g><g fill="#000000" fill-opacity="1"><g transform="translate(203.742217, 64.695905)"><g><path d="M 2.765625 -22.671875 L 20.453125 -22.671875 L 20.453125 -20.453125 L 8.296875 -20.453125 L 8.296875 -16.03125 L 19.90625 -16.03125 L 19.90625 -13.828125 L 8.296875 -13.828125 L 8.296875 -12.71875 L 19.90625 -12.71875 L 19.90625 -10.5 L 8.296875 -10.5 L 8.296875 -5.53125 L 21.015625 -5.53125 L 21.015625 -3.3125 L 8.296875 -3.3125 L 8.296875 -2.21875 L 21.015625 -2.21875 L 21.015625 0 L 6.078125 0 L 6.078125 -20.453125 L 4.96875 -20.453125 L 4.96875 0 L 2.765625 0 Z M 2.765625 -25.984375 L 20.453125 -25.984375 L 20.453125 -23.78125 L 2.765625 -23.78125 Z M 2.765625 -25.984375 "/></g></g></g><g fill="#000000" fill-opacity="1"><g transform="translate(227.294885, 64.695905)"><g><path d="M 12.796875 -25.984375 L 15.703125 -25.984375 L 24.8125 0 L 22.453125 0 L 14.234375 -23.4375 L 13.640625 -21.703125 L 21.234375 0 L 18.875 0 L 16.953125 -5.53125 L 7.96875 -5.53125 L 6.046875 0 L 3.71875 0 Z M 9.25 -25.984375 L 11.609375 -25.984375 L 2.5 0 L 0.1875 0 Z M 9.921875 -11.0625 L 15.03125 -11.0625 L 12.5 -18.46875 Z M 8.734375 -7.734375 L 16.1875 -7.734375 L 15.8125 -8.84375 L 9.140625 -8.84375 Z M 8.734375 -7.734375 "/></g></g></g><g fill="#000000" fill-opacity="1"><g transform="translate(252.506177, 64.695905)"><g><path d="M 6.078125 -20.453125 L 4.96875 -20.453125 L 4.96875 0 L 2.765625 0 L 2.765625 -22.671875 L 13.15625 -22.671875 C 14.5625 -22.671875 15.890625 -22.414062 17.140625 -21.90625 C 18.390625 -21.40625 19.472656 -20.71875 20.390625 -19.84375 C 21.316406 -18.976562 22.050781 -17.953125 22.59375 -16.765625 C 23.132812 -15.585938 23.40625 -14.320312 23.40625 -12.96875 C 23.40625 -11.625 23.132812 -10.359375 22.59375 -9.171875 C 22.050781 -7.992188 21.316406 -6.972656 20.390625 -6.109375 C 19.472656 -5.253906 18.390625 -4.570312 17.140625 -4.0625 C 15.890625 -3.5625 14.5625 -3.3125 13.15625 -3.3125 L 8.296875 -3.3125 L 8.296875 -2.21875 L 13.15625 -2.21875 C 14.726562 -2.21875 16.203125 -2.492188 17.578125 -3.046875 C 18.953125 -3.597656 20.15625 -4.359375 21.1875 -5.328125 C 22.21875 -6.296875 23.03125 -7.429688 23.625 -8.734375 C 24.21875 -10.035156 24.515625 -11.445312 24.515625 -12.96875 C 24.515625 -14.46875 24.21875 -15.875 23.625 -17.1875 C 23.03125 -18.507812 22.21875 -19.660156 21.1875 -20.640625 C 20.15625 -21.617188 18.953125 -22.382812 17.578125 -22.9375 C 16.203125 -23.5 14.726562 -23.78125 13.15625 -23.78125 L 2.765625 -23.78125 L 2.765625 -25.984375 L 13.15625 -25.984375 C 15.019531 -25.984375 16.773438 -25.644531 18.421875 -24.96875 C 20.078125 -24.289062 21.515625 -23.367188 22.734375 -22.203125 C 23.960938 -21.035156 24.929688 -19.660156 25.640625 -18.078125 C 26.359375 -16.492188 26.71875 -14.789062 26.71875 -12.96875 C 26.71875 -11.15625 26.359375 -9.460938 25.640625 -7.890625 C 24.929688 -6.316406 23.960938 -4.945312 22.734375 -3.78125 C 21.515625 -2.613281 20.078125 -1.691406 18.421875 -1.015625 C 16.773438 -0.335938 15.019531 0 13.15625 0 L 6.078125 0 Z M 8.296875 -20.453125 L 8.296875 -5.53125 L 13.125 -5.53125 C 14.226562 -5.53125 15.265625 -5.71875 16.234375 -6.09375 C 17.203125 -6.476562 18.054688 -7 18.796875 -7.65625 C 19.535156 -8.320312 20.113281 -9.109375 20.53125 -10.015625 C 20.945312 -10.929688 21.15625 -11.914062 21.15625 -12.96875 C 21.15625 -14.03125 20.945312 -15.015625 20.53125 -15.921875 C 20.113281 -16.828125 19.535156 -17.617188 18.796875 -18.296875 C 18.054688 -18.972656 17.203125 -19.5 16.234375 -19.875 C 15.265625 -20.257812 14.226562 -20.453125 13.125 -20.453125 Z M 8.296875 -20.453125 "/></g></g></g><g fill="#000000" fill-opacity="1"><g transform="translate(280.813581, 64.695905)"><g><path d="M 2.765625 -22.671875 L 20.453125 -22.671875 L 20.453125 -20.453125 L 8.296875 -20.453125 L 8.296875 -16.03125 L 19.90625 -16.03125 L 19.90625 -13.828125 L 8.296875 -13.828125 L 8.296875 -12.71875 L 19.90625 -12.71875 L 19.90625 -10.5 L 8.296875 -10.5 L 8.296875 -5.53125 L 21.015625 -5.53125 L 21.015625 -3.3125 L 8.296875 -3.3125 L 8.296875 -2.21875 L 21.015625 -2.21875 L 21.015625 0 L 6.078125 0 L 6.078125 -20.453125 L 4.96875 -20.453125 L 4.96875 0 L 2.765625 0 Z M 2.765625 -25.984375 L 20.453125 -25.984375 L 20.453125 -23.78125 L 2.765625 -23.78125 Z M 2.765625 -25.984375 "/></g></g></g><g fill="#000000" fill-opacity="1"><g transform="translate(304.366248, 64.695905)"><g><path d="M 20.015625 0 L 14.59375 -9.953125 C 14.519531 -9.929688 14.441406 -9.925781 14.359375 -9.9375 C 14.273438 -9.945312 14.191406 -9.953125 14.109375 -9.953125 L 13.265625 -9.953125 L 18.6875 0 L 16.1875 0 L 10.765625 -9.953125 L 8.296875 -9.953125 L 8.296875 0 L 6.078125 0 L 6.078125 -20.453125 L 4.96875 -20.453125 L 4.96875 0 L 2.765625 0 L 2.765625 -22.671875 L 14.109375 -22.671875 C 14.773438 -22.671875 15.390625 -22.546875 15.953125 -22.296875 C 16.523438 -22.054688 17.023438 -21.71875 17.453125 -21.28125 C 17.878906 -20.851562 18.210938 -20.359375 18.453125 -19.796875 C 18.703125 -19.234375 18.828125 -18.617188 18.828125 -17.953125 C 18.828125 -17.285156 18.703125 -16.671875 18.453125 -16.109375 C 18.210938 -15.546875 17.878906 -15.050781 17.453125 -14.625 C 17.023438 -14.207031 16.523438 -13.875 15.953125 -13.625 C 15.390625 -13.382812 14.773438 -13.265625 14.109375 -13.265625 L 8.296875 -13.265625 L 8.296875 -12.15625 L 14.109375 -12.15625 C 14.921875 -12.15625 15.675781 -12.304688 16.375 -12.609375 C 17.082031 -12.921875 17.695312 -13.335938 18.21875 -13.859375 C 18.75 -14.378906 19.164062 -14.988281 19.46875 -15.6875 C 19.78125 -16.382812 19.9375 -17.140625 19.9375 -17.953125 C 19.9375 -18.765625 19.78125 -19.519531 19.46875 -20.21875 C 19.164062 -20.914062 18.75 -21.53125 18.21875 -22.0625 C 17.695312 -22.59375 17.082031 -23.007812 16.375 -23.3125 C 15.675781 -23.625 14.921875 -23.78125 14.109375 -23.78125 L 2.765625 -23.78125 L 2.765625 -25.984375 L 14.109375 -25.984375 C 15.222656 -25.984375 16.265625 -25.773438 17.234375 -25.359375 C 18.203125 -24.941406 19.054688 -24.363281 19.796875 -23.625 C 20.535156 -22.882812 21.113281 -22.03125 21.53125 -21.0625 C 21.945312 -20.09375 22.15625 -19.054688 22.15625 -17.953125 C 22.15625 -17.085938 22.023438 -16.257812 21.765625 -15.46875 C 21.503906 -14.6875 21.132812 -13.960938 20.65625 -13.296875 C 20.175781 -12.640625 19.609375 -12.066406 18.953125 -11.578125 C 18.304688 -11.085938 17.601562 -10.707031 16.84375 -10.4375 L 22.515625 0 Z M 8.296875 -20.453125 L 8.296875 -15.484375 L 14.109375 -15.484375 C 14.828125 -15.484375 15.425781 -15.710938 15.90625 -16.171875 C 16.382812 -16.640625 16.625 -17.234375 16.625 -17.953125 C 16.625 -18.660156 16.382812 -19.253906 15.90625 -19.734375 C 15.425781 -20.210938 14.828125 -20.453125 14.109375 -20.453125 Z M 8.296875 -20.453125 "/></g></g></g><g fill="#000000" fill-opacity="1"><g transform="translate(328.582371, 64.695905)"><g><path d="M 15.84375 -22.078125 C 15.28125 -22.691406 14.53125 -23.210938 13.59375 -23.640625 C 12.664062 -24.078125 11.632812 -24.296875 10.5 -24.296875 C 9.644531 -24.296875 8.832031 -24.148438 8.0625 -23.859375 C 7.300781 -23.578125 6.625 -23.1875 6.03125 -22.6875 C 5.445312 -22.1875 4.984375 -21.578125 4.640625 -20.859375 C 4.296875 -20.148438 4.125 -19.363281 4.125 -18.5 C 4.125 -17.914062 4.207031 -17.328125 4.375 -16.734375 C 4.550781 -16.140625 4.800781 -15.597656 5.125 -15.109375 C 5.445312 -14.617188 5.835938 -14.1875 6.296875 -13.8125 C 6.765625 -13.445312 7.296875 -13.191406 7.890625 -13.046875 L 12.5 -11.828125 C 12.96875 -11.703125 13.390625 -11.484375 13.765625 -11.171875 C 14.148438 -10.867188 14.46875 -10.515625 14.71875 -10.109375 C 14.976562 -9.710938 15.175781 -9.28125 15.3125 -8.8125 C 15.445312 -8.34375 15.515625 -7.875 15.515625 -7.40625 C 15.515625 -6.695312 15.351562 -6.054688 15.03125 -5.484375 C 14.71875 -4.921875 14.285156 -4.441406 13.734375 -4.046875 C 13.179688 -3.660156 12.546875 -3.351562 11.828125 -3.125 C 11.117188 -2.90625 10.359375 -2.796875 9.546875 -2.796875 C 8.441406 -2.796875 7.390625 -3 6.390625 -3.40625 C 5.398438 -3.8125 4.609375 -4.332031 4.015625 -4.96875 L 5.828125 -6.296875 C 6.171875 -5.984375 6.675781 -5.691406 7.34375 -5.421875 C 8.019531 -5.148438 8.753906 -5.015625 9.546875 -5.015625 C 10.648438 -5.015625 11.550781 -5.238281 12.25 -5.6875 C 12.957031 -6.144531 13.3125 -6.769531 13.3125 -7.5625 C 13.3125 -8.050781 13.164062 -8.503906 12.875 -8.921875 C 12.59375 -9.335938 12.207031 -9.609375 11.71875 -9.734375 L 7.109375 -11.0625 C 6.273438 -11.257812 5.535156 -11.601562 4.890625 -12.09375 C 4.253906 -12.582031 3.710938 -13.15625 3.265625 -13.8125 C 2.828125 -14.476562 2.492188 -15.203125 2.265625 -15.984375 C 2.035156 -16.773438 1.921875 -17.578125 1.921875 -18.390625 C 1.921875 -19.617188 2.160156 -20.726562 2.640625 -21.71875 C 3.117188 -22.71875 3.75 -23.570312 4.53125 -24.28125 C 5.320312 -25 6.238281 -25.546875 7.28125 -25.921875 C 8.320312 -26.304688 9.410156 -26.5 10.546875 -26.5 C 12.015625 -26.5 13.363281 -26.21875 14.59375 -25.65625 C 15.820312 -25.09375 16.832031 -24.378906 17.625 -23.515625 Z M 13.34375 -19.9375 C 13.09375 -20.207031 12.707031 -20.445312 12.1875 -20.65625 C 11.675781 -20.863281 11.113281 -20.96875 10.5 -20.96875 C 9.59375 -20.96875 8.859375 -20.726562 8.296875 -20.25 C 7.734375 -19.769531 7.453125 -19.140625 7.453125 -18.359375 C 7.453125 -17.867188 7.59375 -17.410156 7.875 -16.984375 C 8.15625 -16.566406 8.539062 -16.3125 9.03125 -16.21875 L 13.671875 -14.890625 C 14.503906 -14.691406 15.238281 -14.347656 15.875 -13.859375 C 16.519531 -13.367188 17.0625 -12.789062 17.5 -12.125 C 17.945312 -11.457031 18.285156 -10.722656 18.515625 -9.921875 C 18.753906 -9.128906 18.875 -8.328125 18.875 -7.515625 C 18.875 -6.316406 18.617188 -5.21875 18.109375 -4.21875 C 17.609375 -3.226562 16.941406 -2.378906 16.109375 -1.671875 C 15.273438 -0.972656 14.296875 -0.429688 13.171875 -0.046875 C 12.054688 0.328125 10.894531 0.515625 9.6875 0.515625 C 7.945312 0.515625 6.351562 0.203125 4.90625 -0.421875 C 3.457031 -1.046875 2.300781 -1.863281 1.4375 -2.875 L 3.25 -4.203125 C 3.882812 -3.535156 4.765625 -2.953125 5.890625 -2.453125 C 7.023438 -1.953125 8.253906 -1.703125 9.578125 -1.703125 C 10.515625 -1.703125 11.40625 -1.832031 12.25 -2.09375 C 13.101562 -2.363281 13.851562 -2.742188 14.5 -3.234375 C 15.15625 -3.734375 15.671875 -4.332031 16.046875 -5.03125 C 16.429688 -5.726562 16.625 -6.507812 16.625 -7.375 C 16.625 -8.601562 16.3125 -9.742188 15.6875 -10.796875 C 15.0625 -11.859375 14.132812 -12.5625 12.90625 -12.90625 L 8.296875 -14.109375 C 7.335938 -14.378906 6.59375 -14.945312 6.0625 -15.8125 C 5.53125 -16.675781 5.265625 -17.570312 5.265625 -18.5 C 5.265625 -19.21875 5.410156 -19.863281 5.703125 -20.4375 C 6.003906 -21.007812 6.398438 -21.5 6.890625 -21.90625 C 7.378906 -22.3125 7.941406 -22.625 8.578125 -22.84375 C 9.222656 -23.070312 9.898438 -23.1875 10.609375 -23.1875 C 11.546875 -23.1875 12.394531 -23.003906 13.15625 -22.640625 C 13.914062 -22.285156 14.539062 -21.863281 15.03125 -21.375 Z M 13.34375 -19.9375 "/></g></g></g><g fill="#000000" fill-opacity="1"><g transform="translate(350.070957, 64.695905)"><g><path d="M 1.515625 -15.484375 L 4.234375 -25.984375 L 6.53125 -25.984375 L 3.796875 -15.484375 Z M 4.9375 -15.484375 L 7.671875 -25.984375 L 9.953125 -25.984375 L 7.21875 -15.484375 Z M 4.9375 -15.484375 "/></g></g></g></svg>