<svg xmlns="http://www.w3.org/2000/svg" xmlns:xlink="http://www.w3.org/1999/xlink" width="268" zoomAndPan="magnify" viewBox="0 0 200.87999 89.999999" height="120" preserveAspectRatio="xMidYMid meet" version="1.0"><defs><g/><clipPath id="c6a165f5b0"><path d="M 156.175781 0.0273438 L 187.765625 0.0273438 L 187.765625 57.980469 L 156.175781 57.980469 Z M 156.175781 0.0273438 " clip-rule="nonzero"/></clipPath><clipPath id="868a7ae347"><path d="M 159.34375 6.359375 L 187.765625 6.359375 L 187.765625 32.824219 L 159.34375 32.824219 Z M 159.34375 6.359375 " clip-rule="nonzero"/></clipPath></defs><g fill="#2db2bf" fill-opacity="1"><g transform="translate(130.632124, 76.836975)"><g><path d="M 10.09375 -20.234375 C 12.9375 -20.234375 15.117188 -19.351562 16.640625 -17.59375 C 18.171875 -15.832031 18.9375 -13.320312 18.9375 -10.0625 C 18.9375 -6.769531 18.171875 -4.242188 16.640625 -2.484375 C 15.117188 -0.734375 12.9375 0.140625 10.09375 0.140625 C 7.21875 0.140625 5.007812 -0.734375 3.46875 -2.484375 C 1.9375 -4.242188 1.171875 -6.769531 1.171875 -10.0625 C 1.171875 -13.320312 1.9375 -15.832031 3.46875 -17.59375 C 5.007812 -19.351562 7.21875 -20.234375 10.09375 -20.234375 Z M 10.09375 -16.5 C 8.789062 -16.5 7.851562 -16 7.28125 -15 C 6.707031 -14 6.421875 -12.351562 6.421875 -10.0625 C 6.421875 -7.769531 6.707031 -6.113281 7.28125 -5.09375 C 7.851562 -4.082031 8.789062 -3.578125 10.09375 -3.578125 C 11.351562 -3.578125 12.269531 -4.085938 12.84375 -5.109375 C 13.425781 -6.128906 13.71875 -7.773438 13.71875 -10.046875 C 13.71875 -12.328125 13.425781 -13.972656 12.84375 -14.984375 C 12.269531 -15.992188 11.351562 -16.5 10.09375 -16.5 Z M 10.09375 -16.5 "/></g></g></g><path stroke-linecap="round" transform="matrix(0.383804, 0, 0, 0.383804, 5.700852, 83.818136)" fill="none" stroke-linejoin="miter" d="M 1.50205 1.501797 L 472.995572 1.501797 " stroke="#ffffff" stroke-width="3" stroke-opacity="1" stroke-miterlimit="4"/><g clip-path="url(#c6a165f5b0)"><path fill="#23d0e1" d="M 173.351562 30.261719 C 155.433594 32.367188 152.976562 45.496094 159.394531 58.144531 C 156.726562 45.167969 161.625 36.8125 171.785156 34.648438 C 178.148438 33.289062 186.347656 30.402344 187.582031 23.011719 C 187.605469 22.875 187.613281 22.730469 187.628906 22.585938 C 184.707031 27.230469 179.742188 29.507812 173.351562 30.261719 Z M 182.371094 7.082031 C 183.273438 4.457031 183.703125 4.148438 186.480469 4.136719 C 183.855469 3.234375 183.546875 2.804688 183.535156 0.0273438 C 182.632812 2.652344 182.199219 2.960938 179.425781 2.972656 C 182.050781 3.875 182.359375 4.308594 182.371094 7.082031 " fill-opacity="1" fill-rule="nonzero"/></g><g clip-path="url(#868a7ae347)"><path fill="#70e0ff" d="M 171.902344 19.386719 C 174.09375 19.386719 175.871094 17.609375 175.871094 15.417969 C 175.871094 13.222656 174.09375 11.445312 171.902344 11.445312 C 169.710938 11.445312 167.933594 13.222656 167.933594 15.417969 C 167.933594 17.609375 169.710938 19.386719 171.902344 19.386719 Z M 185.53125 6.445312 C 188.324219 11.316406 184.484375 18.6875 171.402344 22.148438 C 163.550781 24.226562 160.460938 28.507812 159.453125 32.625 C 162.117188 29.710938 166.3125 27.25 172.230469 26.1875 C 178.628906 25.035156 186.660156 21.519531 187.679688 14.101562 C 188.023438 11.585938 187.34375 8.722656 185.53125 6.445312 " fill-opacity="1" fill-rule="nonzero"/></g><g fill="#f8f8f8" fill-opacity="1"><g transform="translate(1.675334, 65.224711)"><g><path d="M 13.609375 -23.71875 C 14.921875 -23.71875 16.035156 -23.53125 16.953125 -23.15625 C 17.867188 -22.789062 18.769531 -22.269531 19.65625 -21.59375 C 19.875 -21.394531 20.082031 -21.296875 20.28125 -21.296875 C 20.71875 -21.296875 21 -21.953125 21.125 -23.265625 L 21.890625 -23.265625 C 21.796875 -21.710938 21.75 -18.972656 21.75 -15.046875 L 21 -15.046875 C 20.84375 -16.796875 20.554688 -18.175781 20.140625 -19.1875 C 19.722656 -20.195312 19 -21.039062 17.96875 -21.71875 C 16.9375 -22.375 15.921875 -22.703125 14.921875 -22.703125 C 12.640625 -22.703125 11.035156 -21.609375 10.109375 -19.421875 C 9.191406 -17.234375 8.734375 -14.613281 8.734375 -11.5625 C 8.734375 -8.519531 9.191406 -5.898438 10.109375 -3.703125 C 11.035156 -1.515625 12.640625 -0.421875 14.921875 -0.421875 C 15.921875 -0.421875 16.9375 -0.75 17.96875 -1.40625 C 19 -2.039062 19.722656 -2.894531 20.140625 -3.96875 C 20.554688 -5.050781 20.84375 -6.578125 21 -8.546875 L 21.75 -8.546875 C 21.75 -4.453125 21.796875 -1.601562 21.890625 0 L 21.125 0 C 21.0625 -0.695312 20.96875 -1.191406 20.84375 -1.484375 C 20.726562 -1.785156 20.5625 -1.9375 20.34375 -1.9375 C 20.164062 -1.9375 19.9375 -1.847656 19.65625 -1.671875 C 18.664062 -0.972656 17.722656 -0.441406 16.828125 -0.078125 C 15.929688 0.273438 14.847656 0.453125 13.578125 0.453125 C 11.097656 0.453125 8.925781 -0.015625 7.0625 -0.953125 C 5.195312 -1.890625 3.75 -3.25 2.71875 -5.03125 C 1.695312 -6.820312 1.1875 -8.957031 1.1875 -11.4375 C 1.1875 -13.84375 1.710938 -15.976562 2.765625 -17.84375 C 3.816406 -19.707031 5.28125 -21.148438 7.15625 -22.171875 C 9.039062 -23.203125 11.191406 -23.71875 13.609375 -23.71875 Z M 13.609375 -23.71875 "/></g></g></g><g fill="#f8f8f8" fill-opacity="1"><g transform="translate(25.230141, 65.224711)"><g><path d="M 13.609375 -23.71875 C 16.078125 -23.71875 18.242188 -23.25 20.109375 -22.3125 C 21.972656 -21.375 23.414062 -20.007812 24.4375 -18.21875 C 25.46875 -16.4375 25.984375 -14.304688 25.984375 -11.828125 C 25.984375 -9.421875 25.457031 -7.285156 24.40625 -5.421875 C 23.363281 -3.554688 21.898438 -2.109375 20.015625 -1.078125 C 18.128906 -0.0546875 15.984375 0.453125 13.578125 0.453125 C 11.097656 0.453125 8.925781 -0.015625 7.0625 -0.953125 C 5.195312 -1.890625 3.75 -3.25 2.71875 -5.03125 C 1.695312 -6.820312 1.1875 -8.957031 1.1875 -11.4375 C 1.1875 -13.84375 1.710938 -15.976562 2.765625 -17.84375 C 3.816406 -19.707031 5.28125 -21.148438 7.15625 -22.171875 C 9.039062 -23.203125 11.191406 -23.71875 13.609375 -23.71875 Z M 13.46875 -23.140625 C 12.394531 -23.140625 11.445312 -22.648438 10.625 -21.671875 C 9.800781 -20.691406 9.171875 -19.328125 8.734375 -17.578125 C 8.296875 -15.828125 8.078125 -13.820312 8.078125 -11.5625 C 8.078125 -9.289062 8.328125 -7.285156 8.828125 -5.546875 C 9.335938 -3.816406 10.019531 -2.476562 10.875 -1.53125 C 11.726562 -0.59375 12.671875 -0.125 13.703125 -0.125 C 14.773438 -0.125 15.722656 -0.613281 16.546875 -1.59375 C 17.367188 -2.570312 18 -3.9375 18.4375 -5.6875 C 18.875 -7.4375 19.09375 -9.441406 19.09375 -11.703125 C 19.09375 -13.972656 18.835938 -15.972656 18.328125 -17.703125 C 17.828125 -19.441406 17.148438 -20.78125 16.296875 -21.71875 C 15.441406 -22.664062 14.5 -23.140625 13.46875 -23.140625 Z M 13.46875 -23.140625 "/></g></g></g><g fill="#f8f8f8" fill-opacity="1"><g transform="translate(52.398655, 65.224711)"><g><path d="M 23.265625 -22.609375 C 22.585938 -22.453125 22.082031 -22.210938 21.75 -21.890625 C 21.425781 -21.578125 21.207031 -21.09375 21.09375 -20.4375 C 20.988281 -19.78125 20.9375 -18.796875 20.9375 -17.484375 L 20.9375 0 C 20.5 -0.0390625 20.132812 -0.0625 19.84375 -0.0625 C 19.601562 -0.0625 19.195312 -0.0390625 18.625 0 L 4.078125 -15.90625 L 4.078125 -6.4375 C 4.078125 -4.820312 4.140625 -3.65625 4.265625 -2.9375 C 4.398438 -2.226562 4.691406 -1.707031 5.140625 -1.375 C 5.585938 -1.050781 6.335938 -0.8125 7.390625 -0.65625 L 7.390625 0 C 6.492188 -0.0625 5.269531 -0.09375 3.71875 -0.09375 C 2.550781 -0.09375 1.640625 -0.0625 0.984375 0 L 0.984375 -0.65625 C 1.660156 -0.8125 2.160156 -1.046875 2.484375 -1.359375 C 2.816406 -1.679688 3.035156 -2.171875 3.140625 -2.828125 C 3.253906 -3.484375 3.3125 -4.46875 3.3125 -5.78125 L 3.3125 -19.78125 C 3.3125 -20.613281 3.25 -21.210938 3.125 -21.578125 C 3.007812 -21.953125 2.796875 -22.207031 2.484375 -22.34375 C 2.179688 -22.476562 1.679688 -22.566406 0.984375 -22.609375 L 0.984375 -23.265625 C 1.640625 -23.203125 2.550781 -23.171875 3.71875 -23.171875 C 4.894531 -23.171875 5.898438 -23.203125 6.734375 -23.265625 L 20.171875 -9.0625 L 20.171875 -16.828125 C 20.171875 -18.441406 20.101562 -19.601562 19.96875 -20.3125 C 19.84375 -21.03125 19.554688 -21.550781 19.109375 -21.875 C 18.660156 -22.207031 17.910156 -22.453125 16.859375 -22.609375 L 16.859375 -23.265625 C 17.753906 -23.203125 18.976562 -23.171875 20.53125 -23.171875 C 21.695312 -23.171875 22.609375 -23.203125 23.265625 -23.265625 Z M 23.265625 -22.609375 "/></g></g></g><g fill="#f8f8f8" fill-opacity="1"><g transform="translate(76.446242, 65.224711)"><g><path d="M 13.609375 -23.71875 C 14.921875 -23.71875 16.035156 -23.53125 16.953125 -23.15625 C 17.867188 -22.789062 18.769531 -22.269531 19.65625 -21.59375 C 19.875 -21.394531 20.082031 -21.296875 20.28125 -21.296875 C 20.71875 -21.296875 21 -21.953125 21.125 -23.265625 L 21.890625 -23.265625 C 21.796875 -21.710938 21.75 -18.972656 21.75 -15.046875 L 21 -15.046875 C 20.84375 -16.796875 20.554688 -18.175781 20.140625 -19.1875 C 19.722656 -20.195312 19 -21.039062 17.96875 -21.71875 C 16.9375 -22.375 15.921875 -22.703125 14.921875 -22.703125 C 12.640625 -22.703125 11.035156 -21.609375 10.109375 -19.421875 C 9.191406 -17.234375 8.734375 -14.613281 8.734375 -11.5625 C 8.734375 -8.519531 9.191406 -5.898438 10.109375 -3.703125 C 11.035156 -1.515625 12.640625 -0.421875 14.921875 -0.421875 C 15.921875 -0.421875 16.9375 -0.75 17.96875 -1.40625 C 19 -2.039062 19.722656 -2.894531 20.140625 -3.96875 C 20.554688 -5.050781 20.84375 -6.578125 21 -8.546875 L 21.75 -8.546875 C 21.75 -4.453125 21.796875 -1.601562 21.890625 0 L 21.125 0 C 21.0625 -0.695312 20.96875 -1.191406 20.84375 -1.484375 C 20.726562 -1.785156 20.5625 -1.9375 20.34375 -1.9375 C 20.164062 -1.9375 19.9375 -1.847656 19.65625 -1.671875 C 18.664062 -0.972656 17.722656 -0.441406 16.828125 -0.078125 C 15.929688 0.273438 14.847656 0.453125 13.578125 0.453125 C 11.097656 0.453125 8.925781 -0.015625 7.0625 -0.953125 C 5.195312 -1.890625 3.75 -3.25 2.71875 -5.03125 C 1.695312 -6.820312 1.1875 -8.957031 1.1875 -11.4375 C 1.1875 -13.84375 1.710938 -15.976562 2.765625 -17.84375 C 3.816406 -19.707031 5.28125 -21.148438 7.15625 -22.171875 C 9.039062 -23.203125 11.191406 -23.71875 13.609375 -23.71875 Z M 13.609375 -23.71875 "/></g></g></g><g fill="#f8f8f8" fill-opacity="1"><g transform="translate(100.001045, 65.224711)"><g><path d="M 12.578125 -22.609375 C 11.796875 -22.566406 11.222656 -22.476562 10.859375 -22.34375 C 10.492188 -22.207031 10.242188 -21.953125 10.109375 -21.578125 C 9.984375 -21.210938 9.921875 -20.613281 9.921875 -19.78125 L 9.921875 -2.828125 C 9.921875 -2.210938 9.960938 -1.757812 10.046875 -1.46875 C 10.140625 -1.1875 10.296875 -0.992188 10.515625 -0.890625 C 10.734375 -0.796875 11.09375 -0.75 11.59375 -0.75 L 12.6875 -0.75 C 13.445312 -0.75 14.273438 -1.132812 15.171875 -1.90625 C 16.078125 -2.675781 16.890625 -3.6875 17.609375 -4.9375 C 18.335938 -6.195312 18.820312 -7.507812 19.0625 -8.875 L 19.8125 -8.875 C 19.75 -8.082031 19.71875 -7.070312 19.71875 -5.84375 C 19.71875 -3.476562 19.796875 -1.53125 19.953125 0 C 18.460938 -0.0625 15.953125 -0.09375 12.421875 -0.09375 C 7.296875 -0.09375 3.460938 -0.0625 0.921875 0 L 0.921875 -0.65625 C 1.617188 -0.695312 2.125 -0.785156 2.4375 -0.921875 C 2.757812 -1.054688 2.972656 -1.304688 3.078125 -1.671875 C 3.191406 -2.046875 3.25 -2.648438 3.25 -3.484375 L 3.25 -19.78125 C 3.25 -20.613281 3.1875 -21.210938 3.0625 -21.578125 C 2.945312 -21.953125 2.734375 -22.207031 2.421875 -22.34375 C 2.117188 -22.476562 1.617188 -22.566406 0.921875 -22.609375 L 0.921875 -23.265625 C 2.171875 -23.203125 4.117188 -23.171875 6.765625 -23.171875 C 9.285156 -23.171875 11.222656 -23.203125 12.578125 -23.265625 Z M 12.578125 -22.609375 "/></g></g></g><g fill="#f8f8f8" fill-opacity="1"><g transform="translate(120.566334, 65.224711)"><g><path d="M 21.03125 -2.765625 C 21.3125 -2.054688 21.617188 -1.53125 21.953125 -1.1875 C 22.296875 -0.851562 22.632812 -0.675781 22.96875 -0.65625 L 22.96875 0 C 21.394531 -0.0625 19.398438 -0.09375 16.984375 -0.09375 C 14.492188 -0.09375 12.65625 -0.0625 11.46875 0 L 11.46875 -0.65625 C 12.300781 -0.695312 12.890625 -0.800781 13.234375 -0.96875 C 13.585938 -1.132812 13.765625 -1.425781 13.765625 -1.84375 C 13.765625 -2.238281 13.632812 -2.765625 13.375 -3.421875 L 11.4375 -8.8125 L 4.796875 -8.8125 L 4.234375 -7.328125 C 3.515625 -5.460938 3.15625 -4.039062 3.15625 -3.0625 C 3.15625 -2.15625 3.40625 -1.535156 3.90625 -1.203125 C 4.414062 -0.878906 5.160156 -0.695312 6.140625 -0.65625 L 6.140625 0 C 4.503906 -0.0625 3.070312 -0.09375 1.84375 -0.09375 C 0.8125 -0.09375 -0.03125 -0.0625 -0.6875 0 L -0.6875 -0.65625 C -0.144531 -0.738281 0.363281 -1.078125 0.84375 -1.671875 C 1.332031 -2.265625 1.828125 -3.207031 2.328125 -4.5 L 9.625 -23.265625 C 10.320312 -23.222656 10.90625 -23.203125 11.375 -23.203125 C 11.8125 -23.203125 12.378906 -23.222656 13.078125 -23.265625 Z M 11.203125 -9.46875 L 8.21875 -17.671875 L 5.0625 -9.46875 Z M 11.203125 -9.46875 "/></g></g></g><g fill="#f8f8f8" fill-opacity="1"><g transform="translate(143.299845, 65.224711)"><g><path d="M 20.640625 -23.171875 C 21.671875 -23.171875 22.515625 -23.203125 23.171875 -23.265625 L 23.171875 -22.609375 C 22.597656 -22.328125 22.019531 -21.8125 21.4375 -21.0625 C 20.851562 -20.320312 20.332031 -19.300781 19.875 -18 L 13.46875 0 C 12.769531 -0.0390625 12.191406 -0.0625 11.734375 -0.0625 C 11.296875 -0.0625 10.722656 -0.0390625 10.015625 0 L 1.40625 -20.5 C 1.125 -21.207031 0.8125 -21.726562 0.46875 -22.0625 C 0.132812 -22.40625 -0.195312 -22.585938 -0.53125 -22.609375 L -0.53125 -23.265625 C 1.050781 -23.203125 3.046875 -23.171875 5.453125 -23.171875 C 7.953125 -23.171875 9.789062 -23.203125 10.96875 -23.265625 L 10.96875 -22.609375 C 10.132812 -22.566406 9.539062 -22.46875 9.1875 -22.3125 C 8.84375 -22.15625 8.671875 -21.847656 8.671875 -21.390625 C 8.671875 -21.015625 8.800781 -20.5 9.0625 -19.84375 L 14.75 -5.84375 L 17.9375 -14.78125 C 18.664062 -16.800781 19.03125 -18.425781 19.03125 -19.65625 C 19.03125 -21.5625 18.128906 -22.546875 16.328125 -22.609375 L 16.328125 -23.265625 C 17.972656 -23.203125 19.410156 -23.171875 20.640625 -23.171875 Z M 20.640625 -23.171875 "/></g></g></g><g fill="#f8f8f8" fill-opacity="1"><g transform="translate(166.066214, 65.224711)"><g><path d="M 19.71875 -5.515625 C 19.71875 -3.285156 19.796875 -1.445312 19.953125 0 C 18.460938 -0.0625 15.953125 -0.09375 12.421875 -0.09375 C 7.296875 -0.09375 3.460938 -0.0625 0.921875 0 L 0.921875 -0.65625 C 1.617188 -0.695312 2.125 -0.785156 2.4375 -0.921875 C 2.757812 -1.054688 2.972656 -1.304688 3.078125 -1.671875 C 3.191406 -2.046875 3.25 -2.648438 3.25 -3.484375 L 3.25 -19.78125 C 3.25 -20.613281 3.1875 -21.210938 3.0625 -21.578125 C 2.945312 -21.953125 2.734375 -22.207031 2.421875 -22.34375 C 2.117188 -22.476562 1.617188 -22.566406 0.921875 -22.609375 L 0.921875 -23.265625 C 3.460938 -23.203125 7.296875 -23.171875 12.421875 -23.171875 C 15.640625 -23.171875 17.925781 -23.203125 19.28125 -23.265625 C 19.132812 -21.203125 19.0625 -19.363281 19.0625 -17.75 C 19.0625 -16.738281 19.09375 -15.945312 19.15625 -15.375 L 18.40625 -15.375 C 18.007812 -17.914062 17.273438 -19.738281 16.203125 -20.84375 C 15.128906 -21.957031 13.847656 -22.515625 12.359375 -22.515625 L 11.921875 -22.515625 C 11.335938 -22.515625 10.90625 -22.460938 10.625 -22.359375 C 10.351562 -22.265625 10.164062 -22.078125 10.0625 -21.796875 C 9.96875 -21.523438 9.921875 -21.070312 9.921875 -20.4375 L 9.921875 -12.03125 L 10.25 -12.03125 C 11.382812 -12.03125 12.359375 -12.476562 13.171875 -13.375 C 13.984375 -14.269531 14.5 -15.265625 14.71875 -16.359375 L 15.484375 -16.359375 C 15.410156 -15.441406 15.375 -14.414062 15.375 -13.28125 L 15.375 -11.703125 C 15.375 -10.578125 15.441406 -9.019531 15.578125 -7.03125 L 14.8125 -7.03125 C 14.625 -8.28125 14.117188 -9.316406 13.296875 -10.140625 C 12.472656 -10.960938 11.457031 -11.375 10.25 -11.375 L 9.921875 -11.375 L 9.921875 -2.828125 C 9.921875 -2.191406 9.96875 -1.734375 10.0625 -1.453125 C 10.164062 -1.179688 10.351562 -0.992188 10.625 -0.890625 C 10.90625 -0.796875 11.335938 -0.75 11.921875 -0.75 L 13.015625 -0.75 C 14.285156 -0.75 15.488281 -1.367188 16.625 -2.609375 C 17.757812 -3.847656 18.570312 -5.828125 19.0625 -8.546875 L 19.8125 -8.546875 C 19.75 -7.753906 19.71875 -6.742188 19.71875 -5.515625 Z M 19.71875 -5.515625 "/></g></g></g><path stroke-linecap="round" transform="matrix(0.383804, 0, 0, 0.383804, 5.700852, 38.647443)" fill="none" stroke-linejoin="miter" d="M 0.504632 0.501301 L 370.047833 0.501301 " stroke="#000000" stroke-width="1" stroke-opacity="1" stroke-miterlimit="4"/><g fill="#4bcad6" fill-opacity="1"><g transform="translate(112.539539, 77.574245)"><g><path d="M 9.234375 -21.390625 C 11.347656 -21.390625 13.078125 -20.878906 14.421875 -19.859375 C 15.773438 -18.835938 16.453125 -17.503906 16.453125 -15.859375 C 16.453125 -13.878906 15.125 -11.53125 12.46875 -8.8125 L 8.1875 -4.265625 L 17.09375 -4.265625 L 17.09375 0 L 1.265625 0 L 1.265625 -3.46875 L 8.8125 -11.484375 C 10.164062 -12.890625 10.84375 -14.09375 10.84375 -15.09375 C 10.84375 -15.695312 10.628906 -16.171875 10.203125 -16.515625 C 9.785156 -16.859375 9.203125 -17.03125 8.453125 -17.03125 C 6.703125 -17.03125 4.78125 -16.132812 2.6875 -14.34375 L 0.671875 -18.21875 C 3.484375 -20.332031 6.335938 -21.390625 9.234375 -21.390625 Z M 9.234375 -21.390625 "/></g></g></g><g fill="#4bcad6" fill-opacity="1"><g transform="translate(130.663235, 77.574245)"><g/></g></g><g fill="#4bcad6" fill-opacity="1"><g transform="translate(137.671064, 77.574245)"><g/></g></g><g fill="#4bcad6" fill-opacity="1"><g transform="translate(144.678893, 77.574245)"><g/></g></g><g fill="#4bcad6" fill-opacity="1"><g transform="translate(151.687175, 77.574245)"><g><path d="M 9.234375 -21.390625 C 11.347656 -21.390625 13.078125 -20.878906 14.421875 -19.859375 C 15.773438 -18.835938 16.453125 -17.503906 16.453125 -15.859375 C 16.453125 -13.878906 15.125 -11.53125 12.46875 -8.8125 L 8.1875 -4.265625 L 17.09375 -4.265625 L 17.09375 0 L 1.265625 0 L 1.265625 -3.46875 L 8.8125 -11.484375 C 10.164062 -12.890625 10.84375 -14.09375 10.84375 -15.09375 C 10.84375 -15.695312 10.628906 -16.171875 10.203125 -16.515625 C 9.785156 -16.859375 9.203125 -17.03125 8.453125 -17.03125 C 6.703125 -17.03125 4.78125 -16.132812 2.6875 -14.34375 L 0.671875 -18.21875 C 3.484375 -20.332031 6.335938 -21.390625 9.234375 -21.390625 Z M 9.234375 -21.390625 "/></g></g></g><g fill="#4bcad6" fill-opacity="1"><g transform="translate(169.810868, 77.574245)"><g><path d="M 16.0625 -16.890625 L 7.09375 -16.890625 L 7.09375 -13.46875 L 9 -13.46875 C 11.394531 -13.46875 13.328125 -12.878906 14.796875 -11.703125 C 16.265625 -10.523438 17 -8.988281 17 -7.09375 C 17 -4.882812 16.234375 -3.113281 14.703125 -1.78125 C 13.171875 -0.445312 11.128906 0.21875 8.578125 0.21875 C 7.210938 0.21875 5.785156 -0.0195312 4.296875 -0.5 C 2.816406 -0.988281 1.523438 -1.628906 0.421875 -2.421875 L 2.5625 -6.5 C 4.175781 -4.757812 5.96875 -3.890625 7.9375 -3.890625 C 8.988281 -3.890625 9.800781 -4.132812 10.375 -4.625 C 10.945312 -5.125 11.234375 -5.828125 11.234375 -6.734375 C 11.234375 -7.554688 10.945312 -8.195312 10.375 -8.65625 C 9.800781 -9.125 8.988281 -9.359375 7.9375 -9.359375 C 5.5625 -9.359375 3.648438 -9.3125 2.203125 -9.21875 L 2.203125 -21.140625 L 16.0625 -21.140625 Z M 16.0625 -16.890625 "/></g></g></g><g fill="#f98039" fill-opacity="1"><g transform="translate(7.77129, 23.398244)"><g><path d="M 2.609375 0 L 0.734375 0 L 0.734375 -7.375 L 2.609375 -7.375 Z M 2.609375 0 "/></g></g></g><g fill="#f98039" fill-opacity="1"><g transform="translate(11.117175, 23.398244)"><g><path d="M 0.734375 -7.375 L 3.953125 -7.375 C 4.890625 -7.375 5.617188 -7.148438 6.140625 -6.703125 C 6.660156 -6.253906 6.921875 -5.617188 6.921875 -4.796875 C 6.921875 -3.929688 6.660156 -3.257812 6.140625 -2.78125 C 5.617188 -2.3125 4.890625 -2.078125 3.953125 -2.078125 L 2.609375 -2.078125 L 2.609375 0 L 0.734375 0 Z M 2.609375 -5.890625 L 2.609375 -3.546875 L 3.859375 -3.546875 C 4.265625 -3.546875 4.582031 -3.644531 4.8125 -3.84375 C 5.039062 -4.050781 5.15625 -4.347656 5.15625 -4.734375 C 5.15625 -5.117188 5.039062 -5.40625 4.8125 -5.59375 C 4.582031 -5.789062 4.265625 -5.890625 3.859375 -5.890625 Z M 2.609375 -5.890625 "/></g></g></g><g fill="#f98039" fill-opacity="1"><g transform="translate(18.271898, 23.398244)"><g><path d="M 7.546875 0 L 5.890625 0 L 2.5 -4.53125 L 2.5 0 L 0.734375 0 L 0.734375 -7.375 L 2.390625 -7.375 L 5.796875 -2.828125 L 5.796875 -7.375 L 7.546875 -7.375 Z M 7.546875 0 "/></g></g></g><g fill="#000000" fill-opacity="1"><g transform="translate(26.545174, 23.398244)"><g/></g></g><g fill="#f8f8f8" fill-opacity="1"><g transform="translate(28.98889, 23.398244)"><g><path d="M 5.640625 -1.359375 L 2.40625 -1.359375 L 1.875 0 L -0.046875 0 L 3.125 -7.375 L 5.0625 -7.375 L 8.15625 0 L 6.15625 0 Z M 5.09375 -2.78125 L 4.03125 -5.5 L 2.953125 -2.78125 Z M 5.09375 -2.78125 "/></g></g></g><g fill="#f8f8f8" fill-opacity="1"><g transform="translate(37.090565, 23.398244)"><g><path d="M 4.1875 -7.4375 C 4.738281 -7.4375 5.28125 -7.320312 5.8125 -7.09375 C 6.34375 -6.875 6.789062 -6.570312 7.15625 -6.1875 L 6.078125 -4.90625 C 5.835938 -5.195312 5.550781 -5.425781 5.21875 -5.59375 C 4.882812 -5.769531 4.550781 -5.859375 4.21875 -5.859375 C 3.632812 -5.859375 3.144531 -5.65625 2.75 -5.25 C 2.363281 -4.84375 2.171875 -4.335938 2.171875 -3.734375 C 2.171875 -3.109375 2.363281 -2.585938 2.75 -2.171875 C 3.144531 -1.765625 3.632812 -1.5625 4.21875 -1.5625 C 4.53125 -1.5625 4.851562 -1.632812 5.1875 -1.78125 C 5.519531 -1.9375 5.816406 -2.148438 6.078125 -2.421875 L 7.171875 -1.265625 C 6.773438 -0.859375 6.300781 -0.53125 5.75 -0.28125 C 5.207031 -0.0390625 4.664062 0.078125 4.125 0.078125 C 3.019531 0.078125 2.097656 -0.28125 1.359375 -1 C 0.617188 -1.71875 0.25 -2.617188 0.25 -3.703125 C 0.25 -4.765625 0.625 -5.648438 1.375 -6.359375 C 2.125 -7.078125 3.0625 -7.4375 4.1875 -7.4375 Z M 4.1875 -7.4375 "/></g></g></g><g fill="#f8f8f8" fill-opacity="1"><g transform="translate(44.37155, 23.398244)"><g><path d="M 5.640625 -1.359375 L 2.40625 -1.359375 L 1.875 0 L -0.046875 0 L 3.125 -7.375 L 5.0625 -7.375 L 8.15625 0 L 6.15625 0 Z M 5.09375 -2.78125 L 4.03125 -5.5 L 2.953125 -2.78125 Z M 5.09375 -2.78125 "/></g></g></g><g fill="#f8f8f8" fill-opacity="1"><g transform="translate(52.473225, 23.398244)"><g><path d="M 0.734375 -7.375 L 3.90625 -7.375 C 5.0625 -7.375 6.003906 -7.03125 6.734375 -6.34375 C 7.460938 -5.664062 7.828125 -4.78125 7.828125 -3.6875 C 7.828125 -2.59375 7.457031 -1.703125 6.71875 -1.015625 C 5.976562 -0.335938 5.015625 0 3.828125 0 L 0.734375 0 Z M 2.609375 -5.875 L 2.609375 -1.5 L 3.953125 -1.5 C 4.523438 -1.5 4.992188 -1.695312 5.359375 -2.09375 C 5.734375 -2.5 5.921875 -3.023438 5.921875 -3.671875 C 5.921875 -4.316406 5.726562 -4.84375 5.34375 -5.25 C 4.957031 -5.664062 4.460938 -5.875 3.859375 -5.875 Z M 2.609375 -5.875 "/></g></g></g><g fill="#f8f8f8" fill-opacity="1"><g transform="translate(60.543333, 23.398244)"><g><path d="M 6.515625 -5.890625 L 2.609375 -5.890625 L 2.609375 -4.4375 L 6.125 -4.4375 L 6.125 -2.953125 L 2.609375 -2.953125 L 2.609375 -1.46875 L 6.625 -1.46875 L 6.625 0 L 0.734375 0 L 0.734375 -7.375 L 6.515625 -7.375 Z M 6.515625 -5.890625 "/></g></g></g><g fill="#f8f8f8" fill-opacity="1"><g transform="translate(67.634926, 23.398244)"><g><path d="M 8.828125 0 L 7.1875 0 L 7.171875 -4.796875 L 5.40625 -0.734375 L 4.1875 -0.734375 L 2.40625 -4.796875 L 2.40625 0 L 0.734375 0 L 0.734375 -7.375 L 2.796875 -7.375 L 4.796875 -2.984375 L 6.796875 -7.375 L 8.828125 -7.375 Z M 8.828125 0 "/></g></g></g><g fill="#f8f8f8" fill-opacity="1"><g transform="translate(77.209631, 23.398244)"><g><path d="M 4.53125 -2.375 L 4.53125 0 L 2.671875 0 L 2.671875 -2.328125 L -0.046875 -7.375 L 1.828125 -7.375 L 3.609375 -4.15625 L 5.34375 -7.375 L 7.21875 -7.375 Z M 4.53125 -2.375 "/></g></g></g><g fill="#000000" fill-opacity="1"><g transform="translate(84.364586, 23.398244)"><g/></g></g><g fill="#ffffff" fill-opacity="1"><g transform="translate(86.34734, 23.071124)"><g><path d="M 0.203125 -2.09375 L 1.125 -2.09375 C 1.382812 -2.09375 1.585938 -2.023438 1.734375 -1.890625 C 1.878906 -1.765625 1.953125 -1.585938 1.953125 -1.359375 C 1.953125 -1.117188 1.878906 -0.929688 1.734375 -0.796875 C 1.585938 -0.660156 1.382812 -0.59375 1.125 -0.59375 L 0.734375 -0.59375 L 0.734375 0 L 0.203125 0 Z M 0.734375 -1.671875 L 0.734375 -1 L 1.09375 -1 C 1.207031 -1 1.296875 -1.023438 1.359375 -1.078125 C 1.421875 -1.140625 1.453125 -1.226562 1.453125 -1.34375 C 1.453125 -1.445312 1.421875 -1.523438 1.359375 -1.578125 C 1.296875 -1.640625 1.207031 -1.671875 1.09375 -1.671875 Z M 0.734375 -1.671875 "/></g></g></g><g fill="#ffffff" fill-opacity="1"><g transform="translate(88.3729, 23.071124)"><g><path d="M 1.46875 0 L 1.15625 -0.59375 L 0.734375 -0.59375 L 0.734375 0 L 0.203125 0 L 0.203125 -2.09375 L 1.140625 -2.09375 C 1.421875 -2.09375 1.632812 -2.023438 1.78125 -1.890625 C 1.9375 -1.765625 2.015625 -1.585938 2.015625 -1.359375 C 2.015625 -1.035156 1.882812 -0.8125 1.625 -0.6875 L 2.078125 0 Z M 0.734375 -1 L 1.140625 -1 C 1.253906 -1 1.34375 -1.023438 1.40625 -1.078125 C 1.46875 -1.140625 1.5 -1.226562 1.5 -1.34375 C 1.5 -1.445312 1.46875 -1.523438 1.40625 -1.578125 C 1.34375 -1.640625 1.253906 -1.671875 1.140625 -1.671875 L 0.734375 -1.671875 Z M 0.734375 -1 "/></g></g></g><g fill="#ffffff" fill-opacity="1"><g transform="translate(90.529524, 23.071124)"><g><path d="M 1.84375 -1.671875 L 0.734375 -1.671875 L 0.734375 -1.25 L 1.734375 -1.25 L 1.734375 -0.84375 L 0.734375 -0.84375 L 0.734375 -0.421875 L 1.875 -0.421875 L 1.875 0 L 0.203125 0 L 0.203125 -2.09375 L 1.84375 -2.09375 Z M 1.84375 -1.671875 "/></g></g></g><g fill="#ffffff" fill-opacity="1"><g transform="translate(92.537211, 23.071124)"><g><path d="M 1.015625 -2.109375 C 1.328125 -2.109375 1.597656 -2.03125 1.828125 -1.875 L 1.640625 -1.46875 C 1.523438 -1.53125 1.40625 -1.582031 1.28125 -1.625 C 1.15625 -1.664062 1.050781 -1.6875 0.96875 -1.6875 C 0.8125 -1.6875 0.734375 -1.632812 0.734375 -1.53125 C 0.734375 -1.46875 0.769531 -1.414062 0.84375 -1.375 C 0.925781 -1.332031 1.019531 -1.296875 1.125 -1.265625 C 1.238281 -1.234375 1.347656 -1.195312 1.453125 -1.15625 C 1.554688 -1.125 1.644531 -1.0625 1.71875 -0.96875 C 1.800781 -0.875 1.84375 -0.757812 1.84375 -0.625 C 1.84375 -0.414062 1.765625 -0.253906 1.609375 -0.140625 C 1.453125 -0.0351562 1.25 0.015625 1 0.015625 C 0.832031 0.015625 0.660156 -0.0078125 0.484375 -0.0625 C 0.316406 -0.125 0.171875 -0.207031 0.046875 -0.3125 L 0.25 -0.71875 C 0.363281 -0.632812 0.488281 -0.5625 0.625 -0.5 C 0.769531 -0.4375 0.898438 -0.40625 1.015625 -0.40625 C 1.097656 -0.40625 1.160156 -0.421875 1.203125 -0.453125 C 1.253906 -0.484375 1.28125 -0.53125 1.28125 -0.59375 C 1.28125 -0.65625 1.253906 -0.703125 1.203125 -0.734375 C 1.148438 -0.773438 1.082031 -0.804688 1 -0.828125 C 0.914062 -0.847656 0.828125 -0.875 0.734375 -0.90625 C 0.640625 -0.9375 0.550781 -0.96875 0.46875 -1 C 0.382812 -1.039062 0.3125 -1.101562 0.25 -1.1875 C 0.195312 -1.269531 0.171875 -1.367188 0.171875 -1.484375 C 0.171875 -1.671875 0.25 -1.820312 0.40625 -1.9375 C 0.5625 -2.050781 0.765625 -2.109375 1.015625 -2.109375 Z M 1.015625 -2.109375 "/></g></g></g><g fill="#ffffff" fill-opacity="1"><g transform="translate(94.455535, 23.071124)"><g><path d="M 1.84375 -1.671875 L 0.734375 -1.671875 L 0.734375 -1.25 L 1.734375 -1.25 L 1.734375 -0.84375 L 0.734375 -0.84375 L 0.734375 -0.421875 L 1.875 -0.421875 L 1.875 0 L 0.203125 0 L 0.203125 -2.09375 L 1.84375 -2.09375 Z M 1.84375 -1.671875 "/></g></g></g><g fill="#ffffff" fill-opacity="1"><g transform="translate(96.463222, 23.071124)"><g><path d="M 2.140625 0 L 1.671875 0 L 0.703125 -1.28125 L 0.703125 0 L 0.203125 0 L 0.203125 -2.09375 L 0.671875 -2.09375 L 1.640625 -0.796875 L 1.640625 -2.09375 L 2.140625 -2.09375 Z M 2.140625 0 "/></g></g></g><g fill="#ffffff" fill-opacity="1"><g transform="translate(98.804529, 23.071124)"><g><path d="M 1.8125 -1.65625 L 1.171875 -1.65625 L 1.171875 0 L 0.640625 0 L 0.640625 -1.65625 L 0.015625 -1.65625 L 0.015625 -2.09375 L 1.8125 -2.09375 Z M 1.8125 -1.65625 "/></g></g></g><g fill="#ffffff" fill-opacity="1"><g transform="translate(100.624553, 23.071124)"><g><path d="M 1.015625 -2.109375 C 1.328125 -2.109375 1.597656 -2.03125 1.828125 -1.875 L 1.640625 -1.46875 C 1.523438 -1.53125 1.40625 -1.582031 1.28125 -1.625 C 1.15625 -1.664062 1.050781 -1.6875 0.96875 -1.6875 C 0.8125 -1.6875 0.734375 -1.632812 0.734375 -1.53125 C 0.734375 -1.46875 0.769531 -1.414062 0.84375 -1.375 C 0.925781 -1.332031 1.019531 -1.296875 1.125 -1.265625 C 1.238281 -1.234375 1.347656 -1.195312 1.453125 -1.15625 C 1.554688 -1.125 1.644531 -1.0625 1.71875 -0.96875 C 1.800781 -0.875 1.84375 -0.757812 1.84375 -0.625 C 1.84375 -0.414062 1.765625 -0.253906 1.609375 -0.140625 C 1.453125 -0.0351562 1.25 0.015625 1 0.015625 C 0.832031 0.015625 0.660156 -0.0078125 0.484375 -0.0625 C 0.316406 -0.125 0.171875 -0.207031 0.046875 -0.3125 L 0.25 -0.71875 C 0.363281 -0.632812 0.488281 -0.5625 0.625 -0.5 C 0.769531 -0.4375 0.898438 -0.40625 1.015625 -0.40625 C 1.097656 -0.40625 1.160156 -0.421875 1.203125 -0.453125 C 1.253906 -0.484375 1.28125 -0.53125 1.28125 -0.59375 C 1.28125 -0.65625 1.253906 -0.703125 1.203125 -0.734375 C 1.148438 -0.773438 1.082031 -0.804688 1 -0.828125 C 0.914062 -0.847656 0.828125 -0.875 0.734375 -0.90625 C 0.640625 -0.9375 0.550781 -0.96875 0.46875 -1 C 0.382812 -1.039062 0.3125 -1.101562 0.25 -1.1875 C 0.195312 -1.269531 0.171875 -1.367188 0.171875 -1.484375 C 0.171875 -1.671875 0.25 -1.820312 0.40625 -1.9375 C 0.5625 -2.050781 0.765625 -2.109375 1.015625 -2.109375 Z M 1.015625 -2.109375 "/></g></g></g><g fill="#ffffff" fill-opacity="1"><g transform="translate(8.091606, 35.903585)"><g><path d="M 0.1875 -7.453125 L 6.71875 -7.453125 L 6.71875 -6.71875 L 4.359375 -6.71875 L 4.359375 0 L 3.625 0 L 3.625 -6.71875 L 3.265625 -6.71875 L 3.265625 0 L 2.546875 0 L 2.546875 -6.71875 L 0.1875 -6.71875 Z M 0.1875 -8.53125 L 6.71875 -8.53125 L 6.71875 -7.8125 L 0.1875 -7.8125 Z M 0.1875 -8.53125 "/></g></g></g><g fill="#ffffff" fill-opacity="1"><g transform="translate(15.044097, 35.903585)"><g><path d="M 0.90625 -7.453125 L 6.71875 -7.453125 L 6.71875 -6.71875 L 2.71875 -6.71875 L 2.71875 -5.265625 L 6.53125 -5.265625 L 6.53125 -4.546875 L 2.71875 -4.546875 L 2.71875 -4.171875 L 6.53125 -4.171875 L 6.53125 -3.453125 L 2.71875 -3.453125 L 2.71875 -1.8125 L 6.90625 -1.8125 L 6.90625 -1.09375 L 2.71875 -1.09375 L 2.71875 -0.71875 L 6.90625 -0.71875 L 6.90625 0 L 2 0 L 2 -6.71875 L 1.640625 -6.71875 L 1.640625 0 L 0.90625 0 Z M 0.90625 -8.53125 L 6.71875 -8.53125 L 6.71875 -7.8125 L 0.90625 -7.8125 Z M 0.90625 -8.53125 "/></g></g></g><g fill="#ffffff" fill-opacity="1"><g transform="translate(22.674878, 35.903585)"><g><path d="M 4.203125 -8.53125 L 5.15625 -8.53125 L 8.15625 0 L 7.375 0 L 4.671875 -7.703125 L 4.484375 -7.125 L 6.96875 0 L 6.203125 0 L 5.5625 -1.8125 L 2.609375 -1.8125 L 1.984375 0 L 1.21875 0 Z M 3.046875 -8.53125 L 3.8125 -8.53125 L 0.828125 0 L 0.0625 0 Z M 3.25 -3.625 L 4.9375 -3.625 L 4.109375 -6.0625 Z M 2.875 -2.546875 L 5.3125 -2.546875 L 5.1875 -2.90625 L 3 -2.90625 Z M 2.875 -2.546875 "/></g></g></g><g fill="#ffffff" fill-opacity="1"><g transform="translate(30.850717, 35.903585)"><g><path d="M 7.40625 -7.09375 C 7.082031 -7.375 6.710938 -7.59375 6.296875 -7.75 C 5.878906 -7.90625 5.441406 -7.984375 4.984375 -7.984375 C 4.472656 -7.984375 3.988281 -7.882812 3.53125 -7.6875 C 3.082031 -7.5 2.691406 -7.234375 2.359375 -6.890625 C 2.023438 -6.554688 1.757812 -6.160156 1.5625 -5.703125 C 1.363281 -5.253906 1.265625 -4.773438 1.265625 -4.265625 C 1.265625 -3.742188 1.363281 -3.253906 1.5625 -2.796875 C 1.757812 -2.347656 2.023438 -1.957031 2.359375 -1.625 C 2.691406 -1.289062 3.082031 -1.023438 3.53125 -0.828125 C 3.988281 -0.640625 4.472656 -0.546875 4.984375 -0.546875 C 5.515625 -0.546875 6.003906 -0.644531 6.453125 -0.84375 C 6.898438 -1.039062 7.296875 -1.304688 7.640625 -1.640625 L 8.234375 -1.21875 C 7.816406 -0.78125 7.332031 -0.4375 6.78125 -0.1875 C 6.226562 0.0625 5.628906 0.1875 4.984375 0.1875 C 4.367188 0.1875 3.789062 0.0703125 3.25 -0.15625 C 2.71875 -0.394531 2.25 -0.710938 1.84375 -1.109375 C 1.445312 -1.515625 1.128906 -1.988281 0.890625 -2.53125 C 0.660156 -3.070312 0.546875 -3.648438 0.546875 -4.265625 C 0.546875 -4.878906 0.660156 -5.457031 0.890625 -6 C 1.128906 -6.539062 1.445312 -7.007812 1.84375 -7.40625 C 2.25 -7.8125 2.71875 -8.128906 3.25 -8.359375 C 3.789062 -8.597656 4.367188 -8.71875 4.984375 -8.71875 C 5.566406 -8.71875 6.109375 -8.613281 6.609375 -8.40625 C 7.109375 -8.207031 7.5625 -7.925781 7.96875 -7.5625 Z M 6.53125 -6.40625 C 6.3125 -6.5625 6.066406 -6.679688 5.796875 -6.765625 C 5.535156 -6.859375 5.265625 -6.90625 4.984375 -6.90625 C 4.617188 -6.90625 4.273438 -6.832031 3.953125 -6.6875 C 3.628906 -6.550781 3.347656 -6.363281 3.109375 -6.125 C 2.878906 -5.882812 2.691406 -5.601562 2.546875 -5.28125 C 2.410156 -4.96875 2.34375 -4.628906 2.34375 -4.265625 C 2.34375 -3.898438 2.410156 -3.554688 2.546875 -3.234375 C 2.691406 -2.921875 2.878906 -2.644531 3.109375 -2.40625 C 3.347656 -2.164062 3.628906 -1.976562 3.953125 -1.84375 C 4.273438 -1.707031 4.617188 -1.640625 4.984375 -1.640625 C 5.316406 -1.640625 5.628906 -1.691406 5.921875 -1.796875 C 6.222656 -1.910156 6.488281 -2.070312 6.71875 -2.28125 L 7.34375 -1.859375 C 7.03125 -1.566406 6.671875 -1.332031 6.265625 -1.15625 C 5.867188 -0.988281 5.441406 -0.90625 4.984375 -0.90625 C 4.523438 -0.90625 4.09375 -0.992188 3.6875 -1.171875 C 3.28125 -1.347656 2.925781 -1.585938 2.625 -1.890625 C 2.320312 -2.191406 2.082031 -2.546875 1.90625 -2.953125 C 1.726562 -3.367188 1.640625 -3.804688 1.640625 -4.265625 C 1.640625 -4.722656 1.726562 -5.15625 1.90625 -5.5625 C 2.082031 -5.976562 2.320312 -6.335938 2.625 -6.640625 C 2.925781 -6.941406 3.28125 -7.179688 3.6875 -7.359375 C 4.09375 -7.535156 4.523438 -7.625 4.984375 -7.625 C 5.390625 -7.625 5.769531 -7.554688 6.125 -7.421875 C 6.488281 -7.285156 6.816406 -7.097656 7.109375 -6.859375 Z M 6.53125 -6.40625 "/></g></g></g><g fill="#ffffff" fill-opacity="1"><g transform="translate(39.147678, 35.903585)"><g><path d="M 6.53125 -3.625 L 2.71875 -3.625 L 2.71875 0 L 2 0 L 2 -8.53125 L 2.71875 -8.53125 L 2.71875 -5.453125 L 6.53125 -5.453125 L 6.53125 -8.53125 L 7.265625 -8.53125 L 7.265625 0 L 6.53125 0 Z M 0.90625 -8.53125 L 1.640625 -8.53125 L 1.640625 0 L 0.90625 0 Z M 7.625 -8.53125 L 8.359375 -8.53125 L 8.359375 0 L 7.625 0 Z M 2.71875 -4.359375 L 6.53125 -4.359375 L 6.53125 -4.71875 L 2.71875 -4.71875 Z M 2.71875 -4.359375 "/></g></g></g><g fill="#ffffff" fill-opacity="1"><g transform="translate(48.340955, 35.903585)"><g><path d="M 0.90625 -7.453125 L 6.71875 -7.453125 L 6.71875 -6.71875 L 2.71875 -6.71875 L 2.71875 -5.265625 L 6.53125 -5.265625 L 6.53125 -4.546875 L 2.71875 -4.546875 L 2.71875 -4.171875 L 6.53125 -4.171875 L 6.53125 -3.453125 L 2.71875 -3.453125 L 2.71875 -1.8125 L 6.90625 -1.8125 L 6.90625 -1.09375 L 2.71875 -1.09375 L 2.71875 -0.71875 L 6.90625 -0.71875 L 6.90625 0 L 2 0 L 2 -6.71875 L 1.640625 -6.71875 L 1.640625 0 L 0.90625 0 Z M 0.90625 -8.53125 L 6.71875 -8.53125 L 6.71875 -7.8125 L 0.90625 -7.8125 Z M 0.90625 -8.53125 "/></g></g></g><g fill="#ffffff" fill-opacity="1"><g transform="translate(55.971736, 35.903585)"><g><path d="M 6.578125 0 L 4.796875 -3.265625 C 4.773438 -3.253906 4.75 -3.25 4.71875 -3.25 C 4.6875 -3.257812 4.660156 -3.265625 4.640625 -3.265625 L 4.359375 -3.265625 L 6.140625 0 L 5.3125 0 L 3.53125 -3.265625 L 2.71875 -3.265625 L 2.71875 0 L 2 0 L 2 -6.71875 L 1.640625 -6.71875 L 1.640625 0 L 0.90625 0 L 0.90625 -7.453125 L 4.640625 -7.453125 C 4.859375 -7.453125 5.054688 -7.410156 5.234375 -7.328125 C 5.421875 -7.242188 5.585938 -7.128906 5.734375 -6.984375 C 5.878906 -6.847656 5.988281 -6.6875 6.0625 -6.5 C 6.144531 -6.3125 6.1875 -6.109375 6.1875 -5.890625 C 6.1875 -5.671875 6.144531 -5.46875 6.0625 -5.28125 C 5.988281 -5.101562 5.878906 -4.941406 5.734375 -4.796875 C 5.585938 -4.660156 5.421875 -4.550781 5.234375 -4.46875 C 5.054688 -4.394531 4.859375 -4.359375 4.640625 -4.359375 L 2.71875 -4.359375 L 2.71875 -4 L 4.640625 -4 C 4.898438 -4 5.144531 -4.046875 5.375 -4.140625 C 5.613281 -4.242188 5.816406 -4.378906 5.984375 -4.546875 C 6.160156 -4.722656 6.296875 -4.925781 6.390625 -5.15625 C 6.492188 -5.382812 6.546875 -5.628906 6.546875 -5.890625 C 6.546875 -6.160156 6.492188 -6.410156 6.390625 -6.640625 C 6.296875 -6.867188 6.160156 -7.066406 5.984375 -7.234375 C 5.816406 -7.410156 5.613281 -7.550781 5.375 -7.65625 C 5.144531 -7.757812 4.898438 -7.8125 4.640625 -7.8125 L 0.90625 -7.8125 L 0.90625 -8.53125 L 4.640625 -8.53125 C 5.003906 -8.53125 5.34375 -8.460938 5.65625 -8.328125 C 5.976562 -8.191406 6.257812 -8.003906 6.5 -7.765625 C 6.738281 -7.523438 6.925781 -7.242188 7.0625 -6.921875 C 7.207031 -6.597656 7.28125 -6.253906 7.28125 -5.890625 C 7.28125 -5.609375 7.234375 -5.335938 7.140625 -5.078125 C 7.054688 -4.828125 6.9375 -4.59375 6.78125 -4.375 C 6.625 -4.15625 6.4375 -3.960938 6.21875 -3.796875 C 6.007812 -3.640625 5.78125 -3.515625 5.53125 -3.421875 L 7.40625 0 Z M 2.71875 -6.71875 L 2.71875 -5.078125 L 4.640625 -5.078125 C 4.867188 -5.078125 5.0625 -5.15625 5.21875 -5.3125 C 5.382812 -5.46875 5.46875 -5.660156 5.46875 -5.890625 C 5.46875 -6.128906 5.382812 -6.328125 5.21875 -6.484375 C 5.0625 -6.640625 4.867188 -6.71875 4.640625 -6.71875 Z M 2.71875 -6.71875 "/></g></g></g><g fill="#ffffff" fill-opacity="1"><g transform="translate(63.820542, 35.903585)"><g/></g></g><g fill="#ffffff" fill-opacity="1"><g transform="translate(67.405795, 35.903585)"><g><path d="M 2 -8.53125 L 2.71875 -8.53125 L 2.71875 -1.8125 L 6.359375 -1.8125 L 6.359375 -1.09375 L 2.71875 -1.09375 L 2.71875 -0.71875 L 6.359375 -0.71875 L 6.359375 0 L 2 0 Z M 0.90625 -8.53125 L 1.640625 -8.53125 L 1.640625 0 L 0.90625 0 Z M 0.90625 -8.53125 "/></g></g></g><g fill="#ffffff" fill-opacity="1"><g transform="translate(73.910128, 35.903585)"><g><path d="M 0.90625 -7.453125 L 6.71875 -7.453125 L 6.71875 -6.71875 L 2.71875 -6.71875 L 2.71875 -5.265625 L 6.53125 -5.265625 L 6.53125 -4.546875 L 2.71875 -4.546875 L 2.71875 -4.171875 L 6.53125 -4.171875 L 6.53125 -3.453125 L 2.71875 -3.453125 L 2.71875 -1.8125 L 6.90625 -1.8125 L 6.90625 -1.09375 L 2.71875 -1.09375 L 2.71875 -0.71875 L 6.90625 -0.71875 L 6.90625 0 L 2 0 L 2 -6.71875 L 1.640625 -6.71875 L 1.640625 0 L 0.90625 0 Z M 0.90625 -8.53125 L 6.71875 -8.53125 L 6.71875 -7.8125 L 0.90625 -7.8125 Z M 0.90625 -8.53125 "/></g></g></g><g fill="#ffffff" fill-opacity="1"><g transform="translate(81.540905, 35.903585)"><g><path d="M 4.203125 -8.53125 L 5.15625 -8.53125 L 8.15625 0 L 7.375 0 L 4.671875 -7.703125 L 4.484375 -7.125 L 6.96875 0 L 6.203125 0 L 5.5625 -1.8125 L 2.609375 -1.8125 L 1.984375 0 L 1.21875 0 Z M 3.046875 -8.53125 L 3.8125 -8.53125 L 0.828125 0 L 0.0625 0 Z M 3.25 -3.625 L 4.9375 -3.625 L 4.109375 -6.0625 Z M 2.875 -2.546875 L 5.3125 -2.546875 L 5.1875 -2.90625 L 3 -2.90625 Z M 2.875 -2.546875 "/></g></g></g><g fill="#ffffff" fill-opacity="1"><g transform="translate(89.716748, 35.903585)"><g><path d="M 2 -6.71875 L 1.640625 -6.71875 L 1.640625 0 L 0.90625 0 L 0.90625 -7.453125 L 4.328125 -7.453125 C 4.785156 -7.453125 5.21875 -7.367188 5.625 -7.203125 C 6.039062 -7.035156 6.398438 -6.804688 6.703125 -6.515625 C 7.003906 -6.234375 7.242188 -5.894531 7.421875 -5.5 C 7.597656 -5.113281 7.6875 -4.703125 7.6875 -4.265625 C 7.6875 -3.816406 7.597656 -3.398438 7.421875 -3.015625 C 7.242188 -2.628906 7.003906 -2.296875 6.703125 -2.015625 C 6.398438 -1.734375 6.039062 -1.507812 5.625 -1.34375 C 5.21875 -1.175781 4.785156 -1.09375 4.328125 -1.09375 L 2.71875 -1.09375 L 2.71875 -0.71875 L 4.328125 -0.71875 C 4.835938 -0.71875 5.316406 -0.804688 5.765625 -0.984375 C 6.222656 -1.171875 6.617188 -1.425781 6.953125 -1.75 C 7.296875 -2.070312 7.5625 -2.445312 7.75 -2.875 C 7.945312 -3.300781 8.046875 -3.765625 8.046875 -4.265625 C 8.046875 -4.753906 7.945312 -5.210938 7.75 -5.640625 C 7.5625 -6.078125 7.296875 -6.457031 6.953125 -6.78125 C 6.617188 -7.101562 6.222656 -7.351562 5.765625 -7.53125 C 5.316406 -7.71875 4.835938 -7.8125 4.328125 -7.8125 L 0.90625 -7.8125 L 0.90625 -8.53125 L 4.328125 -8.53125 C 4.941406 -8.53125 5.515625 -8.421875 6.046875 -8.203125 C 6.585938 -7.984375 7.0625 -7.679688 7.46875 -7.296875 C 7.875 -6.910156 8.191406 -6.457031 8.421875 -5.9375 C 8.660156 -5.414062 8.78125 -4.859375 8.78125 -4.265625 C 8.78125 -3.660156 8.660156 -3.097656 8.421875 -2.578125 C 8.191406 -2.066406 7.875 -1.617188 7.46875 -1.234375 C 7.0625 -0.859375 6.585938 -0.554688 6.046875 -0.328125 C 5.515625 -0.109375 4.941406 0 4.328125 0 L 2 0 Z M 2.71875 -6.71875 L 2.71875 -1.8125 L 4.3125 -1.8125 C 4.675781 -1.8125 5.015625 -1.875 5.328125 -2 C 5.648438 -2.125 5.929688 -2.296875 6.171875 -2.515625 C 6.410156 -2.734375 6.597656 -2.988281 6.734375 -3.28125 C 6.878906 -3.582031 6.953125 -3.910156 6.953125 -4.265625 C 6.953125 -4.609375 6.878906 -4.925781 6.734375 -5.21875 C 6.597656 -5.519531 6.410156 -5.78125 6.171875 -6 C 5.929688 -6.226562 5.648438 -6.40625 5.328125 -6.53125 C 5.015625 -6.65625 4.675781 -6.71875 4.3125 -6.71875 Z M 2.71875 -6.71875 "/></g></g></g><g fill="#ffffff" fill-opacity="1"><g transform="translate(98.910021, 35.903585)"><g><path d="M 0.90625 -7.453125 L 6.71875 -7.453125 L 6.71875 -6.71875 L 2.71875 -6.71875 L 2.71875 -5.265625 L 6.53125 -5.265625 L 6.53125 -4.546875 L 2.71875 -4.546875 L 2.71875 -4.171875 L 6.53125 -4.171875 L 6.53125 -3.453125 L 2.71875 -3.453125 L 2.71875 -1.8125 L 6.90625 -1.8125 L 6.90625 -1.09375 L 2.71875 -1.09375 L 2.71875 -0.71875 L 6.90625 -0.71875 L 6.90625 0 L 2 0 L 2 -6.71875 L 1.640625 -6.71875 L 1.640625 0 L 0.90625 0 Z M 0.90625 -8.53125 L 6.71875 -8.53125 L 6.71875 -7.8125 L 0.90625 -7.8125 Z M 0.90625 -8.53125 "/></g></g></g><g fill="#ffffff" fill-opacity="1"><g transform="translate(106.540806, 35.903585)"><g><path d="M 6.578125 0 L 4.796875 -3.265625 C 4.773438 -3.253906 4.75 -3.25 4.71875 -3.25 C 4.6875 -3.257812 4.660156 -3.265625 4.640625 -3.265625 L 4.359375 -3.265625 L 6.140625 0 L 5.3125 0 L 3.53125 -3.265625 L 2.71875 -3.265625 L 2.71875 0 L 2 0 L 2 -6.71875 L 1.640625 -6.71875 L 1.640625 0 L 0.90625 0 L 0.90625 -7.453125 L 4.640625 -7.453125 C 4.859375 -7.453125 5.054688 -7.410156 5.234375 -7.328125 C 5.421875 -7.242188 5.585938 -7.128906 5.734375 -6.984375 C 5.878906 -6.847656 5.988281 -6.6875 6.0625 -6.5 C 6.144531 -6.3125 6.1875 -6.109375 6.1875 -5.890625 C 6.1875 -5.671875 6.144531 -5.46875 6.0625 -5.28125 C 5.988281 -5.101562 5.878906 -4.941406 5.734375 -4.796875 C 5.585938 -4.660156 5.421875 -4.550781 5.234375 -4.46875 C 5.054688 -4.394531 4.859375 -4.359375 4.640625 -4.359375 L 2.71875 -4.359375 L 2.71875 -4 L 4.640625 -4 C 4.898438 -4 5.144531 -4.046875 5.375 -4.140625 C 5.613281 -4.242188 5.816406 -4.378906 5.984375 -4.546875 C 6.160156 -4.722656 6.296875 -4.925781 6.390625 -5.15625 C 6.492188 -5.382812 6.546875 -5.628906 6.546875 -5.890625 C 6.546875 -6.160156 6.492188 -6.410156 6.390625 -6.640625 C 6.296875 -6.867188 6.160156 -7.066406 5.984375 -7.234375 C 5.816406 -7.410156 5.613281 -7.550781 5.375 -7.65625 C 5.144531 -7.757812 4.898438 -7.8125 4.640625 -7.8125 L 0.90625 -7.8125 L 0.90625 -8.53125 L 4.640625 -8.53125 C 5.003906 -8.53125 5.34375 -8.460938 5.65625 -8.328125 C 5.976562 -8.191406 6.257812 -8.003906 6.5 -7.765625 C 6.738281 -7.523438 6.925781 -7.242188 7.0625 -6.921875 C 7.207031 -6.597656 7.28125 -6.253906 7.28125 -5.890625 C 7.28125 -5.609375 7.234375 -5.335938 7.140625 -5.078125 C 7.054688 -4.828125 6.9375 -4.59375 6.78125 -4.375 C 6.625 -4.15625 6.4375 -3.960938 6.21875 -3.796875 C 6.007812 -3.640625 5.78125 -3.515625 5.53125 -3.421875 L 7.40625 0 Z M 2.71875 -6.71875 L 2.71875 -5.078125 L 4.640625 -5.078125 C 4.867188 -5.078125 5.0625 -5.15625 5.21875 -5.3125 C 5.382812 -5.46875 5.46875 -5.660156 5.46875 -5.890625 C 5.46875 -6.128906 5.382812 -6.328125 5.21875 -6.484375 C 5.0625 -6.640625 4.867188 -6.71875 4.640625 -6.71875 Z M 2.71875 -6.71875 "/></g></g></g><g fill="#ffffff" fill-opacity="1"><g transform="translate(114.389612, 35.903585)"><g><path d="M 5.203125 -7.25 C 5.015625 -7.457031 4.769531 -7.628906 4.46875 -7.765625 C 4.164062 -7.910156 3.828125 -7.984375 3.453125 -7.984375 C 3.171875 -7.984375 2.90625 -7.9375 2.65625 -7.84375 C 2.40625 -7.75 2.179688 -7.617188 1.984375 -7.453125 C 1.785156 -7.285156 1.628906 -7.082031 1.515625 -6.84375 C 1.410156 -6.613281 1.359375 -6.359375 1.359375 -6.078125 C 1.359375 -5.878906 1.382812 -5.679688 1.4375 -5.484375 C 1.5 -5.296875 1.582031 -5.117188 1.6875 -4.953125 C 1.789062 -4.796875 1.914062 -4.65625 2.0625 -4.53125 C 2.21875 -4.414062 2.394531 -4.332031 2.59375 -4.28125 L 4.109375 -3.890625 C 4.253906 -3.847656 4.390625 -3.773438 4.515625 -3.671875 C 4.640625 -3.578125 4.742188 -3.460938 4.828125 -3.328125 C 4.921875 -3.191406 4.988281 -3.046875 5.03125 -2.890625 C 5.070312 -2.734375 5.09375 -2.582031 5.09375 -2.4375 C 5.09375 -2.195312 5.039062 -1.984375 4.9375 -1.796875 C 4.832031 -1.617188 4.6875 -1.460938 4.5 -1.328125 C 4.320312 -1.203125 4.113281 -1.101562 3.875 -1.03125 C 3.644531 -0.957031 3.398438 -0.921875 3.140625 -0.921875 C 2.773438 -0.921875 2.425781 -0.984375 2.09375 -1.109375 C 1.769531 -1.242188 1.507812 -1.421875 1.3125 -1.640625 L 1.90625 -2.078125 C 2.019531 -1.960938 2.1875 -1.859375 2.40625 -1.765625 C 2.632812 -1.679688 2.878906 -1.640625 3.140625 -1.640625 C 3.503906 -1.640625 3.800781 -1.710938 4.03125 -1.859375 C 4.257812 -2.015625 4.375 -2.222656 4.375 -2.484375 C 4.375 -2.640625 4.328125 -2.785156 4.234375 -2.921875 C 4.140625 -3.066406 4.007812 -3.160156 3.84375 -3.203125 L 2.34375 -3.625 C 2.0625 -3.695312 1.816406 -3.8125 1.609375 -3.96875 C 1.398438 -4.132812 1.222656 -4.328125 1.078125 -4.546875 C 0.929688 -4.765625 0.816406 -5 0.734375 -5.25 C 0.660156 -5.507812 0.625 -5.773438 0.625 -6.046875 C 0.625 -6.441406 0.703125 -6.800781 0.859375 -7.125 C 1.023438 -7.457031 1.234375 -7.738281 1.484375 -7.96875 C 1.742188 -8.207031 2.046875 -8.390625 2.390625 -8.515625 C 2.734375 -8.640625 3.09375 -8.703125 3.46875 -8.703125 C 3.945312 -8.703125 4.390625 -8.609375 4.796875 -8.421875 C 5.203125 -8.242188 5.53125 -8.007812 5.78125 -7.71875 Z M 4.390625 -6.546875 C 4.304688 -6.640625 4.175781 -6.71875 4 -6.78125 C 3.832031 -6.851562 3.648438 -6.890625 3.453125 -6.890625 C 3.148438 -6.890625 2.90625 -6.8125 2.71875 -6.65625 C 2.539062 -6.5 2.453125 -6.289062 2.453125 -6.03125 C 2.453125 -5.863281 2.492188 -5.710938 2.578125 -5.578125 C 2.671875 -5.441406 2.800781 -5.359375 2.96875 -5.328125 L 4.5 -4.890625 C 4.769531 -4.828125 5.007812 -4.710938 5.21875 -4.546875 C 5.425781 -4.390625 5.601562 -4.203125 5.75 -3.984375 C 5.894531 -3.765625 6.003906 -3.523438 6.078125 -3.265625 C 6.160156 -3.003906 6.203125 -2.738281 6.203125 -2.46875 C 6.203125 -2.070312 6.117188 -1.707031 5.953125 -1.375 C 5.785156 -1.050781 5.5625 -0.773438 5.28125 -0.546875 C 5.007812 -0.316406 4.691406 -0.140625 4.328125 -0.015625 C 3.960938 0.109375 3.582031 0.171875 3.1875 0.171875 C 2.613281 0.171875 2.085938 0.0664062 1.609375 -0.140625 C 1.128906 -0.347656 0.75 -0.613281 0.46875 -0.9375 L 1.0625 -1.375 C 1.269531 -1.15625 1.5625 -0.960938 1.9375 -0.796875 C 2.3125 -0.640625 2.710938 -0.5625 3.140625 -0.5625 C 3.453125 -0.5625 3.742188 -0.601562 4.015625 -0.6875 C 4.296875 -0.78125 4.539062 -0.90625 4.75 -1.0625 C 4.96875 -1.226562 5.140625 -1.425781 5.265625 -1.65625 C 5.398438 -1.882812 5.46875 -2.140625 5.46875 -2.421875 C 5.46875 -2.828125 5.363281 -3.203125 5.15625 -3.546875 C 4.945312 -3.890625 4.640625 -4.117188 4.234375 -4.234375 L 2.71875 -4.640625 C 2.40625 -4.722656 2.160156 -4.90625 1.984375 -5.1875 C 1.816406 -5.476562 1.734375 -5.773438 1.734375 -6.078125 C 1.734375 -6.316406 1.78125 -6.53125 1.875 -6.71875 C 1.96875 -6.90625 2.09375 -7.066406 2.25 -7.203125 C 2.414062 -7.335938 2.601562 -7.4375 2.8125 -7.5 C 3.03125 -7.570312 3.253906 -7.609375 3.484375 -7.609375 C 3.796875 -7.609375 4.078125 -7.550781 4.328125 -7.4375 C 4.578125 -7.320312 4.78125 -7.179688 4.9375 -7.015625 Z M 4.390625 -6.546875 "/></g></g></g><g fill="#ffffff" fill-opacity="1"><g transform="translate(121.342103, 35.903585)"><g><path d="M 6.53125 -3.625 L 2.71875 -3.625 L 2.71875 0 L 2 0 L 2 -8.53125 L 2.71875 -8.53125 L 2.71875 -5.453125 L 6.53125 -5.453125 L 6.53125 -8.53125 L 7.265625 -8.53125 L 7.265625 0 L 6.53125 0 Z M 0.90625 -8.53125 L 1.640625 -8.53125 L 1.640625 0 L 0.90625 0 Z M 7.625 -8.53125 L 8.359375 -8.53125 L 8.359375 0 L 7.625 0 Z M 2.71875 -4.359375 L 6.53125 -4.359375 L 6.53125 -4.71875 L 2.71875 -4.71875 Z M 2.71875 -4.359375 "/></g></g></g><g fill="#ffffff" fill-opacity="1"><g transform="translate(130.535376, 35.903585)"><g><path d="M 2 -8.53125 L 2.71875 -8.53125 L 2.71875 0 L 2 0 Z M 0.90625 -8.53125 L 1.640625 -8.53125 L 1.640625 0 L 0.90625 0 Z M 0.90625 -8.53125 "/></g></g></g><g fill="#ffffff" fill-opacity="1"><g transform="translate(134.120639, 35.903585)"><g><path d="M 4.640625 -7.453125 C 4.859375 -7.453125 5.054688 -7.410156 5.234375 -7.328125 C 5.421875 -7.242188 5.585938 -7.128906 5.734375 -6.984375 C 5.878906 -6.847656 5.988281 -6.6875 6.0625 -6.5 C 6.144531 -6.3125 6.1875 -6.109375 6.1875 -5.890625 C 6.1875 -5.671875 6.144531 -5.46875 6.0625 -5.28125 C 5.988281 -5.101562 5.878906 -4.941406 5.734375 -4.796875 C 5.585938 -4.660156 5.421875 -4.550781 5.234375 -4.46875 C 5.054688 -4.394531 4.859375 -4.359375 4.640625 -4.359375 L 2.71875 -4.359375 L 2.71875 -4 L 4.640625 -4 C 4.898438 -4 5.144531 -4.046875 5.375 -4.140625 C 5.613281 -4.242188 5.816406 -4.378906 5.984375 -4.546875 C 6.160156 -4.722656 6.296875 -4.925781 6.390625 -5.15625 C 6.492188 -5.382812 6.546875 -5.628906 6.546875 -5.890625 C 6.546875 -6.160156 6.492188 -6.410156 6.390625 -6.640625 C 6.296875 -6.867188 6.160156 -7.066406 5.984375 -7.234375 C 5.816406 -7.410156 5.613281 -7.550781 5.375 -7.65625 C 5.144531 -7.757812 4.898438 -7.8125 4.640625 -7.8125 L 0.90625 -7.8125 L 0.90625 -8.53125 L 4.640625 -8.53125 C 5.003906 -8.53125 5.34375 -8.460938 5.65625 -8.328125 C 5.976562 -8.191406 6.257812 -8.003906 6.5 -7.765625 C 6.738281 -7.523438 6.925781 -7.242188 7.0625 -6.921875 C 7.207031 -6.597656 7.28125 -6.253906 7.28125 -5.890625 C 7.28125 -5.535156 7.207031 -5.195312 7.0625 -4.875 C 6.925781 -4.550781 6.738281 -4.269531 6.5 -4.03125 C 6.257812 -3.800781 5.976562 -3.613281 5.65625 -3.46875 C 5.34375 -3.332031 5.003906 -3.265625 4.640625 -3.265625 L 2.71875 -3.265625 L 2.71875 0 L 2 0 L 2 -6.71875 L 1.640625 -6.71875 L 1.640625 0 L 0.90625 0 L 0.90625 -7.453125 Z M 2.71875 -6.71875 L 2.71875 -5.078125 L 4.640625 -5.078125 C 4.867188 -5.078125 5.0625 -5.15625 5.21875 -5.3125 C 5.382812 -5.46875 5.46875 -5.660156 5.46875 -5.890625 C 5.46875 -6.128906 5.382812 -6.328125 5.21875 -6.484375 C 5.0625 -6.640625 4.867188 -6.71875 4.640625 -6.71875 Z M 2.71875 -6.71875 "/></g></g></g></svg>